<svg fill="#fff" xmlns="http://www.w3.org/2000/svg" xmlns:xlink="http://www.w3.org/1999/xlink" version="1.1" x="0px" y="0px" viewBox="0 0 90 112.5" enable-background="new 0 0 90 90" xml:space="preserve"><path fill-rule="evenodd" clip-rule="evenodd" d="M29.756,6.857c-2.641,19.292-11.094,17.344-6.734,28.792  c1.166,3.058-2.453,2.484-4.172-0.907c-2.229-4.391,1.9-7.588-0.672-13.401c-4.395,8.994-15.25,13.969-1.656,27.318  c-4.406,1.301-7.025-8.215-11.223-4.715c3.775,6.526,1.25,8.797,4.453,14.25c1.166,1.995,2.719,3.672,4.604,4.949  c-0.99,0.677-1.859,1.327-2.568,1.932c-2.031,1.735-2.141,3.65-1.734,5.365c0.543,2.28,2.412,7.218,7.922,10.145  c5.578,2.964,14.6,3.813,29.688-0.229c15.094-4.046,22.479-9.292,25.828-14.645c3.307-5.286,2.463-10.505,1.791-12.75  c-0.354-1.192-1-2.338-2.27-3.083l10.604-17.079c2.725-4.391-0.313-7.776-3.74-7.724c-0.488,0.005-0.984,0.084-1.473,0.24  c-1.309,0.405-2.559,1.364-3.459,3.01l-11.15,20.337c-1.453,0.026-2.975,0.11-4.209,0.198c-0.297,1.35-0.74,2.755-1.381,4.224  c1.199-0.093,2.344-0.156,3.391-0.182c2.621-0.058,4.75,0.089,6.178,0.37c1.516,0.296,1.818,0.933,0.563,2.162  c-1.047,1.025-2.844,2.197-5.135,3.468c-4.578,2.541-11.297,5.333-19.281,7.475c-7.984,2.14-15.199,3.077-20.434,3.167  c-2.619,0.047-4.76-0.074-6.176-0.438c-1.709-0.439-1.76-1.136-0.6-2.152c0.584-0.511,1.422-1.099,2.369-1.713  c1.188,0.308,2.449,0.495,3.793,0.547c3.297,0.125,6.26-0.025,9.016-0.427c-4.563-2.567-5.781-6.051-6.256-12.953  c0,0,2.781,6.104,6.412,4.099c2.535-1.396-2.943-3.083-2.303-7.25c0.85-5.557,4.553-6.385,4.553-6.385s-0.699,6.853,2.895,8.75  c5.547,2.917,4.656-4.167,4.656-4.167s5.49,8.095-0.041,15.989c10.396-1.859,15.678-12.572,14.021-23.807  C54.09,27.893,44.975,26.66,44.975,26.66c2.541,9.948-6.775,11.385-3.885,1.687C44.469,17.013,37.678,12.149,29.756,6.857z"/></svg>