<svg xmlns="http://www.w3.org/2000/svg" width="13.558" height="8.205" viewBox="0 0 13.558 8.205">
  <g id="back" transform="translate(0)">
    <path id="Path_94" data-name="Path 94" d="M229.307,853.2h-10.95l2.1-2.446a.625.625,0,0,0-.949-.813l-2.981,3.478a.613.613,0,0,0-.037.066.7.7,0,0,0-.053.081c-.006.014-.011.029-.017.044a.66.66,0,0,0-.022.1.618.618,0,0,0-.016.094.055.055,0,0,0,0,.046.61.61,0,0,0,.016.1.648.648,0,0,0,.022.1l.017.045a.69.69,0,0,0,.053.08.613.613,0,0,0,.037.066l2.981,3.478a.624.624,0,0,0,.949-.812l-2.1-2.447h10.95a.625.625,0,0,0,0-1.25Z" transform="translate(-216.374 -849.722)" fill="#f2f2f7"/>
  </g>
</svg>
