<svg id="open_menu" data-name="open menu" xmlns="http://www.w3.org/2000/svg" width="8.746" height="4.469" viewBox="0 0 8.746 4.469">
  <path id="Path_147" data-name="Path 147" d="M555.094,1185.033Z" transform="translate(-546.71 -1184.632)" fill="#c7c7cc"/>
  <path id="Path_148" data-name="Path 148" d="M555.454,1185.316a.637.637,0,0,0-.153-.462h0a.635.635,0,0,0-.894-.071l-3.327,2.847-3.33-2.85a.628.628,0,0,0-.465-.142.635.635,0,0,0-.358,1.11l3.755,3.213a.544.544,0,0,0,.1.058l.051.027a.614.614,0,0,0,.251.055.6.6,0,0,0,.243-.052c.029-.013.058-.03.035-.02l3.873-3.281A.629.629,0,0,0,555.454,1185.316Zm-.36-.283Z" transform="translate(-546.71 -1184.632)" fill="#c7c7cc"/>
</svg>
