<svg xmlns="http://www.w3.org/2000/svg" width="4.469" height="8.746" viewBox="0 0 4.469 8.746">
  <g id="proceed_standard" data-name="proceed standard" transform="translate(0 0)">
    <path id="Path_148" data-name="Path 148" d="M8.744.684A.637.637,0,0,0,8.591.222h0A.635.635,0,0,0,7.7.151L4.371,3,1.041.148A.628.628,0,0,0,.576.006a.635.635,0,0,0-.358,1.11L3.973,4.329a.544.544,0,0,0,.1.058l.051.027a.614.614,0,0,0,.251.055.6.6,0,0,0,.243-.052c.029-.013.058-.03.035-.02L8.523,1.116A.629.629,0,0,0,8.744.684ZM8.384.4Z" transform="translate(0 8.746) rotate(-90)" fill="#fff"/>
  </g>
</svg>
