<svg id="filter" xmlns="http://www.w3.org/2000/svg" width="13.85" height="13.981" viewBox="0 0 13.85 13.981">
  <path id="Path_144" data-name="Path 144" d="M532.685,1185.335h-2.476v-1.2c0-.3-.13-.543-.291-.543h-.891c-.161,0-.291.243-.291.543v1.2h-8.976c-.257,0-.463.28-.463.63s.206.62.463.62h8.976v1.2c0,.3.13.542.291.542h.891c.161,0,.291-.242.291-.542v-1.2h2.476c.257,0,.463-.28.463-.63S532.942,1185.335,532.685,1185.335Z" transform="translate(-519.298 -1178.97)" fill="#c7c7cc"/>
  <path id="Path_145" data-name="Path 145" d="M519.761,1179.96h2.476v1.2c0,.3.13.543.291.543h.891c.161,0,.291-.243.291-.543v-1.2h8.976c.257,0,.463-.28.463-.63s-.206-.62-.463-.62h-8.976v-1.2c0-.3-.13-.542-.291-.542h-.891c-.161,0-.291.243-.291.542v1.2h-2.476c-.257,0-.463.28-.463.63S519.5,1179.96,519.761,1179.96Z" transform="translate(-519.298 -1176.97)" fill="#c7c7cc"/>
  <path id="Path_146" data-name="Path 146" d="M519.761,1193.211h2.476v1.2c0,.3.13.543.291.543h.891c.161,0,.291-.243.291-.543v-1.2h8.976c.257,0,.463-.28.463-.63s-.206-.62-.463-.62h-8.976v-1.2c0-.3-.13-.542-.291-.542h-.891c-.161,0-.291.243-.291.543v1.2h-2.476c-.257,0-.463.28-.463.63S519.5,1193.211,519.761,1193.211Z" transform="translate(-519.298 -1180.97)" fill="#c7c7cc"/>
</svg>
