<svg id="karma_icon_button" data-name="karma icon_button" xmlns="http://www.w3.org/2000/svg" width="15.657" height="18.657" viewBox="0 0 15.657 18.657">
  <g id="Rectangle_57" data-name="Rectangle 57" transform="translate(5 2.828) rotate(-45)" fill="none" stroke="#fff" stroke-width="1">
    <rect width="4" height="4" stroke="none"/>
    <rect x="0.5" y="0.5" width="3" height="3" fill="none"/>
  </g>
  <g id="Rectangle_58" data-name="Rectangle 58" transform="translate(5 7.162) rotate(-45)" fill="none" stroke="#fff" stroke-width="1">
    <rect width="4" height="4" stroke="none"/>
    <rect x="0.5" y="0.5" width="3" height="3" fill="none"/>
  </g>
  <g id="Rectangle_63" data-name="Rectangle 63" transform="translate(5 11.495) rotate(-45)" fill="none" stroke="#fff" stroke-width="1">
    <rect width="4" height="4" stroke="none"/>
    <rect x="0.5" y="0.5" width="3" height="3" fill="none"/>
  </g>
  <g id="Rectangle_59" data-name="Rectangle 59" transform="translate(10 7.162) rotate(-45)" fill="none" stroke="#fff" stroke-width="1">
    <rect width="4" height="4" stroke="none"/>
    <rect x="0.5" y="0.5" width="3" height="3" fill="none"/>
  </g>
  <g id="Rectangle_62" data-name="Rectangle 62" transform="translate(10 11.495) rotate(-45)" fill="none" stroke="#fff" stroke-width="1">
    <rect width="4" height="4" stroke="none"/>
    <rect x="0.5" y="0.5" width="3" height="3" fill="none"/>
  </g>
  <g id="Rectangle_61" data-name="Rectangle 61" transform="translate(5 15.828) rotate(-45)" fill="none" stroke="#fff" stroke-width="1">
    <rect width="4" height="4" stroke="none"/>
    <rect x="0.5" y="0.5" width="3" height="3" fill="none"/>
  </g>
  <g id="Rectangle_60" data-name="Rectangle 60" transform="translate(0 7.162) rotate(-45)" fill="none" stroke="#fff" stroke-width="1">
    <rect width="4" height="4" stroke="none"/>
    <rect x="0.5" y="0.5" width="3" height="3" fill="none"/>
  </g>
  <g id="Rectangle_64" data-name="Rectangle 64" transform="translate(0 11.495) rotate(-45)" fill="none" stroke="#fff" stroke-width="1">
    <rect width="4" height="4" stroke="none"/>
    <rect x="0.5" y="0.5" width="3" height="3" fill="none"/>
  </g>
</svg>
