<svg id="Hashtag" xmlns="http://www.w3.org/2000/svg" width="12.05" height="15.307" viewBox="0 0 12.05 15.307">
  <g id="Group_207" data-name="Group 207" transform="translate(-530.83 -1247.81)">
    <g id="Group_206" data-name="Group 206">
      <path id="Path_191" data-name="Path 191" d="M536.85,1247.81a6.026,6.026,0,0,0-6.02,6.02,6.053,6.053,0,0,0,1.21,3.63l4.36,5.44a.574.574,0,0,0,.9,0l4.39-5.49a5.791,5.791,0,0,0,.8-1.46,5.9,5.9,0,0,0,.39-2.12A6.035,6.035,0,0,0,536.85,1247.81Zm4.57,7.73v.01a5.3,5.3,0,0,1-.66,1.2l-3.91,4.87-.1-.12q-1.905-2.385-3.81-4.76a4.92,4.92,0,0,1-.65-1.2,4.766,4.766,0,0,1-.3-1.71,4.86,4.86,0,1,1,9.72,0A5.038,5.038,0,0,1,541.42,1255.54Z" fill="#fff"/>
    </g>
  </g>
  <g id="Group_208" data-name="Group 208" transform="translate(-530.83 -1247.81)">
    <path id="Path_192" data-name="Path 192" d="M538.71,1253.85a1.86,1.86,0,1,1-1.86-1.85A1.863,1.863,0,0,1,538.71,1253.85Z" fill="#fff"/>
  </g>
</svg>
