<svg id="add" xmlns="http://www.w3.org/2000/svg" width="20.484" height="20.484" viewBox="0 0 20.484 20.484">
  <path id="Path_96" data-name="Path 96" d="M327.34,854.3a10.242,10.242,0,1,0,10.242,10.242A10.254,10.254,0,0,0,327.34,854.3Zm0,19.234a8.992,8.992,0,1,1,8.992-8.992A9,9,0,0,1,327.34,873.534Z" transform="translate(-317.098 -854.3)" fill="#f2f2f7"/>
  <path id="Path_97" data-name="Path 97" d="M330.516,863.917h-2.551v-2.551a.625.625,0,0,0-1.25,0v2.551h-2.551a.625.625,0,1,0,0,1.25h2.551v2.55a.625.625,0,0,0,1.25,0v-2.55h2.551a.625.625,0,0,0,0-1.25Z" transform="translate(-317.098 -854.3)" fill="#f2f2f7"/>
</svg>
