<svg id="Chat" xmlns="http://www.w3.org/2000/svg" width="20.261" height="20.271" viewBox="0 0 20.261 20.271">
  <g id="Group_30" data-name="Group 30" transform="translate(-186.61 -792.189)">
    <path id="Path_31" data-name="Path 31" d="M196.94,802.55a.532.532,0,0,0-.34-.33l-.33-.12-.24.24.78.78.24-.24Z" fill="#f2f2f7"/>
    <path id="Path_32" data-name="Path 32" d="M206.71,792.35a.548.548,0,0,0-.57-.13l-19.16,6.66a.56.56,0,0,0-.37.52.551.551,0,0,0,.36.52l9.01,3.24,3.16,8.93a.56.56,0,0,0,.52.37.55.55,0,0,0,.52-.37l6.66-19.17A.547.547,0,0,0,206.71,792.35Zm-7.05,17.89-2.61-7.36-.24.24-.78-.78.24-.24-7.46-2.69L204.37,794l-8.1,8.1.33.12a.532.532,0,0,1,.34.33l.11.33,7.92-7.92Z" fill="#f2f2f7"/>
  </g>
  <g id="Group_31" data-name="Group 31" transform="translate(-186.61 -792.189)">
    <path id="Path_33" data-name="Path 33" d="M197.05,802.88l-.24.24-.78-.78.24-.24.33.12a.532.532,0,0,1,.34.33Z" fill="#f2f2f7"/>
  </g>
</svg>
