<svg id="Notification" xmlns="http://www.w3.org/2000/svg" width="16.032" height="19.992" viewBox="0 0 16.032 19.992">
  <path id="Path_34" data-name="Path 34" d="M220.917,807.066a2.535,2.535,0,1,0,2.535,2.535A2.538,2.538,0,0,0,220.917,807.066Zm0,3.986a1.452,1.452,0,1,1,1.452-1.451A1.453,1.453,0,0,1,220.917,811.052Z" transform="translate(-212.901 -792.143)" fill="#f2f2f7"/>
  <path id="Path_35" data-name="Path 35" d="M228.392,804.1h-.954v-5.438a6.521,6.521,0,0,0-13.042,0V804.1h-.953a.542.542,0,1,0,0,1.083h14.949a.542.542,0,0,0,0-1.083Zm-12.913-5.438a5.438,5.438,0,0,1,10.876,0V804.1H215.479Z" transform="translate(-212.901 -792.143)" fill="#f2f2f7"/>
</svg>
