<svg id="Icon_placeholder" data-name="Icon placeholder" xmlns="http://www.w3.org/2000/svg" width="8.813" height="12.761" viewBox="0 0 8.813 12.761">
  <g id="my_page" data-name="my page">
    <g id="Group_10" data-name="Group 10" transform="translate(-441.417 -1281.09)">
      <path id="Path_16" data-name="Path 16" d="M445.821,1281.837a2.027,2.027,0,1,1-2.024,2.03v-.006a2.029,2.029,0,0,1,2.024-2.024m0-.747a2.774,2.774,0,1,0,2.774,2.774,2.774,2.774,0,0,0-2.774-2.774Z" fill="#f2f2f7"/>
    </g>
    <g id="Group_11" data-name="Group 11" transform="translate(-441.417 -1281.09)">
      <path id="Path_17" data-name="Path 17" d="M449.855,1293.851h-8.066a.374.374,0,0,1-.372-.375.34.34,0,0,1,0-.055l.678-4.3a1.535,1.535,0,0,1,1.411-1.4h4.627a1.533,1.533,0,0,1,1.411,1.4l.678,4.3a.372.372,0,0,1-.313.425.492.492,0,0,1-.055.005Zm-7.629-.747h7.192l-.61-3.864c-.07-.443-.353-.765-.675-.765h-4.627c-.32,0-.6.322-.675.765Z" fill="#f2f2f7"/>
    </g>
  </g>
</svg>
