<svg id="Warrior_Idols" data-name="Warrior Idols" xmlns="http://www.w3.org/2000/svg" xmlns:xlink="http://www.w3.org/1999/xlink" viewBox="0 0 306.86 459.33"><defs><style>.cls-1{fill:none;}.cls-2{clip-path:url(#clip-path);}</style><clipPath id="clip-path" transform="translate(-97.06 -20.63)"><rect class="cls-1" x="-21" y="-21" width="543" height="543"/></clipPath></defs><g id="Buddha_Warrior" data-name="Buddha Warrior"><g class="cls-2"><path d="M351.06,279.54c.34,1.31-2.28,1.41-3.4.66-25.79-17.43-66.29-8-82.31,11.05l-.23.25c-6.07,9.64-6.68,31.22-6.88,38.61,0,1-.05,1.82-.08,2.39a145.83,145.83,0,0,0,1.76,19.85c1.1,8.26,2.09,15.71,1,21.17,2.66-1.43,5.59-2.27,7.15-2a8,8,0,0,1,4.41,2,6.62,6.62,0,0,0,.23-4.38c-.42-1.44-2-4.79-7.46-4.79a1.47,1.47,0,1,1,0-2.94c5.17,0,9,2.58,10.28,6.9a9.06,9.06,0,0,1-3.49,10.21,1.39,1.39,0,0,1-.51.2,9.12,9.12,0,0,1-3.19,1h-.21a1.47,1.47,0,0,1-.19-2.93c1.95-.26,2.57-.88,2.62-1s-.87-1-3-1.31c-1.34-.23-6.43,1.66-8.69,4.23l-.14.13c-.12.15-.23.32-.36.47-1.81,2.07-4.47,3.12-7.92,3.12s-6.11-1.05-7.92-3.12c-.07-.08-.12-.17-.19-.26a1.42,1.42,0,0,1-.58-.39c-2.27-2.57-7.1-4.4-8.41-4.18-2.12.36-2.94,1.12-3,1.36s.68.71,2.63,1a1.47,1.47,0,0,1-.2,2.93h-.2a9,9,0,0,1-3.19-1,1.44,1.44,0,0,1-.52-.2,8.77,8.77,0,0,1-3.86-9.27c1-4.21,4.88-7.13,10.48-7.83a1.47,1.47,0,0,1,.36,2.92c-4.38.54-7.29,2.57-8,5.56a5.64,5.64,0,0,0,.45,3.73,7.75,7.75,0,0,1,4.52-2.08c1.7-.29,4.6.64,7.16,2.09-1.08-5.46-.09-13,1-21.25a149.09,149.09,0,0,0,1.76-19.91c0-.51-.05-1.32-.08-2.32-.21-7.49-.83-29.47-7.1-38.95-16.07-19-56.49-28.37-82.25-11-1.12.75-3.74.65-3.4-.66,1.84-7.24,30-15.35,47.44-12.8,16.59,2.43,31.1,7,40.14,17.46,5.36,6.21,7.91,38.92,8.11,45.83,0,1,.05,1.78.07,2.33A148.74,148.74,0,0,1,244,352.74c-1.41,10.55-2.74,20.51.8,24.56,1.25,1.43,3.12,2.12,5.71,2.12s4.47-.69,5.71-2.12c3.54-4.05,2.21-14,.8-24.56a150.3,150.3,0,0,1-1.78-20.32c0-.61.05-1.41.08-2.39.2-7,4.33-41.69,8.18-45.83,9.42-10.13,23.55-15,40.14-17.46,17.43-2.55,45.59,5.56,47.44,12.8M222.58,326a2.37,2.37,0,0,0,2,1.27,2.17,2.17,0,0,0,1.38-.5,3.18,3.18,0,0,0,1-3,1.34,1.34,0,0,0,.05-.35c.22-8.33-9-22.78-23.47-25.59-10.8-2.1-18.13.34-24,2.3-3,1-11.62,2.85-11.58,3.67s2.88,1.24,3.71,1.21a33.2,33.2,0,0,0,8.8-2.09c5.86-1.95,12.5-4.15,22.54-2.2,10.92,2.12,18.17,11.51,20.38,18.43-4.13-2.91-9.88-2.16-16.31-1.32-10.65,1.41-24.39,4.83-39.86-5.87-1.16-.81-5.88-4.56-6.57-3.18s3.42,5.71,4.58,6.52c16.87,11.66,31.62,9.72,42.39,8.3,8.28-1.09,12.7-1.48,15,2.43m-90,14.79c.77-14.19-3.66-38.69-10.53-49-2.26-3.4-6-6.95-10-6.8-1.63.08-4,.87-5.79,4.23-2.71,5,.9,15.72,4.78,25.57l.4,1a1.47,1.47,0,1,0,2.74-1.07l-.4-1c-2-5.11-7.36-18.66-4.94-23.1.95-1.75,2-2.63,3.34-2.69,2.53-.09,5.59,2.77,7.41,5.49,6.45,9.69,10.77,33.75,10,47.22-.15,2.71,1.2,5.56,2.51,8.31,1.72,3.64,2.67,5.92,1.22,6.91a1.47,1.47,0,0,0,.83,2.68,1.48,1.48,0,0,0,.83-.26c3.62-2.47,1.58-6.78-.22-10.58-1.15-2.43-2.34-4.94-2.24-6.91m3.17,36.08c2,0,4,1.7,5,4.23,3.12,8.1,1.83,29.6-3.14,34.86-1.57,1.66-2.88,2.44-4.11,2.44h0a2.73,2.73,0,0,1-2.09-1c-1.91-2.18-1.57-8.1-.46-16.32.09-.7.17-1.26.2-1.63.53-5,1-17.4,1-17.52,0-3.74,1.91-5.09,3.65-5.09m0,2.82c-.33,0-.7.78-.72,2.21,0,.55-.44,12.62-1,17.77,0,.38-.12,1-.22,1.71-1.43,10.63-.83,13.32-.29,13.94a5.17,5.17,0,0,0,1.91-1.5c4.11-4.36,5.2-24.85,2.53-31.79-.59-1.53-1.67-2.34-2.23-2.34m262-64c-.08.2-.15.4-.23.61-.59,1.66-1.17,3.27-1.7,4.84-.2.56-.38,1.13-.56,1.68-1.38,4.27-2.87,8.6-4.31,12.78-1.11,3.24-2.23,6.49-3.32,9.76-.43,1.31-.86,2.61-1.28,3.91-5.65,17.61-9.94,35.7-7,54.24.16,1,.35,2,.56,3.15,1.51,8.13,3.78,20.43-5.82,25.86a11.51,11.51,0,0,1-5.68,1.58,11.07,11.07,0,0,1-4.92-1.19c-6.61-3.29-10.62-12.38-11.35-17.78-.36-2.66-.62-7.61-.73-13.32a2.44,2.44,0,0,0-.06.26c-1.34,17.38-23.93,45.64-38.88,54.18-9.47,5.4-16.85,10.83-25,14.63C277.69,475.42,261,480,250.71,480a72.49,72.49,0,0,1-12.63-1.17c-1.42-.25-2.85-.54-4.3-.89A103.39,103.39,0,0,1,216,472q-1.89-.81-3.78-1.71a138.86,138.86,0,0,1-23.39-14.08c-19.86-14.74-34.07-33.32-38-49.69-.4-1.66-.78-3.29-1.16-4.92-.1,5.78-.37,10.81-.73,13.49-.73,5.4-4.74,14.49-11.35,17.78a11.1,11.1,0,0,1-4.92,1.19,11.52,11.52,0,0,1-5.69-1.58c-9.6-5.43-7.33-17.73-5.81-25.86.2-1.12.39-2.17.55-3.15,2.1-13.28.49-26.34-2.67-39.14-.35-1.44-.73-2.87-1.13-4.3-2.11-7.79-4.72-15.48-7.33-23.09-.17-.45-.33-.92-.48-1.38l-.93-2.69c-1.14-3.34-2.29-6.73-3.38-10.09-.65-2-1.36-4-2.13-6.12l-.36-1c-.38-1-.75-2.08-1.13-3.14-3.38-9.5-6.57-20-4.32-30.07,1.63-7.3,6.35-11.52,12.93-11.57h.12a16.35,16.35,0,0,1,2.31.19l0-.16c-.2-.88-.32-1.66-.4-2.3A9.21,9.21,0,0,1,109,265a16.17,16.17,0,0,1-2.27-8.47,17.69,17.69,0,0,1,2.53-9.71c-1.3-2.33-3.57-6.72-3.56-10.59,0-4.56,1.46-8.49,3.76-10.69a13.06,13.06,0,0,1-3.18-11.79,19.84,19.84,0,0,1,2.79-6.31,14.83,14.83,0,0,1-1.47-12.35c1.36-4.56,4-8.09,6.86-9.53-2.32-6.55-.11-12.66,6.29-17.21-.38-3.87,1.94-9.2,4.91-12.44s5.36-4.3,9.43-5.48c.79-2.92,3.18-6,6.59-8.46a16.57,16.57,0,0,1,9.87-3.19,23.25,23.25,0,0,1,2.79.18,15.76,15.76,0,0,1,8.51-5.9,18.54,18.54,0,0,1,5.39-.83,11.94,11.94,0,0,1,6.49,1.69,13.7,13.7,0,0,1,3.66-3.21A10.61,10.61,0,0,1,177,128a12.87,12.87,0,0,1,.25-8.73,12.14,12.14,0,0,1,9.21-7.91,12.52,12.52,0,0,1-.45-10.34c1.76-4.6,5.77-7.75,10.09-8a9.91,9.91,0,0,1,1.12-7.76A14.41,14.41,0,0,1,203,79.87a10,10,0,0,1,10.92-6.94c1.48-3,5.13-5.16,9.5-5.25-1.94-19.26,8-32.9,12.41-37.95,4.94-5.61,10.3-9.1,14-9.1h1.39c3.69,0,9.05,3.49,14,9.1,4.44,5.05,14.36,18.69,12.42,38,4.36.09,8,2.21,9.49,5.25A10.05,10.05,0,0,1,298,79.87a14.51,14.51,0,0,1,5.72,5.37A10,10,0,0,1,304.85,93c4.32.24,8.32,3.39,10.08,8a12.56,12.56,0,0,1-.44,10.34,12.14,12.14,0,0,1,9.2,7.91A12.82,12.82,0,0,1,324,128a10.63,10.63,0,0,1-1.39,2.73,13.4,13.4,0,0,1,3.66,3.21,12,12,0,0,1,6.5-1.69,18.42,18.42,0,0,1,5.38.83,15.79,15.79,0,0,1,8.52,5.9,23,23,0,0,1,2.78-.18,16.52,16.52,0,0,1,9.87,3.19c3.42,2.44,5.8,5.54,6.6,8.46,4.07,1.18,6.55,2.34,9.42,5.48s5.29,8.57,4.92,12.44c6.39,4.55,8.61,10.66,6.29,17.21,2.88,1.44,5.49,5,6.86,9.53a14.83,14.83,0,0,1-1.47,12.35,20.06,20.06,0,0,1,2.78,6.31,13,13,0,0,1-3.18,11.79c2.31,2.2,3.74,6.13,3.76,10.69,0,3.87-2.26,8.26-3.55,10.59a17.69,17.69,0,0,1,2.53,9.71c0,5.4-2.62,10.41-6,12.05-.08.64-.2,1.43-.4,2.31,0,.05,0,.11,0,.16a16.35,16.35,0,0,1,2.31-.19h.12c6.58.05,11.29,4.27,12.92,11.57,2.5,11.23-1.72,22.91-5.44,33.21m-8.44-59a14.77,14.77,0,0,0-1.23-6.19,10.9,10.9,0,0,1-6.33,9,10.82,10.82,0,0,1,4.27,4.87c.9-.26,3.31-3.13,3.29-7.68m-12.94,6c-.16-3.42-1.89-8.62-5.76-9.44-4.89-1.1-7.51,5.66-7.51,9.44,0,3.95.21,9.54,6,9.56,4.66,0,7.45-5.19,7.25-9.56m-5.3,15.9c-.29-2.37-2.26-4.42-4.73-3.83-3,.73-5.09,5-5.53,8.76-.58,4.87,1.32,8.62,3.62,9a2.69,2.69,0,0,0,.4,0c2.2,0,5-2.88,5.7-7.53a29.62,29.62,0,0,0,.54-6.39m-233.14-15.9c0-3.78-2.57-10.67-7.39-9.29-3.82,1.09-6.06,5.38-5.88,9.29s2.44,10.7,7.25,9.56c5.17-1.24,6-5.61,6-9.56m-3,13.12c-.59-.17-5.86.21-4.42,9.17.76,4.65,3.51,7.53,5.71,7.53l.4,0c2.3-.34,4.35-4.11,3.62-9-.67-4.44-3.51-7.18-5.31-7.71m19.73-116.14a7.54,7.54,0,0,0-5.27-.28l-.06,0c-5.87,1.87-9.64,10.36-4.11,15.13a15.58,15.58,0,0,1,12.22-4,6.61,6.61,0,0,1-3.57-4.21,8.62,8.62,0,0,1,.79-6.71m11,11.82a16.41,16.41,0,0,1-5.19,0,8.85,8.85,0,0,1,3.66,3.46c0-.17.08-.35.13-.52a11.88,11.88,0,0,1,1.4-3m-1,9.21a10.08,10.08,0,0,1-1.44,3.15A13.52,13.52,0,0,1,167,184a12.08,12.08,0,0,1-2.32-3.34m9-21.52c-2.94-5.92-12.22-4.08-16.14.24-1.64,1.81-2.44,4.82-1.1,6.85,4.62,7,19.48,1.35,17.24-7.09m-32.93,13a1.23,1.23,0,0,1-.43-.15c-8.15-4.54-16.76,8.05-10.58,14.2,2-4.61,6.5-8.1,12.15-6.87a10.66,10.66,0,0,1,1.63-3,10.12,10.12,0,0,1-2.77-4.14M142,185.33a9,9,0,0,1-.59-3.62c-9.08-2-14.25,11.35-6.66,16.26a11.36,11.36,0,0,1,1.29-2.33c2.23-3.06,6.12-5.69,10-5.86a7.72,7.72,0,0,1-4.07-4.45m-16.8,30.13c1.28-4.21,4.25-8.27,9-7.92.32,0,.62.07.92.11a11.55,11.55,0,0,1-1.07-7.25,10.62,10.62,0,0,1-2.14-1.47l-.09,0c-9.95-3.16-15.76,12-6.61,16.55m-2,20.71c1.12-2.89,3.08-5.5,5.84-6.57a12,12,0,0,1-4.59-10.06c0-.35,0-.72.1-1.09-10.11.23-11.12,15.84-1.35,17.72m-1.07,4.92c0-.33,0-.67.08-1-10,1.31-9.1,17.32.89,17.76a11.62,11.62,0,0,1,4.6-6.25,11.63,11.63,0,0,1-5.57-10.5m0,21.55a15.32,15.32,0,0,1,.22-1.95,8.88,8.88,0,0,0-5.29,4.76c-1.11,2.67.43,6.05,2.32,7.78,4.26,3.89,8.88,2.44,10.24,1-4.72-1.5-7.72-6.5-7.49-11.58m16.9-21.55c0-3.74-2.23-9.2-7-9.51-4.58-.29-7.7,5-7.48,9.51.17,3.57,2,8.89,5.85,9.35,5.6.67,8.6-4.6,8.6-9.35m1.18-21.55c0-3.26-.47-9.57-6-9.55-4.66,0-7.47,5.17-7.27,9.55.15,3.29,1.67,8.51,5.3,9.31,5.5,1.22,8.05-4.8,8-9.31m10.42-14.26a11.78,11.78,0,0,0,2-7.86c-.14-.56-1.47-3.32-2.42-3.88a9,9,0,0,0-12.09,3.34c-1.8,3-3.08,7.84-.65,10.58,4.09,4.59,11.46.34,13.14-2.18m2.85-15.08a14.07,14.07,0,0,1-3.38.41,7.62,7.62,0,0,1,1.36.81,11,11,0,0,1,1.24,1.09,11.61,11.61,0,0,1,.78-2.31m2.56-3.43c4.47-1.79,7.1-7.16,6-10.46-4.36-7.57-16.45-1.62-18.24,4.51a1.46,1.46,0,0,1-.1.46,4.59,4.59,0,0,0,1.43,4.44c2.78,2.65,7.21,2.55,11,1.05m-1.21,7.9c.83,6,6.31,7.32,9.56,7.54,4.15.29,10.12-4.51,9.37-8.84-1-6.08-8.06-8.47-13.13-6.78-2.52.85-6.11,5.79-5.8,8.08m30.27-15.19c1.42-8-8.38-12.48-14.36-9.9a11.24,11.24,0,0,1-1.18.64,7.13,7.13,0,0,0-3.05,4.85c-1.93,10.81,15.32,14.92,18.59,4.41m-8.88-12.84a8.81,8.81,0,0,1-1-1.72,10.77,10.77,0,0,1-1.11,1.7,13.9,13.9,0,0,1,2.14,0m139.54,12.84c3.27,10.5,21.83,6,18.59-4.41s-20.52-6.4-18.59,4.41m11-12.88a10,10,0,0,1-1.32-2.06,9.78,9.78,0,0,1-1.15,2,15.71,15.71,0,0,1,2.47,0m20.24,0a8.41,8.41,0,0,1-3.72,4,13.8,13.8,0,0,1,9.6,1.8,17.28,17.28,0,0,1,2.78,2.16c5.69-4.75,1.9-13.33-4-15.22l-.06,0a7.57,7.57,0,0,0-5,.16,7.36,7.36,0,0,1,.38,7.12m31.76,74.47c-.19,3.9-2.12,8.64-5.59,10.82a11.3,11.3,0,0,1,4.83,5.92c9.76-.65,10.64-16.35.76-17.74,0,.33,0,.67,0,1m-2.33-22.64a9.91,9.91,0,0,1,0,1.09c-.15,3.47-1.67,8-4.6,10.35a11.39,11.39,0,0,1,6.06,6.23c9.52-2.05,8.49-17.34-1.46-17.67m-7.34-19.54-.08,0a10.87,10.87,0,0,1-2.31,1.56,11.89,11.89,0,0,1-.61,7c.21,0,.41,0,.63,0a10.62,10.62,0,0,1,9.17,7.82c8.89-4.64,3.09-19.58-6.8-16.45m-10.31-13.29a8.83,8.83,0,0,1-4.5,4c4.44-.53,8.22,2.15,10.59,6a15,15,0,0,1,1.15,2.42c7.76-4.81,2.66-18.21-6.4-16.37a6.63,6.63,0,0,1-.84,3.93m12.41.55c6.19-6.15-2.42-18.74-10.57-14.2a1.3,1.3,0,0,1-.43.15,10.16,10.16,0,0,1-2.9,4.24,12.4,12.4,0,0,1,1.73,2.94c5.66-1.25,10.19,2.25,12.17,6.87m-26.11-21.95c-.21-7.88-14-12.8-17.82-5.1-2.76,10.28,18.05,14.13,17.82,5.1m-4.72,7.42a13,13,0,0,1-4.66,0,8.36,8.36,0,0,1,1,2.8c0,.2.06.4.08.6a8.92,8.92,0,0,1,3.55-3.38m-4.17,8.88a10.51,10.51,0,0,1-1.88,3,10.58,10.58,0,0,1,2.19-.12c.3,0,.6.05.9.08a9.56,9.56,0,0,1-1.21-3m-22.54,5a11.38,11.38,0,0,1,1.31,0,13.48,13.48,0,0,1,2.5.37,10.52,10.52,0,0,1-2.63-2.76,10,10,0,0,1-1.18,2.41m.41-11.65a11.94,11.94,0,0,1,1.44-2.62,14,14,0,0,1-3.66-.08,9.21,9.21,0,0,1,2.22,2.7m9.5-15.25c-3.52-9.42-19-6.06-18.23,3.89,2.69,11.05,22,6.3,18.23-3.89m-19.12,8a9.74,9.74,0,0,1-1.27,2.25,13.08,13.08,0,0,1,3.37.06,9.9,9.9,0,0,1-2.1-2.31m9.23-15.78a1.32,1.32,0,0,1-.09-.3c-2.06-11.32-18.34-9.3-17.72,2a10.1,10.1,0,0,1,8,4.68c1.8-3.61,5.73-5.84,9.81-6.41m-19.4,22.8a14.13,14.13,0,0,1-3.44,0,9.24,9.24,0,0,1,2.12,2.33,10.28,10.28,0,0,1,1.32-2.28m-.56,11.86a10.57,10.57,0,0,1-1.42,2.55,11.1,11.1,0,0,1,1.29,0,14.18,14.18,0,0,1,2.87.46,10.42,10.42,0,0,1-2.74-3m9.3-22.18c0-.09-.34-2.2-.5-2.63-3.58-9.77-19.38-6.39-18.64,3.92,2.49,10.44,19.2,7.39,19.14-1.29M272.63,176.2a13.09,13.09,0,0,1-3.25-.15,9.22,9.22,0,0,1,2.14,2.45,12.19,12.19,0,0,1,1.11-2.3M272.39,188a10,10,0,0,1-1,2.06h.49a13.11,13.11,0,0,1,2.7.44,10.45,10.45,0,0,1-2.2-2.5m2.84-14.73a8,8,0,0,0,5.76-9.63c-2.78-10.55-18.57-8.41-18.31,2.5,1.1,6.6,7.53,8.57,12.55,7.13m-24.69,6.49a10.62,10.62,0,0,1,1.55-2.08H252a13.89,13.89,0,0,1-2.81.11,10.47,10.47,0,0,1,1.38,2M250.48,190a10.4,10.4,0,0,1-2.32,2.79,10.26,10.26,0,0,1,2.23-.13,12.91,12.91,0,0,1,2.69.44,10.53,10.53,0,0,1-2.6-3.1m5.69-16.13a8.88,8.88,0,0,0,3.91-6,3.05,3.05,0,0,0,0-.43v-.34a8.9,8.9,0,0,0-.3-1.9,10.14,10.14,0,0,0-1.08-2.55c-2-3.11-6-4.52-9.7-4.22a7.85,7.85,0,0,0-8,8.61,8.74,8.74,0,0,0,5,7.41,11.68,11.68,0,0,0,10.13-.56m-26.54,5a10.36,10.36,0,0,1,3.09-3.19,13.45,13.45,0,0,1-4.51.48,10.76,10.76,0,0,1,1.42,2.71m-1.29,9.43a12.05,12.05,0,0,1-2.49,2.6,13,13,0,0,1,3.57-.4,9.38,9.38,0,0,1-1.08-2.2m10-22.13c.29-12.17-19.42-12.46-18.47-.67.89,10.91,16.69,11.22,18.47.67m-27.75,7.21a14.72,14.72,0,0,1-3.81.2,10.11,10.11,0,0,1,1.37,2.53,10.74,10.74,0,0,1,2.44-2.73m-3.46,12.24a12.27,12.27,0,0,1-2.9,3.15,13.64,13.64,0,0,1,4.68-.29,11.5,11.5,0,0,1-1.78-2.86m10-21c.84-11.65-19.38-13.31-19-2.06.39,10.36,16.51,12.24,19,2.06m4.66-55.4c.58,10.8,15.43,11.33,17.43,1.59a23.86,23.86,0,0,1,.1-2.57c-.66-4.24-4.08-8.09-8.71-7.84s-9.09,3.83-8.82,8.82m9.06-10.88a6.91,6.91,0,0,1-1.39-2.23A8.49,8.49,0,0,1,226.74,99a12.13,12.13,0,0,1,4.06-.62m16.32,3.54a8.31,8.31,0,0,0-5.29,8c.38,7.15,7,9.8,12,8a8.35,8.35,0,0,0,5.29-8c-.39-7.14-7-9.79-12-8m3.22-3.32q.65,0,1.29.15a9,9,0,0,1-1.17-1.57,9.17,9.17,0,0,1-1,1.43c.3,0,.61,0,.92,0m11.38,9.59a8.14,8.14,0,0,0,.1,2.63c.87,4,4.19,7.5,8.61,7.26,4.59-.25,9.08-3.83,8.81-8.82-.59-11-15.49-11.27-17.52-1.07M270.43,98a12.57,12.57,0,0,1,3.08.57,8.52,8.52,0,0,1-2.09-2.64A8.58,8.58,0,0,1,270.3,98h.13m24.37,33.87a12.3,12.3,0,0,1-1.6-2.89,10.68,10.68,0,0,1-1.76,3.27,14.61,14.61,0,0,1,3.36-.38m-9.64,10.11c0,.19.09.38.13.58a11.2,11.2,0,0,1,8.89,5.07,11.23,11.23,0,0,1,9.79-6.92,8.58,8.58,0,0,0-6.36-6.19c-5.31-1.27-12,1.39-12.45,7.46m9.61-24.08a9.34,9.34,0,0,1-1,.28,12.15,12.15,0,0,1-2.44.24,10.3,10.3,0,0,1,1.75,2.77,12.15,12.15,0,0,1,1.67-3.29m-21,7.59c.24,4.6,3.83,9.09,8.82,8.82,4.59-.25,9.08-3.83,8.81-8.82-.61-11.37-17-11.37-17.63,0m8.9,17c0-.15,0-.29,0-.44-2.61-8.78-18.48-7.33-18.68,2.49a11,11,0,0,1,8.6,5.76c1.46-4.5,5.62-7.18,10.05-7.71v-.1m-33.93-15.23c-.25-4.6-3.83-9.09-8.82-8.82-4.6.24-9.09,3.83-8.82,8.82.61,11.36,17,11.36,17.64,0m-8.82,11.26A12.34,12.34,0,0,1,237,138a9.62,9.62,0,0,1,1.92,3.57,9.9,9.9,0,0,1,1.7-3.06,5.93,5.93,0,0,1-.73,0m-21.6,4s0,.07,0,.1c4.43.53,8.6,3.21,10.06,7.71a11,11,0,0,1,8.59-5.76c-.2-9.82-16.06-11.27-18.67-2.49,0,.15,0,.29,0,.44m.75-5.77c-.22,0-.44,0-.67,0a12.13,12.13,0,0,1-2.08-.3,10,10,0,0,1,1.15,2,10.53,10.53,0,0,1,1.6-1.73m6.66-2.73a14.41,14.41,0,0,1,5.51.44,10.06,10.06,0,0,1-2.46-5,12.54,12.54,0,0,1-3.05,4.55m3.68-10.52a10.71,10.71,0,0,1,1.64-3c-.16,0-.32,0-.49,0a12.48,12.48,0,0,1-2.35-.36,11.56,11.56,0,0,1,1.2,3.32m10.86-8.79a13.07,13.07,0,0,1-1.13,1.72,12.68,12.68,0,0,1,2.22.07,10.68,10.68,0,0,1-1.09-1.79m.36-10.27a13,13,0,0,1,1.5-2.16,11.47,11.47,0,0,1-1.66.08c-.41,0-.83,0-1.27-.1a10,10,0,0,1,1.43,2.18m7.86,30a16.65,16.65,0,0,1,2-.12,16,16,0,0,1,2.08.13,10.56,10.56,0,0,1-2.1-3.65,12.85,12.85,0,0,1-2,3.64m2-10.71a13.32,13.32,0,0,1,1.25-2.61,8.36,8.36,0,0,1-1.12,0,11.89,11.89,0,0,1-1.56-.2,10.86,10.86,0,0,1,1.43,2.8m9.42-7.73a10.65,10.65,0,0,1,1.13,0l.53,0a10.52,10.52,0,0,1-.93-1.39,11.59,11.59,0,0,1-.73,1.34m.46-11.55a13,13,0,0,1,1.33-2.21,14.61,14.61,0,0,1-3.1-.11,10.24,10.24,0,0,1,1.77,2.32m-8.15,22.82c.24,4.59,3.83,9.08,8.82,8.82,4.59-.25,9.08-3.84,8.82-8.82-.62-11.37-17-11.37-17.64,0M273,119.82a12,12,0,0,1-3.23.26,10.28,10.28,0,0,1,1.91,3.07,13.3,13.3,0,0,1,1.32-3.33m-.91,9.4a11,11,0,0,1-2.56,5.26,14.63,14.63,0,0,1,6.07-.47,10.5,10.5,0,0,1-3.51-4.79M260,138.07a9.8,9.8,0,0,1,2,3.49,9.86,9.86,0,0,1,2.18-3.86,12.06,12.06,0,0,1-4.23.37m-18.85,6.54a11.51,11.51,0,0,1,9.36,7.93,11.52,11.52,0,0,1,9.36-7.93s0-.05,0-.08c-.3-5.15-4.8-7.79-9.35-7.88-4.55.09-9.05,2.73-9.34,7.88,0,0,0,.06,0,.08M252.5,156c3.61.32,7,2,8.67,5.25a11.21,11.21,0,0,1,9.84-7.08c.11,0,.22,0,.34,0-2.18-10.74-18.88-9.34-18.85,1.83m31-17.55a10.15,10.15,0,0,1,1.4-2.34,12,12,0,0,1-3.59.16,10.06,10.06,0,0,1,2.19,2.18m-.41-24.21a12.75,12.75,0,0,1-1.69-2.9,11.72,11.72,0,0,1-1.05,3,9.59,9.59,0,0,1,2.23-.14l.51,0m-.41-13.62a12.13,12.13,0,0,1-5.33-.13,11,11,0,0,1,3.59,4.47,11.8,11.8,0,0,1,1.74-4.34m-13.14-7.24c-.53-8.84-16.88-9.14-17.82-.42v.14a1.2,1.2,0,0,1,0,.19c.51,5.7,8.18,7.7,13.3,6a10.06,10.06,0,0,1,1.63-.75,5.37,5.37,0,0,0,2.89-5.14m-20.29-.28a.66.66,0,0,1,0-.14c-1-8.73-18.59-8.29-17.82.42s17,8.61,17.82-.08a.67.67,0,0,1,0-.2m-25,7.1a12.72,12.72,0,0,1-6.07.41,10.62,10.62,0,0,1,2,4.66,10.51,10.51,0,0,1,4.09-5.07m-6.66,14.41a12.34,12.34,0,0,1,3.15.19,9.72,9.72,0,0,1-1.25-3.21,13.45,13.45,0,0,1-1.9,3m-8,10.85c.61,11.37,17,11.37,17.64,0-.25-4.6-3.83-9.09-8.82-8.82-4.6.25-9.09,3.83-8.82,8.82m.07-6.89a8.64,8.64,0,0,1-2.46-.42,10.47,10.47,0,0,1-1.2-.5,11.12,11.12,0,0,1,2,3.77,10.78,10.78,0,0,1,1.66-2.85m-3.5,13.27a14.86,14.86,0,0,1,3.2.34,10.07,10.07,0,0,1-1.68-3,13,13,0,0,1-1.52,2.66m-2.62,2.62c-2.5.7-6.1,4.22-6.51,6.22a11.24,11.24,0,0,1,9.79,6.92,11.2,11.2,0,0,1,8.89-5.07c0-.2.08-.39.13-.58-.48-6-7.1-9-12.3-7.49m12.12,36.75a13.1,13.1,0,0,1,3.13-.13,9.18,9.18,0,0,1-1-2.1,9.91,9.91,0,0,1-2.15,2.23m3.24-11.32a10.72,10.72,0,0,1,7.56-5.24c.64-11.49-16.77-13.62-18.89-2.22a.24.24,0,0,1,0,.08v.07c4.81.15,9.61,2.74,11.35,7.31M236,174.17a13.35,13.35,0,0,1,4.84-.39l-.27-.35a9.14,9.14,0,0,1-1.43-2.51,10.38,10.38,0,0,1-3.14,3.25m12.45-18.12c.09-11.34-17-12.69-18.91-1.61A11.61,11.61,0,0,1,240,161.58a11.08,11.08,0,0,1,8.48-5.53M260,173.81a14,14,0,0,1,4.33.05,10.31,10.31,0,0,1-2.57-2.94,10.59,10.59,0,0,1-1.76,2.89m22.19-14c1.81-4.36,6.54-6.93,11.26-7.26v0l0-.08c-2.11-11.36-19.39-9.29-18.89,2.09a12.1,12.1,0,0,1,7.66,5.29m-.3,11.12a15.08,15.08,0,0,1,3.2.22,10.23,10.23,0,0,1-2.15-2.46,10.23,10.23,0,0,1-1.05,2.24M305.51,136a8.8,8.8,0,0,1-1,.14h0c.19.26.37.52.54.79a10.45,10.45,0,0,1,.51-.93m5.58-13.09c-3.12-10.44-16.94-7.34-16.16,3.2a10,10,0,0,0,3.94,6.31,8,8,0,0,0,6.3,1.12c4.33-1.39,7.29-6.06,5.92-10.63m-12.63-17.43c-1.28-3.93-5.31-7.68-9.78-6.19s-6.29,5.85-5.32,10.28c1.28,3.93,5.31,7.68,9.78,6.18a8.27,8.27,0,0,0,5.32-10.27M288.32,90.55c-2.32-8-15.46-6.41-15.4,2,1.68,9.18,17.9,6.57,15.4-2m-9-7.4c-1.46-8.47-16.49-7.36-16.9,1.19,3.23.57,6.88,2.21,8.59,5,1.3-3.45,4.68-5.56,8.31-6.16m-13.07-7.32a2.56,2.56,0,0,1-.33-.46c-.6-1.1-3.41-2.7-6.45-2.7h-.13a11,11,0,0,0-5.06,1.21c-.56.31-1.5,1-1.49,1.72a3,3,0,0,1,0,.52,11.69,11.69,0,0,1,8.07,4.57,9.74,9.74,0,0,1,5.44-4.86m-15.69,2.53h-.19c-4.14,0-8.25,2-9.2,5.85,3.79.2,7.46,1.87,9.32,5a11.16,11.16,0,0,1,9.24-5.1c-1-3.78-5.06-5.71-9.17-5.76m-2.6-2.2s0-.09,0-.14c-.3-2-2.84-3.29-6.33-3.35h-.14c-2.81,0-5.53,1.4-6.21,2.65a2.71,2.71,0,0,1-.44.57,9.63,9.63,0,0,1,5.31,4.8A11.62,11.62,0,0,1,248,76.16M221.65,83.1c3.73.52,7.2,2.73,8.41,6.44,1.64-3,4.93-4.77,8.47-5.22-.43-8.51-15.36-9.62-16.88-1.22m-9.1,9c.93,8.32,14,8.6,15.51.54.08-9.45-16.51-9.53-15.51-.54m-.24,7.25a8.28,8.28,0,0,0-9.78,6.19c-.89,4,.7,9.3,5.31,10.27s8.38-1.87,9.78-6.18c.89-4-.7-9.31-5.31-10.28m-14.06,16.87c-4.54.15-8.68,3.82-8.62,8.59.15,10.9,14.3,11.73,16.43,1.36.33-4.61-2.46-10.12-7.81-10m-2.83,19.75a7.76,7.76,0,0,1,.56,1c.18-.27.35-.53.55-.78l-.35,0c-.26-.05-.51-.12-.76-.19m-8,14.62a1.23,1.23,0,0,1-.09.29c4.26.44,8.32,2.8,10,6.72a10.93,10.93,0,0,1,7.8-4.86c.75-11.43-15.65-13.51-17.72-2.15M196.22,167a10.09,10.09,0,0,1-2.34,2.23,12.27,12.27,0,0,1,3.42-.33,9.14,9.14,0,0,1-1.08-1.9m-19.13-6.52c.37,10,16.07,11.93,18.51,2.14,0-.09,0-.17,0-.26.55-11-18.94-12.65-18.53-1.88m13.06,10.39a14.72,14.72,0,0,1-4.87.36,10.53,10.53,0,0,1,1.75,3,10.52,10.52,0,0,1,3.12-3.33M186,183.19a11.6,11.6,0,0,1-3,3,13.44,13.44,0,0,1,4.56-.24,10.86,10.86,0,0,1-1.53-2.74M174,188a10.34,10.34,0,0,1,1.76,3.14,10.88,10.88,0,0,1,3-3.15,11.26,11.26,0,0,1-4.8,0m12,16.48c3.63.23,9.48-3.55,9.55-7.64.19-10.26-16-11.44-18.65-3.34-1.84,5.66,4.52,10.69,9.1,11m20.31-23.13c1.14-12-18.33-14.05-18.36-2.28,0,10.91,15.79,12.87,18.36,2.28M196.14,191a10.65,10.65,0,0,1,1.16,2.37,11.07,11.07,0,0,1,2.45-2.52,10.62,10.62,0,0,1-3.61.15m11.22,16.79c4.22.1,10.28-3.33,9.6-9.21-1.14-9.73-16.46-10.34-19-2-2.2,7.28,4.82,11.09,9.38,11.19m20.35-23.7a8.73,8.73,0,0,0-4.78-9.3l-.56-.29C217.22,172,210.15,173.25,209,180c-1.85,11.3,15.53,15.06,18.67,4.06m-10.35,9.19a11.32,11.32,0,0,1,1.47,2.83,11.09,11.09,0,0,1,2.7-3.06,11,11,0,0,1-4.17.23M229.1,210.4c3.47.25,9.53-1.89,9.55-8.33,0-2.78-2.53-9.6-9.55-9.55-3.91,0-7.89,2.59-9.06,6.29-2.11,6.63,4.48,11.25,9.06,11.59m20.13-23.8a11.64,11.64,0,0,0,0-3c-1.8-9.78-19.09-10.44-18.84.52A8.75,8.75,0,0,0,235,192c4.57,2.39,12.4,1.12,14.19-5.36M239,195.51a11.62,11.62,0,0,1,1.39,2.8,12.71,12.71,0,0,1,2.58-3.06,14.65,14.65,0,0,1-4,.26M250.44,213h.11c4.29-.08,9.63-3.38,9.24-9.66-1.21-7.21-8.77-9.47-14-6.79a9,9,0,0,0-4.71,6.72c-.51,5.25,5.05,9.65,9.34,9.73m9.94-15a.61.61,0,0,1,.07.1l.2.28a13.71,13.71,0,0,1,1.32-2.76,13.32,13.32,0,0,1-4.18-.25,11,11,0,0,1,2.59,2.63m4.23-5.41c4-1.38,6.88-6.74,5.7-10.23-3.2-9.52-16.91-7.48-18.55,1.24a11,11,0,0,0,0,3c1.67,6,8,7.62,12.85,5.95m-2.27,9.53c1,6.92,5.88,8.33,9.55,8.33,4.59,0,10.95-4.84,8.94-11.49-3.26-9-17.89-8-18.49,3.16m19.92-6.13a13.38,13.38,0,0,1,1.64-3.05,13,13,0,0,1-4.65-.15,11.75,11.75,0,0,1,3,3.2M291.94,180c-3.14-11-20.52-7.25-18.67,4.06,3.14,11,21.8,6.89,18.67-4.06m2.65,28.13a8.72,8.72,0,0,0,8.38-10.7c-2.62-9.27-17.54-8.94-19,1.13-.68,4.9,4.53,9.81,10.57,9.57m9.19-14.93a13.07,13.07,0,0,1,1.37-2.62,12.74,12.74,0,0,1-4.4-.18,12.27,12.27,0,0,1,3,2.8m8.94-16c-3.66-10.31-19-6.57-18,4.09,2.86,11.83,22,7,18-4.09m2.08,28.16c4.52,0,11.92-2.2,9.06-11.68-2.28-7.59-17.53-7.27-18.39,2.9-.58,6.74,5.62,8.8,9.33,8.78M325.35,191a12.24,12.24,0,0,1,2-3.38,13.48,13.48,0,0,1-5.44.11,11.85,11.85,0,0,1,3.45,3.27m11.19,11.21c7.32.41,9.28-4.08,9.55-7.54.2-2.49-1.08-5.85-5.76-7.89-5.14-1.93-12,.27-13.18,6.59-.74,3.95,5,8.6,9.39,8.84m20.36-18.37c1.93-8.7-13.35-15.48-18-7.54-1.16,3.33.4,6.36,3,8.52,5,3.6,13.84,4,14.94-1m-9.25,6.31a8.49,8.49,0,0,1,.7,2.06,13,13,0,0,1,1.11-.79,14.18,14.18,0,0,1,2.23-1.13,13.42,13.42,0,0,1-4-.14m9.52,19.74a10.28,10.28,0,0,0,5.88-1.88c2.15-1.42,2-8.21-.26-11.13-2.7-3.46-7-6.63-12.09-3.34a6.81,6.81,0,0,0-2.38,2.85c-2.36,4.71,2.16,13.17,8.85,13.5m3.54,9.65c.17,4.51,2.26,10.35,7.88,9.15,3.54-1.29,5.6-5.39,5.43-9.15s-2.33-9.92-7.26-9.55a4.85,4.85,0,0,0-1.46.26c-3.51,1.31-4.7,6.25-4.59,9.29m1.18,21.55c0,4.75,2.38,9.54,8.48,9.19a9.23,9.23,0,0,0,6-9.19c-.2-4-2.63-9.59-7.46-9.55-5.6.88-7,5.81-7,9.55m9.4,33.39c1.23,2,6.56.7,8.5-.24,1.54-1.34,5.71-4.67,4-8.72a8.14,8.14,0,0,0-5.12-4.79,11.1,11.1,0,0,1,.08,1.91c-.21,4.48-2.66,10.69-7.51,11.84m19-38.11c0-4.33-1.72-7.21-2.94-7.63a2.69,2.69,0,0,1-.48-.24c-.25,4-2.35,7.88-6.49,9.47a10.23,10.23,0,0,1,7,6.55c1.05-1.9,2.93-5.53,2.92-8.15m-.47-21.49a17.25,17.25,0,0,0-3-5.95,5.73,5.73,0,0,0-4.08-1.59,10.14,10.14,0,0,1-3.77,9,10.52,10.52,0,0,1,7.3,7.2,2.59,2.59,0,0,1,.55-.44c2.49-1.43,3.73-4.81,3-8.22M384.08,190c3.44,4.31,4.37,10.8.06,15a9.3,9.3,0,0,1,2.77.76,2.11,2.11,0,0,1,.35-.32c.72-.55,2.81-4,1.36-8.84-1.18-4-3.33-6.18-4.54-6.64m-12-1a11.2,11.2,0,0,1-.84,7.11c5.09-.29,9.05,3.27,10.7,7.69,7.38-5.87-1.46-19.38-9.86-14.8m3.79-17.45a6.67,6.67,0,0,0-4.83-.27c4,3.47,6,9.63,3.54,14.39a9.69,9.69,0,0,1,6,1.32,3.71,3.71,0,0,1,.36-.86c3-5.72,1.41-10.56-4.85-14.41a1.37,1.37,0,0,1-.23-.17m-11.21-15.88c4.37,3.45,7.34,9.14,5.18,13.46a9.53,9.53,0,0,1,5.22-.26,2.67,2.67,0,0,1,.14-.36c.5-1-.38-5.63-3.55-9.1a12,12,0,0,0-6.37-3.83,3.2,3.2,0,0,0-.62.09m-10.59.41a1.32,1.32,0,0,1-.29.19c-.08.39-.18.78-.3,1.18a12.84,12.84,0,0,1,7.31,11.83,9.34,9.34,0,0,1,6.28-.24,1.73,1.73,0,0,1,.19-.31c4.5-5.45-7.91-17.33-13.19-12.65m-7.4-11.77c3.71,1.68,6.72,5,7.22,9,2.3-1.14,5-.81,7.61.39a2.47,2.47,0,0,1-.28-1.07c0-1.53-1.71-4.24-4.82-6.47a11.64,11.64,0,0,0-7-2.28,19,19,0,0,0-2.68.21l0,.22m-11.06,4.12a12.4,12.4,0,0,1,.84,4.76.15.15,0,0,1,0,.07,16.14,16.14,0,0,1,8.66,4.28,9.84,9.84,0,0,1,6.08-.82c2.82-8.27-10.2-15.29-15.57-8.29m-8-8.75a11.28,11.28,0,0,1,.23,2.3,11,11,0,0,1,6.5,4.17,9.82,9.82,0,0,1,8.92-2.86c-.14-1.68-3.1-4.25-6.64-5.34-1.31-.41-6.81-1.4-9,1.73m-11.22,11.1c4.12.18,7.93,2.15,9.33,6.22,1.82-2.78,4.94-3.95,8.27-3.94,0-1.45-1.11-4.28-1.13-4.57-3.58-6.43-14.58-6.12-16.47,2.29m-.87-17.23a12,12,0,0,1-1.48,0H314c-3.53.47-6.71,2.62-7.5,6.72a1.41,1.41,0,0,1-.1.31l0,.17a10.59,10.59,0,0,1,8.77,6.54,11.16,11.16,0,0,1,10.2-5.61c.67-6-6.6-8.32-9.87-8.14m-5.14-18a4,4,0,0,0-.86.66,10.7,10.7,0,0,1,4.18,7.52,12.9,12.9,0,0,1-1.86,7.79c.55-.15,3-.44,3.27-.45,6.05-3,4.67-8,4-9.86-1.18-3.08-3.24-5.48-8.71-5.66M301.6,97.78a7.89,7.89,0,0,0-2.87,2.81,9.82,9.82,0,0,1,2.09,4.25,13.3,13.3,0,0,1-.33,6.79,9.15,9.15,0,0,0,8.15.33,8.55,8.55,0,0,0,2.4-9.68c-1.09-2.86-5.3-6.2-9.44-4.5m-6.93-13.93c-1.73.54-3.56,1.14-4.6,3.61l-.05.08a8.19,8.19,0,0,1,.84,3.59,9.4,9.4,0,0,1-.35,2.82,1.54,1.54,0,0,1,.3.32,5.83,5.83,0,0,0,8.9.84c5.5-5.26-1.07-12.5-5-11.26m-10.46-5.4S282,81,282,83a10.07,10.07,0,0,1,6.41,2.37,7.12,7.12,0,0,1,4.95-3.76c.58-2.83-3.09-7.32-9.11-3.15m-7.06-5.78A6.38,6.38,0,0,0,272,75a10.77,10.77,0,0,1,8.32,4.31,8,8,0,0,1,2.59-3.08c0-.06,0-.11,0-.17,0-1.59-2.32-3.35-5.57-3.35Zm-48.74-4.2s0,.08,0,.12a10.38,10.38,0,0,1,3.88,2.57,13.55,13.55,0,0,1,9.18-3.47h.22s6.62,1.26,8.61,3.06a10.26,10.26,0,0,1,1.6-1.11c2-1.13,7.37-1.5,7.37-1.5h.19a14.32,14.32,0,0,1,9.35,3.43,10.44,10.44,0,0,1,3.85-2.52.48.48,0,0,1,0-.12c2.34-18.18-7.05-31.1-11.19-35.81-4.56-5.18-8.83-7.51-10.41-7.51H249.8c-1.57,0-5.79,2.3-10.31,7.43-4.1,4.67-13.39,17.45-11.08,35.45m-10.31,7.7a8,8,0,0,1,2.59,3.07A10.82,10.82,0,0,1,229,75a6.35,6.35,0,0,0-5.18-2.29h-.16c-3.24,0-5.54,1.76-5.57,3.35a1,1,0,0,1,0,.17m-10.41,5.32a7.13,7.13,0,0,1,5.07,4.13A10.15,10.15,0,0,1,219,83c-.05-2-1-4-2.25-4.56-4.6-2-8.45.75-9.09,3.06M201.35,95c2.49,2.48,6.52,2.74,8.83-.69a1.47,1.47,0,0,1,.1-.13,8.54,8.54,0,0,1-.11-3.33,9.51,9.51,0,0,1,1-3,1.25,1.25,0,0,1-.22-.34,5.32,5.32,0,0,0-4.69-3.57c-3.93-.3-9.07,5.09-4.88,11.07m-9,17.06a8.66,8.66,0,0,0,8.05-.35,10,10,0,0,1-.24-6.83,13.1,13.1,0,0,1,2.22-4.08,9.57,9.57,0,0,0-2.79-3.13c-3.21-1.06-7.37.9-8.94,5.27-1,2.72-1.37,7.38,1.7,9.12m-6.48,19c.25,0,2.69.3,3.22.44a10.64,10.64,0,0,1-1.77-8.1,12.89,12.89,0,0,1,4.14-7.2,4.16,4.16,0,0,0-.87-.66c-2.84-.13-7.44.55-8.7,5.66-1.54,6.23,1.51,9.34,4,9.86m-10.28,10.62a11.16,11.16,0,0,1,10.2,5.61,10.59,10.59,0,0,1,8.77-6.54l0-.17a1.42,1.42,0,0,1-.11-.31c-.78-4.1-4-6.25-7.5-6.72h0c-8.69-1-11.58,4.11-11.35,8.12m-7.48,6.8a1.07,1.07,0,0,1-.36.74,9.44,9.44,0,0,0-.76,3.69c3.4,0,6.59,1.26,8.41,4.29a10.63,10.63,0,0,1,9.21-6.35c-1.83-8.49-12.9-8.82-16.5-2.37m-10.39-5.2a9.84,9.84,0,0,1,8.92,2.86,11,11,0,0,1,6.5-4.17A21.66,21.66,0,0,0,173,139c-.52-1.06-2.4-1.77-4.68-1.77a13.47,13.47,0,0,0-3.94.62c-3.54,1.09-5.72,3.17-6.31,4.76a2.52,2.52,0,0,1-.32.58m-7.91,13.43a9.82,9.82,0,0,1,6.29.93,15.4,15.4,0,0,1,8.44-4.5,12.42,12.42,0,0,1,.83-4.72c-5.36-7-18.38,0-15.56,8.29m-10.32-3c2.58-1.2,5.3-1.53,7.61-.39.5-4,3.51-7.32,7.22-9l0-.22a19,19,0,0,0-2.68-.21,11.6,11.6,0,0,0-7,2.28c-3.12,2.23-4.79,4.94-4.82,6.47a2.47,2.47,0,0,1-.28,1.07m-5.76,15a1.24,1.24,0,0,1,.18.31,9.37,9.37,0,0,1,6.29.24,12.84,12.84,0,0,1,7.31-11.83,8.88,8.88,0,0,1-.3-1.18,1.66,1.66,0,0,1-.3-.19c-5.27-4.68-17.68,7.2-13.18,12.65m-7.95-.22a1.84,1.84,0,0,1,.15.36,9.49,9.49,0,0,1,5.21.26c-2.15-4.32.82-10,5.19-13.46a3.3,3.3,0,0,0-.63-.09,12.05,12.05,0,0,0-6.36,3.83c-3.18,3.47-4,8.14-3.56,9.1M120,186.07a3.73,3.73,0,0,1,.35.86,9.7,9.7,0,0,1,6-1.32c-2.49-4.76-.47-10.92,3.55-14.39a6.67,6.67,0,0,0-4.83.27l-.23.17c-6.26,3.85-7.9,8.69-4.85,14.41m-1,17.67c1.65-4.42,5.61-8,10.7-7.69a11.27,11.27,0,0,1-.85-7.11c-8.39-4.58-17.23,8.93-9.85,14.8m-5.32,1.72a1.72,1.72,0,0,1,.34.32,9.45,9.45,0,0,1,2.78-.76c-4.32-4.25-3.38-10.74.07-15.05-1.2.43-3.37,2.67-4.56,6.65-1.44,4.83.65,8.29,1.37,8.84m1,18.08a10.48,10.48,0,0,1,7.3-7.2,10.09,10.09,0,0,1-3.77-9,7.19,7.19,0,0,0-3.66.75c-2.1,1.14-2.85,4-3.44,6.79-.71,3.36,1.34,6.84,3.57,8.66m-1.12,21a10.21,10.21,0,0,1,7-6.55c-4.14-1.59-6.25-5.43-6.5-9.48a2.12,2.12,0,0,1-.47.25c-1.22.42-2.93,3.3-2.94,7.63,0,2.62,1.86,6.24,2.92,8.15m1.4,19.81a10.5,10.5,0,0,1,4.24-4.88,10.89,10.89,0,0,1-6.31-9,14.61,14.61,0,0,0-1.23,6.19c0,4.56,2.39,7.44,3.3,7.68m283.34,19.25c-1.12-5-3.94-7.7-8.17-7.74h-.09a15,15,0,0,0-5.3,1.12c-1.78,2.13-6.35,3.9-9,4.5,0,6.44-5.91,15.89-10.92,15.89a7.08,7.08,0,0,1-1.13-.09c-5.44-.82-8.84-7.2-7.74-14.54a15.79,15.79,0,0,1,5.31-9.75c-2.22-2.9-3.07-7-3.07-10.34A12.88,12.88,0,0,1,363,252.37c-3.91-2.28-5.95-6.11-5.95-11.3A13.34,13.34,0,0,1,361.34,231a13.91,13.91,0,0,1-5.53-11.49,15.63,15.63,0,0,1,.91-5.29,13.77,13.77,0,0,1-10.5-6.25,14.58,14.58,0,0,1-1.69-3.43,13.81,13.81,0,0,1-8,2.54,13.57,13.57,0,0,1-9.94-4.26,13.37,13.37,0,0,1-11.6,6.52,13.57,13.57,0,0,1-9.44-3.75,13.49,13.49,0,0,1-11.94,7,13.63,13.63,0,0,1-10-4.4A13.24,13.24,0,0,1,262,210.88a13.28,13.28,0,0,1-11.15,7,2.06,2.06,0,0,1-.38,0,3,3,0,0,1-.4,0,13.27,13.27,0,0,1-11.14-7,13.24,13.24,0,0,1-21.55-2.64,13.65,13.65,0,0,1-10,4.4,13.49,13.49,0,0,1-11.93-7,13.59,13.59,0,0,1-9.44,3.75,13.36,13.36,0,0,1-11.6-6.52,13.57,13.57,0,0,1-9.94,4.26,13.81,13.81,0,0,1-8-2.54,15,15,0,0,1-1.69,3.43,13.77,13.77,0,0,1-10.5,6.25,15.63,15.63,0,0,1,.9,5.29A13.9,13.9,0,0,1,139.65,231,13.34,13.34,0,0,1,144,241.07c0,5.19-2,9-6,11.3a12.86,12.86,0,0,1,4.78,10.26c0,3.3-.85,7.44-3.07,10.34a15.79,15.79,0,0,1,5.31,9.75c1.1,7.34-2.3,13.72-7.75,14.54a7,7,0,0,1-1.12.09c-5,0-9.43-4.92-10.51-11.47-.86-1.77-4.47-10.13-14.77-10h-.08c-4.23,0-7.06,2.72-8.18,7.74-2.06,9.28,1.19,19.14,4.64,28.76.21.57.42,1.13.62,1.71l.88,2.41c.59,1.66,1.15,3.27,1.67,4.87,1.17,3.59,2.41,7.25,3.64,10.82.22.62,1.14,3.3,1.38,4,2.41,7,4.8,14.09,6.81,21.27.4,1.42.78,2.84,1.15,4.26,3.53,13.79,5.42,27.93,3.12,42.56-.16,1-.37,2.11-.59,3.28-1.72,9.29-2.65,17.26,3.42,20.69a6,6,0,0,0,6,.26c4.35-2.15,8-9,8.68-14,1.07-7.92,1.75-25.53-.7-43q-1.8-9.83-3.09-18.32c-.23-1.47-.44-2.92-.64-4.32-1-6.66-3.17-24-3.28-24.88-.92-7.56,3.89-8.58,4.86-.59.07.56,2.14,17.07,3.1,23.63q.3,2.07.63,4.23c2.26,14.89,5.52,32.9,10.63,54.17,5.54,23.08,31.28,47.73,59,60.61,1.25.59,2.51,1.15,3.77,1.68a99.6,99.6,0,0,0,17.33,5.63c1.44.32,2.87.59,4.29.83a66.47,66.47,0,0,0,10.73.92c9.78,0,20.42-2.53,30.93-6.85,1.31-.54,2.62-1.1,3.92-1.7,28-12.74,53.2-34.88,60.75-62.76,2.9-10.69,4.52-22.52,6.43-32.91,2.66-14.42,4.4-26.67,5.69-36.8.19-1.46,1.86-13.44,2.27-14.33,1.26-2.78,3.27-2.42,3.86.51.2,1-1.75,14.31-2.05,15.71-1.29,6.09-2.86,18.76-5.39,34.55-2.23,15.2-1.27,36.05-.2,44,.68,5,4.33,11.88,8.67,14a6,6,0,0,0,6-.26c6.06-3.43,5.13-11.41,3.41-20.69-.21-1.17-.42-2.27-.58-3.28-3.16-20,1.55-39.14,7.57-57.68.42-1.3.86-2.6,1.29-3.89,1-2.91,7.23-21.36,7.23-21.37.45-1.37,2.17-6.22,2.55-7.28,3.67-10.15,7.46-20.63,5.26-30.47M334,311.77c-15.47,10.69-29.44,7.41-40.09,6-6.46-.85-12.23-1.59-16.37,1.36,2.2-6.92,9.46-16.34,20.4-18.47,10-1.95,16.68.25,22.54,2.2a33,33,0,0,0,8.8,2.09c.81,0,2.76-.4,2.8-1.21s-7.71-2.68-10.68-3.67c-5.89-2-13.23-4.4-24-2.3C283,300.59,273.72,315,273.93,323.37a1.64,1.64,0,0,0,.09.44,3.15,3.15,0,0,0,1,2.94,2.17,2.17,0,0,0,1.38.5,2.37,2.37,0,0,0,2-1.27c2.24-3.91,6.66-3.52,14.95-2.43,10.77,1.42,25.52,3.36,42.38-8.3,1.17-.81,4.68-5.13,4-6.52s-4.59,2.23-5.75,3m-44.86,94.67c-4.38,2.85-10.93,4.09-18,3.39-1.09-.11-2.11-.3-3.1-.49a18.26,18.26,0,0,0-8.23-.14,15.45,15.45,0,0,0-4,1.67,9.47,9.47,0,0,1-10.83,0,15.68,15.68,0,0,0-4-1.67,18.22,18.22,0,0,0-8.22.14c-1,.19-2,.38-3.1.49-7.06.7-13.61-.54-18-3.39a2.45,2.45,0,0,0-3.39.72c-.74,1.13,10,7.91,21.85,7.54a22.32,22.32,0,0,0,3.52-.54,13.64,13.64,0,0,1,6.2-.2,11.8,11.8,0,0,1,2.75,1.22,15.46,15.46,0,0,0,7.38,2.28h.73a15.53,15.53,0,0,0,7.38-2.28A11.62,11.62,0,0,1,261,414a13.64,13.64,0,0,1,6.2.2,22.14,22.14,0,0,0,3.52.54c10.94.37,22.59-6.41,21.85-7.54a2.45,2.45,0,0,0-3.39-.72M222.24,406a1.46,1.46,0,0,0,1.42,1.51,27.16,27.16,0,0,0,9.25-1.6,26.69,26.69,0,0,1,8.9-1.59,12.42,12.42,0,0,1,4,1.19,9.06,9.06,0,0,0,9.32,0,12.54,12.54,0,0,1,4-1.19,26.6,26.6,0,0,1,8.9,1.59,28.07,28.07,0,0,0,8.61,1.61h.63a1.47,1.47,0,1,0-.09-2.94,24.48,24.48,0,0,1-8.29-1.47,29.45,29.45,0,0,0-9.81-1.72,14.55,14.55,0,0,0-5.09,1.41,11.55,11.55,0,0,1-3.55,1.07,11.42,11.42,0,0,1-3.54-1.07,14.6,14.6,0,0,0-5.1-1.41,29.54,29.54,0,0,0-9.8,1.72,24.4,24.4,0,0,1-8.3,1.47,1.46,1.46,0,0,0-1.51,1.43m59.39,12.33c-5.13,5.09-16.74,10.23-31.14,10.27s-26-5.18-31.14-10.27a1.47,1.47,0,0,0-2.07,2.08c5.14,5.1,16.84,11,33,11.13h.42c16.17-.09,27.87-6,33-11.13a1.47,1.47,0,1,0-2.07-2.08M388.9,285c-3.9-.19-7.71,3.4-10,6.8-6.87,10.31-11.3,34.81-10.53,49,.11,2-1.08,4.48-2.23,6.91-1.8,3.8-3.85,8.11-.23,10.58a1.53,1.53,0,0,0,.83.26,1.5,1.5,0,0,0,1.22-.64,1.46,1.46,0,0,0-.39-2c-1.44-1-.5-3.27,1.23-6.91,1.3-2.75,2.66-5.6,2.51-8.31-.73-13.46,3.58-37.53,10-47.22,1.81-2.72,4.91-5.62,7.4-5.49,1.3.06,2.39.94,3.35,2.69,2.41,4.44-2.93,18-4.94,23.1l-.4,1a1.47,1.47,0,1,0,2.74,1.07l.39-1c3.89-9.86,7.5-20.61,4.79-25.58-1.83-3.36-4.16-4.15-5.8-4.23M370.06,401c1.1,8.22,1.44,14.14-.46,16.32a2.74,2.74,0,0,1-2.09,1c-1.24,0-2.54-.78-4.12-2.44-5.29-5.61-6-27.46-3.13-34.86,1-2.53,3-4.23,5-4.23,1.75,0,3.62,1.35,3.66,5.12,0,.09.44,12.44,1,17.49,0,.37.12.93.21,1.63m-2.91.39c-.1-.73-.18-1.33-.22-1.71-.54-5.15-1-17.22-1-17.73,0-1.47-.38-2.25-.72-2.25-.55,0-1.63.81-2.22,2.34-2.67,6.94-1.59,27.43,2.53,31.79a5.09,5.09,0,0,0,1.91,1.5c.54-.62,1.13-3.31-.29-13.94M243,264.06c.19-4,3.25-6.51,7-6.88a1.88,1.88,0,0,1,.36,0h.31a1.36,1.36,0,0,1,.36.05c3.64.36,7.09,2.85,7,6.87s-3.23,6.53-7,6.88a1.87,1.87,0,0,1-.35,0h-.31a2,2,0,0,1-.36,0c-3.66-.36-7.23-2.78-7-6.88m2.45,0c0,2.92,2.41,4.34,5.09,4.46,2.55-.12,5.24-1.54,5.1-4.46s-2.48-4.34-5.13-4.46c-2.5.14-5.11,1.63-5.06,4.46" transform="translate(-97.06 -20.63)"/></g></g></svg>