<svg id="Warrior_Idols" data-name="Warrior Idols" xmlns="http://www.w3.org/2000/svg" xmlns:xlink="http://www.w3.org/1999/xlink" viewBox="0 0 423.45 479.53"><defs><style>.cls-1{fill:none;}.cls-2{clip-path:url(#clip-path);}.cls-3{fill:#333;}.cls-4{fill:#fff;}</style><clipPath id="clip-path" transform="translate(-37.37 -12.67)"><rect class="cls-1" x="38" y="13" width="423.26" height="480"/></clipPath></defs><g id="Lion_Warrior" data-name="Lion Warrior"><g class="cls-2"><path class="cls-3" d="M144.18,427.42c33.64-46,5.52-77.6-12.54-109.72-14.47-25.77-21.36-52.51,8.82-82-18.88,31.7-1.93,72.36,22.33,98.14-1.65-12.41-5-23.71-9.23-36.67,17.92,18.61,31.56,39.42,34.46,75.95-3.31-5.24-12.27-13.92-16.54-17.37,6.47,21.23-2.07,37.5-2.9,52C167.06,431,181,452.92,204.42,464,185.53,439,186,406.6,213.24,379.73c-13.23,34.73-1,55.55,8.82,68.23,6.48-5.38,9.1-12.68,10.34-19.16,7.44,10.2,6.48,40.52-12,63.4,41.35-20.95,55.13-68.09,31-106.41,29.5,15.58,34.6,53.48,25.36,76.36,21-10.61,28.53-36.38,28.53-57.34,6.62,10.07,9.24,32.95,7,44.8,31.84-21.78,27.57-82.84,9.1-111.51-4.82,11.86-6.06,24.12-5,38.73-17.23-28.12-9.24-67.95,8.27-99.79-6.2,36.8,15.44,68.78,28.94,94.83,8.69,16.68,2.9,37.63-14.06,37.22,17.92,6.75,38.32-4.14,42-26.33,8.28-49.62-57.75-80.36-45.07-130.53,7,43.42,90.15,77.32,50.73,118.26,41.76-4.55,44.1-47.83,16.95-72.5-21.09-19.16-52.93-28.81-48.1-56.65,11.44,41.9,76.22,19.44,75,80.36,22.88-46.45-15.58-73-49.76-80.36,21.09-5,64.78-6.89,64.37,37.77,15.57-25,9.23-48.66-7.58-59.13-16.27-10.2-42.18-7.58-67.27-1.38-18.88,4.55-37.35,4.27-41.9-11.72,12.68,5.38,30.05,1.1,42.18-5.79-21.36,2.21-51.41-2.34-52.79-39,9.23,29.22,51.27,37.49,95.79,32.94a77,77,0,0,1-20.95-9.1c24.26-2.34,63.68,2.07,61.75,37.35,24.12-58.85-31.56-73.05-78.15-61.06,14.06,1.52,19.71,2.76,27.84,5.24-31.7,1.1-59.95,5.52-74-19.43,29.91,14.75,115.09,8.54,98.14-45.9-31,38-90.84,41.76-125.16,26.46,13.23-.41,24.67-1.24,36.39-4.27-31.29-10.48-71-13.92-92.35,17.64,19.43-58.44,64.37-36.53,106.82-28.53,28.4,5.24,63.27,2.07,61.48-33.49-26.61,30.6-60.79,5.23-105.59-5.1-37.62-8.55-86.56-10.48-99.24,31.56,21-19.85,47.83-22.47,71.68-17.09-37.91-.69-66.44,18.33-57.76,52.38A53.74,53.74,0,0,1,206.9,121a82,82,0,0,0,7.3,23.57C184,118,183.88,72.22,226.89,61.33c36.25-9,100.2-6.89,100.62-48.66-17,14.61-43.7,13.23-72.23,13-38.18-.42-127.91,3.72-110.82,72.09,3.72-20.13,20.68-41.91,41.9-41.77-25.77,13.37-24.53,58.17-12.13,79-11.3-3.86-21.91-9.23-30.18-22.6-1.52,7.44-.69,18.88,1,23.43C124.2,117,107.8,58.85,155.76,47.27c-60.37-10.2-100.34,82.84-37.08,115.09-6.61-7.58-16.12-26.88-6.34-44.79,2.07,27.29,17.1,43.14,40.94,52.23C109,177.52,50,141.27,85.33,104.2c-37.08,11-31.57,58.85-13.65,70.15-34.46,14.06-42,55.41-26.88,73.47,4-68.64,76.23-39.56,105.31-60.51-11.71,21.23-42.73,16.13-66.43,29.36C31.85,245.61,37.91,346.1,98.29,377.25,64.93,317.15,59.14,242,124.2,220.67c-44.66,26.74-40.11,93.45-15.3,142.24,6.06,11.86,11.58,23.16,12.4,36.25,8.27-9.78,6.48-33.22,2.9-45.48,11.85,18.74,22.33,46.45,20,73.74M278.57,62.15c42.32-32.25,91.11,10.07,117.3-10.88-6.06,31.84-53.75,27.15-74.43,17.91-9.92-4.41,5.24-7.85,20-4.68a67.62,67.62,0,0,0-62.86-2.35" transform="translate(-37.37 -12.67)"/><path class="cls-4" d="M323.92,223.49c-5.24-10.47-1-12.67-4.27-22.19-1.93-5.51-2.34-20.53-7.44-32.11-2.48-5.79-7.59-10.62-10.48-13.23C279.4,162.16,268,173.05,268,173.05a57.33,57.33,0,0,1,3.31-13.37c-11.72.27-21.5.27-31.43,13.09-9-11.44-17.64-12.68-27.84-13a53.25,53.25,0,0,1,3,12.68s-12.13-11.72-35.84-17.65c-2.34,1.93-8.82,7.58-11.85,14.34-5.1,11.58-5.51,26.6-7.44,32.11-3.31,9.52,1,11.72-4.27,22.19s-.69,23.85,8.13,34.05A128.26,128.26,0,0,1,172.44,269a46,46,0,0,1,11.85-12.13l-5-23.15,14.48,25.77s-22.33,18.61-18.61,29.77,13.64,25.64,27,25.36c12.13-.13,28.12-9.09,33.91-20.53.55-4.83,1.52-13.51-3.17-17-3.72-2.61-12.13-4.82-18.19-7.71-8-3.86-6.76-13-2.9-19-1,5.66.55,8.41,5.38,7.45,3.86-.69,8.54-1.93,11.85.13,7.17,4.55,13.37,4.69,20.54.56l.14-.14h.13l.14,1.53h.14l.14-1.53h.14c3.3-2.07,8-.83,11.85-.14,4.82,1,6.34-1.79,5.37-7.44,3.86,6.06,5.11,15.16-2.89,19l-.27.13c-5.93,2.76-14.34,5-17.92,7.59-4.69,3.44-3.73,12.13-3.17,17,5.79,11.44,21.77,20.4,33.9,20.54,13.37.27,23.43-14.06,27-25.36s-18.61-29.78-18.61-29.78l14.47-25.77-5,23.15a46,46,0,0,1,11.86,12.13c3-4.27,6.06-8.4,8.68-11.44,8.82-10.2,13.37-23.57,8.13-34M218.2,213.5C209,224,211.31,244,211.31,244c-3.58-9.24-3.58-16.68-5-21.09-1-3.17-1.66-4.41-9.1-5.65-8.68-1.38-18.33-2.62-24-9-4.41-1.65-9.93-4.27-10.34-10.06,4.55,4.27,9.37,3,15.71,1.65,15.58-3.44,25-5.1,37.22,5.65,0,0,7.44-2.06,11.85-11.16,0,0-.27,8.68-9.51,19.16m88.08-5.24c-5.65,6.34-15.3,7.58-24,9-7.44,1.24-8.13,2.48-9.09,5.65-1.38,4.41-1.38,11.85-4.83,21.09,0,0,2.21-20-7-30.46s-9.51-19.16-9.51-19.16c4.41,9.1,11.86,11.16,11.86,11.16,12.27-10.75,21.64-9.09,37.21-5.65,6.34,1.38,11.17,2.62,15.72-1.65-.42,5.79-5.93,8.41-10.34,10.06" transform="translate(-37.37 -12.67)"/><path class="cls-4" d="M263,318.53c-7.31-3.86-39.56-3.86-46.73,0-5.1,2.89-12.82,7.58-13.92,10.75-4.13,12.41-1.52,20.81,7.58,25.22,10.75,5.24,20.4,1.8,29.64,13.65a29.83,29.83,0,0,1,9.09-7.3c-9.78-5.8-10.2-13.38-10.2-13.38,14.48,13.1,48.52,12.27,38.46-18.19-1.1-3.17-8.82-7.86-13.92-10.75" transform="translate(-37.37 -12.67)"/><path class="cls-4" d="M201.25,212.53a5.84,5.84,0,0,1-5.65-6.89c-3,.69-5.1,3.86-4.55,6.34,6.89,3.86,13.09,3.31,17.23,1.52a16.81,16.81,0,0,1,.55-3c-.69-.42-1.52-.83-2.34-1.24a5.85,5.85,0,0,1-5.24,3.3" transform="translate(-37.37 -12.67)"/><path class="cls-4" d="M284,205.64a5.78,5.78,0,0,1-10.89,3.59c-.83.41-1.65.82-2.34,1.24a17.73,17.73,0,0,1,.55,3c4.13,1.79,10.34,2.34,17.23-1.52.55-2.48-1.52-5.65-4.55-6.34" transform="translate(-37.37 -12.67)"/></g></g></svg>