<svg xmlns="http://www.w3.org/2000/svg" xmlns:xlink="http://www.w3.org/1999/xlink" viewBox="0 0 238.16 434.26"><defs><style>.cls-1{fill:none;}.cls-2{clip-path:url(#clip-path);}.cls-3{fill:#1a1a1a;fill-rule:evenodd;}</style><clipPath id="clip-path" transform="translate(-140.31 -39.14)"><rect class="cls-1" x="-511" y="-418" width="1540" height="1540"/></clipPath></defs><g id="Member_Idols" data-name="Member Idols"><g id="Owl"><g class="cls-2"><path class="cls-3" d="M352.94,320.43V228.72c6.89,9,13.36,18.85,16.18,36.52.42,2.69.77,5.56,1,8.64a174.65,174.65,0,0,1-17.2,46.3m0-99.93,1.44,1.84c7.27,9.29,14.54,18.58,18.48,35.21,3.68-32.17-.74-71-18.51-120.43q-.6,2.38-1.41,4.76Zm0-172.4V42.56a41.11,41.11,0,0,1,9.08,0,36.67,36.67,0,0,0-9.08-1.44v-2a57.26,57.26,0,0,1,25.52,6.72q-14.88-1.26-25.52,2.28m0-8.76v1.74a34.24,34.24,0,0,0-17.71,4.49V41.39a64.68,64.68,0,0,1,17.71-2.22m0,3.46a39.74,39.74,0,0,0-17.71,6.63V61a34.62,34.62,0,0,1,17.71-12.81Zm0,99.16V220c-1.48-1.9-2.94-3.82-4.36-5.82a77.36,77.36,0,0,1-13.35-26.06V168.32a61.66,61.66,0,0,0,17.71-26.4m0,87c-.88-1.14-1.76-2.26-2.64-3.39-5.51-7-11-14.09-15.07-24.35V302.49a137.26,137.26,0,0,0,15.42,21.42c.78-1.37,1.54-2.76,2.29-4.15ZM334.46,348.15V321.43q6,3.88,12.54,7.4l.24.27c-4,6.69-8.31,13.11-12.78,19.34m0-33.4v-2.39q1.59,2.37,3.28,4.71c-1.11-.72-2.2-1.44-3.28-2.17m0-152.29a58.2,58.2,0,0,0,0-82.77V103a52.4,52.4,0,0,0,5.36-7.92c.77,6.23-1.44,10.21-5.36,12.71V116a31.7,31.7,0,0,0,10.08-9.72c-1.42,7-4.88,12-10.08,13.9v8.68a33.46,33.46,0,0,0,11.61-6.26c-2.56,5.58-6.76,9.09-11.61,10.24V140a48.84,48.84,0,0,0,9.31-3.18,28.54,28.54,0,0,1-9.31,6.3v8.51c.56-.21,1.11-.43,1.66-.66-.54.4-1.09.78-1.66,1.14ZM329.84,57.5a54.69,54.69,0,0,1,4.48-3.61c-1.72,2-3.2,3.7-4.48,5.3v10.4A40,40,0,0,1,334.46,61V49.4a46.73,46.73,0,0,0-4.62,3.5Zm4.62-15.81v3.94a45,45,0,0,0-4.62,2.94V42.78c1.53-.49,3.07-.94,4.62-1.34m0,38.75v22.64a35.27,35.27,0,0,1-4.62,4.5V98.64c3.22-2.77,4.48-7.39,3.49-12.56a31,31,0,0,1-3.49,7V76.21a58.5,58.5,0,0,1,4.62,4.1m0,27.6V116a36.06,36.06,0,0,1-4.62,2.27v-8.32a19.11,19.11,0,0,0,4.62-2.06m0,12.35v8.6a29.77,29.77,0,0,1-4.62.93v-8.7a13.53,13.53,0,0,0,4.62-.78m0,13v6.6a39.05,39.05,0,0,1-4.62.77v-7.37a15.8,15.8,0,0,0,4.62-.38m0,10.39v8.21a36.37,36.37,0,0,1-4.62,1.39v-8.42a23.09,23.09,0,0,0,4.62-1.34m0,9a30.31,30.31,0,0,1-4.62,2.41V167a57.83,57.83,0,0,0,4.62-4.1Zm0,15.78v20.17a86.81,86.81,0,0,1-3.28-17.24c1.12-.85,2.22-1.74,3.28-2.67m0,33.19a82.87,82.87,0,0,1-4.62-17.29V293.06q2.12,4.47,4.62,8.8Zm0,111.31v2.38q-2.35-1.61-4.62-3.27v-6.67c1.44,2.51,3,5,4.62,7.44m0,9.36v26.28c-1.52,2.12-3.07,4.22-4.62,6.3v-36q2.27,1.57,4.62,3.11m-4.62-148.31V172l1-.75c-.35.75-.69,1.5-1,2.24m-70.07-50c3.39-9.78,11.41-14.41,19.94-19,19-10.11,27.21-17.77,32.28-24.64,6-8.11,10.68-15.67,17.85-22.08V53.1a63.22,63.22,0,0,0-9,9.57c-1.54,2-3,4-4.48,6.08-5,7-10.12,14.12-18.64,20.22a140.75,140.75,0,0,1-12.15,7.64c-8.93,5.1-18.53,6.45-25.78,17.73v-8.75q1.78-7.25,12.11-13.86l2.49-1.34c2-1.07,4.06-2.19,6.19-3.41v-.07c6.83-3.9,14.13-8.72,20-15.59v0h0c.76-.9,1.5-1.82,2.22-2.79l.31-.42.3-.41a75.94,75.94,0,0,1,14.93-13.49c-9.76,9.58-12.58,18-19,24.08A77.11,77.11,0,0,1,286.46,88c-9.19,5.65-20.89,8.44-26.69,17.6V97.19A33.74,33.74,0,0,1,272,82.76l1.83-1.12h0l1.93-1.16c9.39-5.65,16.41-8.33,23.83-17.24-4.69,9.55-15.39,16.66-24.24,22a57.55,57.55,0,0,0-6.78,4.42c-.54.39-1.06.79-1.56,1.19-2.34,1.84-4.78,4-7.29,6.35v-27c23.47-1.71,45.84-19.35,70.07-27.07V49c-6.38,4.61-11.9,10.9-16.65,17.52s-9.75,13.59-17.75,19.31a176.47,176.47,0,0,1-17.82,10.8L277,97c-2.85,1.57-5.55,3.07-8,4.56a24.27,24.27,0,0,0-9.22,12.8Zm70.07-64.26c-9,11.14-8.74,14.76-15.32,23.5-4.65,6.19-11.77,13-26.14,21.36-11.15,6.51-21.07,8.63-29.38,19.81v21.29q11.08-.39,14.39,10.83a29.42,29.42,0,0,1,1.38,9.55,81.3,81.3,0,0,1-.46,11,58.27,58.27,0,0,0,55.53-9.37V154.55c-14.89,6.18-33.78.51-37.14-16.78A34,34,0,0,0,329.84,153v-8.57c-7.2,1.26-14.69-1.09-21.4-7a44.36,44.36,0,0,0,21.4,3.27v-7.5a19.87,19.87,0,0,1-10-3.75,35.28,35.28,0,0,0,10,.32V121a19.48,19.48,0,0,1-5.29-.78c1.91-.6,3.66-1.21,5.29-1.88v-8.45a35.86,35.86,0,0,1-4.56,1c1.73-1.18,3.22-2.27,4.56-3.36V98.73a12,12,0,0,1-7.53,2.75A25.26,25.26,0,1,1,277,123.64c-11.2,3.32-16.1,11.28-18,21.45a38.08,38.08,0,0,1,12.21-14.28,33.29,33.29,0,0,0,6.68,25.09,32.24,32.24,0,0,0,40.51,7.51,33,33,0,0,1-26.25-1.14,28.9,28.9,0,0,1-6.58-4.07,29.47,29.47,0,0,1-5.27-5.62h0a29,29,0,0,1-4.13-8.26,29.39,29.39,0,0,1-.3-16.76l1.1-3.92A16.12,16.12,0,0,0,287.43,116a13.1,13.1,0,0,0,25.74-2.93,4.4,4.4,0,1,1-3.28-7.34,4.28,4.28,0,0,1,1.53.27,12.82,12.82,0,0,0-2.68-3.27,10.44,10.44,0,0,1,8.81-7.4c7.93-3.16,10.83-8,9.08-16.45-1.7,4.28-5.93,13.47-9.08,16.45a25.19,25.19,0,0,1,4.53,5.76c3.33-2.91,5.76-5.13,7.76-8V75.93c-.55-.44-1.11-.87-1.67-1.29a47.51,47.51,0,0,1,1.67-4.93Zm0,112.69A62.22,62.22,0,0,1,273,180h0q-4.91,44.43,10.34,83.29c.5,1.08,1,2.15,1.52,3.22q3.93,33.11-3.07,82.67-1.42,10.11-3.31,20.9l0,.13v.06l-.28,1.61,0,.27-.14.74v0q-1.56,8.73-3.41,17.91v0h0c-3.13,15.95-7.76,44.26-13.88,74.48-.63,2.64-1.19,5.33-1.66,8.08v-253l3.63-8.94c2.58-6.36,7.65-19,10.35-31.46A371.32,371.32,0,0,0,277.2,224q.9,5.79,2.18,11.33Q282.85,250.81,288,261h0c.9,2,1.84,3.94,2.83,5.86q13.61,26.34,39,45V304a121.88,121.88,0,0,1-15-43,134.49,134.49,0,0,1-1.12-29.14h0q2.28-26.56,16.17-57.37Zm0,11.55V293.86a118.5,118.5,0,0,1-10.14-33.24q-5.42-35.91,10-78.57l.18,1.15m0,135.08a136.51,136.51,0,0,1-38.74-40.41q1.75,30.33-4.13,72-4.39,31.19-13.11,68.8c-2,7.67-4.15,17-6.53,26.34,13.93-33.47,39.79-59.87,62.51-90.18ZM259,210.32V149.89c15.84-.19,15.84,21.15,0,60.19m0-86.27c-3.43-9.89-11.54-14.58-20.16-19.16-19.22-10.22-27.51-18-32.63-24.92-6-8.19-10.8-15.84-18.05-22.31V52.74a65.17,65.17,0,0,1,9.12,9.68c1.55,2,3,4.07,4.53,6.15,5,7,10.23,14.27,18.84,20.43a141.58,141.58,0,0,0,12.28,7.74c9,5.15,18.74,6.52,26.07,17.92v9.15c-8.32-11.19-18.23-13.31-29.38-19.81-14.37-8.39-21.49-15.17-26.14-21.36-6.58-8.74-6.33-12.36-15.32-23.5V69.72a51.79,51.79,0,0,1,1.67,4.93c-.56.42-1.12.85-1.67,1.29V93.05c2,2.9,4.42,5.12,7.76,8a25.35,25.35,0,0,1,4.53-5.75c-3.15-3-7.38-12.17-9.08-16.45-1.75,8.47,1.15,13.29,9.08,16.45a10.4,10.4,0,0,1,8.8,7.4,12.82,12.82,0,0,0-2.67,3.27,4.2,4.2,0,0,1,1.81-.26,4.46,4.46,0,0,1,4.12,4.32,4.4,4.4,0,0,1-4.41,4.47,4.36,4.36,0,0,1-3.27-1.46A13.11,13.11,0,0,0,230.57,116,16.16,16.16,0,0,0,241,123.65l1.09,3.91a29.34,29.34,0,0,1-.29,16.77,28.89,28.89,0,0,1-4.13,8.25h0a28.79,28.79,0,0,1-5.26,5.62,29.85,29.85,0,0,1-6.58,4.07,33,33,0,0,1-26.25,1.13,32.23,32.23,0,0,0,40.51-7.5,33.29,33.29,0,0,0,6.68-25.09A38.09,38.09,0,0,1,259,145.1Zm0-53.63V97.45q-3.83-3.61-7.37-6.41c-.5-.4-1-.8-1.57-1.2a58.2,58.2,0,0,0-6.85-4.46c-8.94-5.4-19.75-12.58-24.49-22.23,7.5,9,14.59,11.71,24.08,17.42l1.95,1.17h0l1.86,1.13A34.13,34.13,0,0,1,259,97.45v8.34c-5.82-9.2-17.58-12-26.8-17.67a78.36,78.36,0,0,1-12.91-9.68c-6.47-6.12-9.32-14.56-19.11-24.18a75.7,75.7,0,0,1,15,13.55l.31.41.31.42H216c.71,1,1.45,1.9,2.22,2.8h0c5.89,6.87,13.19,11.69,20,15.59V87c2.13,1.21,4.21,2.33,6.19,3.4l2.49,1.34q10.32,6.61,12.11,13.86v9.09a24.57,24.57,0,0,0-9.32-12.94c-2.45-1.5-5.18-3-8.06-4.61l-.67-.37a180.82,180.82,0,0,1-18-10.92c-8.08-5.78-13.08-12.75-17.94-19.53s-10.38-13-16.83-17.71V42.74c24.47,7.8,47.07,25.62,70.78,27.35m.06,80.17v59.82c-15.85-39-15.85-60.38,0-60.19m.77,70.6-3.66-9c-2.61-6.41-7.71-19.12-10.43-31.72a374.76,374.76,0,0,1-4.26,44.32q-.91,5.84-2.21,11.42-3.48,15.64-8.7,25.95v-.25q-1.33,3-2.82,5.82-13.51,26.19-38.76,44.74V304a121.88,121.88,0,0,0,15-43,135.13,135.13,0,0,0,1.12-29.14h0q-2.28-26.56-16.17-57.37v-1.43a61.53,61.53,0,0,0,56.18,8.1h0q4.84,43.92-10.23,82.35c-.48,1.07-1,2.13-1.5,3.18q-3.88,32.75,3,81.74,1.43,10,3.28,20.66l0,.13v.06l.28,1.6.05.26.13.73v0q1.54,8.64,3.38,17.71v1.18c3.26,15.93,8.08,44.22,14.44,74.41q1,4,1.73,8.07ZM188.16,355.08v-36.8a136.51,136.51,0,0,0,38.74-40.41q-1.77,30.33,4.12,72,4.41,31.19,13.12,68.8c2,7.67,4.15,17,6.53,26.34-13.93-33.47-39.79-59.87-62.51-90.18m0-61.35V183.2l.56-.09q14.92,42,9.58,77.51a118.5,118.5,0,0,1-10.14,33.24m0-126.66V154.52c14.88,6.18,33.75.51,37.11-16.77A34,34,0,0,1,188.16,153v-8.56c7.19,1.26,14.68-1.08,21.38-7a44.3,44.3,0,0,1-21.38,3.27v-7.49a19.92,19.92,0,0,0,10-3.74,36,36,0,0,1-10,.32V121a19.48,19.48,0,0,0,5.29-.78c-1.91-.6-3.66-1.21-5.29-1.88v-8.45a32.09,32.09,0,0,0,4.56,1c-1.73-1.17-3.23-2.26-4.56-3.35V98.75a12,12,0,0,0,7.53,2.74A25.24,25.24,0,1,0,241,123.64c11.18,3.32,16.08,11.27,17.95,21.43q-11.07-.39-14.38,10.82a30,30,0,0,0-1.38,9.54,83,83,0,0,0,.46,11,58.23,58.23,0,0,1-55.48-9.37m0-109.64q-1.82-1.62-3.85-3.14V49.83c1.32.92,2.61,1.91,3.85,3Zm-3.85-2.65v7.43a41,41,0,0,1,3.85,7.47V59.21c-1.12-1.4-2.4-2.91-3.85-4.57m3.85-12.18V48.6a43,43,0,0,0-3.85-2.51V41.63c1.29.35,2.57.73,3.85,1.13m0,33.58V93.05a30.88,30.88,0,0,1-3.51-7c-1,5.21.27,9.86,3.51,12.65v8.74a35.27,35.27,0,0,1-3.85-3.62V79.46c1.22-1.17,2.51-2.28,3.85-3.35m0,34.11v8.07a37,37,0,0,1-3.85-1.83v-8.14a20.59,20.59,0,0,0,3.85,1.61m0,11.07v8.79a27.51,27.51,0,0,1-3.85-.72v-8.56a14,14,0,0,0,3.85.52m0,12.29v7.4c-1.28-.14-2.56-.34-3.85-.61v-7a15.41,15.41,0,0,0,3.85.21m0,10.81V153a39.81,39.81,0,0,1-3.85-1.11v-8.41a22.38,22.38,0,0,0,3.85,1m0,10.09a30.09,30.09,0,0,1-3.85-1.93v11c1.24,1.18,2.52,2.29,3.85,3.35Zm0,17.25v1.62c-.33-.75-.67-1.49-1-2.24l1,.75m0,11.42v110q-1.78,3.76-3.85,7.44V199a84.91,84.91,0,0,0,3.85-15.27m0,121.29v6.82q-1.89,1.39-3.85,2.74v-3.18q2-3.11,3.85-6.28m0,13v36.54c-1.29-1.72-2.58-3.46-3.85-5.22V321.05c1.3-.86,2.59-1.73,3.85-2.61m-3.85-133.2a85.61,85.61,0,0,0,2.47-14.34c-.84-.63-1.66-1.3-2.47-2Zm0-131-.68-.49.68.76v7.7a35.4,35.4,0,0,0-3.85-4.87v-10q2,1.11,3.85,2.42Zm0-12.6v4.42a41.15,41.15,0,0,0-3.85-2V40.64c1.29.29,2.57.6,3.85,1m0,37.83V104a38.73,38.73,0,0,1-3.85-5V83.29q1.81-2.1,3.85-4m0,28.65v8.62a29,29,0,0,1-3.85-2.53v-8.89a12.82,12.82,0,0,0,3.85,3.15m0,12v8.91a29.49,29.49,0,0,1-3.85-1.29v-9.24a12.65,12.65,0,0,0,3.85,1.83m0,12.88v6.85c-1.28-.26-2.56-.59-3.85-1v-7.41a15.48,15.48,0,0,0,3.85,1.25m0,10.3v8.55c-.83-.29-1.66-.6-2.49-.95.81.59,1.64,1.14,2.49,1.64v11.19q-2-1.92-3.85-4V141.56a25.67,25.67,0,0,0,3.85,1.79m0,25.39v16.53a84.26,84.26,0,0,1-3.85,11.42V165.31c1.24,1.24,2.52,2.41,3.85,3.54m0,29.15V301.68c-1.21,2.16-2.5,4.3-3.85,6.41v-101a71.15,71.15,0,0,0,3.85-8.84m0,112.93v3.45c-1.26.86-2.55,1.72-3.85,2.56V317q2-2.77,3.85-5.6m0,9v29.22q-2-2.68-3.85-5.43v-21c1.3-.8,2.59-1.62,3.85-2.45M180.46,40.92V44.1a33.24,33.24,0,0,0-14.63-3V39.18a62.24,62.24,0,0,1,14.63,1.49m0,6.76a38.87,38.87,0,0,0-14.63-4.77v5.5a34.83,34.83,0,0,1,14.63,9.12Zm0,35.84V98.93c-.76-1.16-1.53-2.43-2.34-3.84-.54,4.37.39,7.64,2.34,10.06V114a34.17,34.17,0,0,1-7.06-7.67c1.12,5.53,3.52,9.85,7.06,12.33v9.19a35.2,35.2,0,0,1-8.59-5.2,18.25,18.25,0,0,0,8.59,9.18v7.36a51.36,51.36,0,0,1-6.3-2.38,30.93,30.93,0,0,0,6.3,4.84v18.05a58.21,58.21,0,0,1,0-76.34m0,81.86a61.84,61.84,0,0,1-10.83-14.86,63,63,0,0,1-3.8-8.92V220c1.47-1.9,2.92-3.84,4.33-5.86h0a75.6,75.6,0,0,0,10.29-17.8Zm0,42.81V307.2a140.58,140.58,0,0,1-12.36,16.4c-.77-1.36-1.53-2.74-2.27-4.12V229.2c.87-1.14,1.75-2.26,2.63-3.38,4.22-5.39,8.44-10.8,12-17.66m0,108.83-.27.37.27-.18Zm0,6.35q-4.61,2.85-9.52,5.49l-.25.27c3.1,5.18,6.38,10.18,9.77,15.07Zm-14.63-284v1.73a36.59,36.59,0,0,0-9.08,1.44,41.11,41.11,0,0,1,9.08,0v5.58q-10.65-3.54-25.52-2.28a57.26,57.26,0,0,1,25.52-6.72m0,102.65v78.46l-1.44,1.84c-7.27,9.29-14.54,18.58-18.48,35.21-3.69-32.17.74-71,18.51-120.43q.6,2.38,1.41,4.76m0,87.09c-6.89,9-13.36,18.85-16.18,36.52-.43,2.69-.77,5.56-1,8.64a174.3,174.3,0,0,0,17.2,46.3Z" transform="translate(-140.31 -39.14)"/></g></g></g></svg>