<svg xmlns="http://www.w3.org/2000/svg" xmlns:xlink="http://www.w3.org/1999/xlink" viewBox="0 0 410.1 462.35"><defs><style>.cls-1,.cls-10,.cls-11,.cls-12,.cls-13,.cls-14,.cls-15,.cls-16,.cls-17,.cls-18,.cls-19,.cls-20,.cls-21,.cls-22,.cls-23,.cls-24,.cls-25,.cls-26,.cls-27,.cls-28,.cls-29,.cls-4,.cls-5,.cls-6,.cls-7,.cls-8,.cls-9{fill:none;}.cls-2{clip-path:url(#clip-path);}.cls-3{fill:#fff;}.cls-10,.cls-11,.cls-12,.cls-13,.cls-14,.cls-15,.cls-16,.cls-17,.cls-18,.cls-19,.cls-20,.cls-21,.cls-22,.cls-23,.cls-24,.cls-25,.cls-26,.cls-27,.cls-28,.cls-29,.cls-4,.cls-5,.cls-6,.cls-7,.cls-8,.cls-9{stroke:#000;stroke-miterlimit:10;}.cls-4{stroke-width:1.4px;}.cls-5{stroke-width:0.73px;}.cls-6{stroke-width:0.99px;}.cls-7{stroke-width:1.29px;}.cls-8{stroke-width:1.4px;}.cls-9{stroke-width:1.58px;}.cls-10{stroke-width:1.82px;}.cls-11{stroke-width:1.92px;}.cls-12{stroke-width:1.89px;}.cls-13{stroke-width:1.85px;}.cls-14{stroke-width:1.88px;}.cls-15{stroke-width:1.78px;}.cls-16{stroke-width:1.61px;}.cls-17{stroke-width:1.57px;}.cls-18{stroke-width:1.49px;}.cls-19{stroke-width:1.31px;}.cls-20{stroke-width:1.2px;}.cls-21{stroke-width:1.17px;}.cls-22{stroke-width:1.26px;}.cls-23{stroke-width:1.43px;}.cls-24{stroke-width:1.37px;}.cls-25{stroke-width:1.26px;}.cls-26{stroke-width:1.12px;}.cls-27{stroke-width:0.9px;}.cls-28{stroke-width:0.65px;}.cls-29{stroke-width:0.5px;}</style><clipPath id="clip-path" transform="translate(-40.58 -15.55)"><rect class="cls-1" x="-21" y="-100.41" width="542" height="701.41"/></clipPath></defs><g id="Member_Idols" data-name="Member Idols"><g id="Turtle"><g class="cls-2"><path d="M160,381.34S146.42,401.77,146.42,429s11.76,48.9,11.76,48.9,7.63-18.36,19.18-32.8a229.28,229.28,0,0,1,17.34-18.57Z" transform="translate(-40.58 -15.55)"/><path d="M194.08,154.19S166.9,170.5,151,208.24c-15.21,36-18.24,91.44,5.37,140.92C201.5,443.86,260.3,469,260.3,469a100,100,0,0,0,19.19-15.89,109.61,109.61,0,0,0,12.38-16.71s-59.61-35.87-89.75-76.34c-28.88-38.78-35.29-82.09-35.07-116.77.31-49.93,27-89.13,27-89.13" transform="translate(-40.58 -15.55)"/><path d="M362.43,477.9s20.84-34.45-21.25-74.07S230.71,329.76,222,262.29c-9.62-74.58,24.65-105.93,56.86-108.1,25.22-1.7,45.08,18.4,39.92,36.67-5.1,18.11-23.67,20.72-33.87,14.37-7-4.33-6.79-14.81-1.1-18.24,4.18-2.51,7.47-1.42,9.44-.08a4,4,0,0,1,1.65,4.26,1.83,1.83,0,0,1-2.13,1.47c-1.27-.23-1.35-1.78-1.35-1.78s-.33,1.61.9,2.2a2.79,2.79,0,0,0,3.2-.91,7.75,7.75,0,0,0,1.63-6.55c-.52-3.48-2.92-6.57-9-7-9.89-.63-20.76,9.42-12.38,32.49C283.36,232,306.1,247,329.63,255.7s41.83,6.19,41.83,6.19,1.23-50.76-39.36-91.61c-29-29.19-53.85-34.66-53.85-34.66S303,105.91,292.49,67.54s-37.14-52-37.14-52,19.6,44.15,3.1,81.7c-12.59,28.65-64.17,67.26-74.9,121.31-9.45,47.66,3.31,101.1,45.19,148.55,30.14,34.15,77.55,52.42,103,72.62,18.15,14.44,30.74,38.17,30.74,38.17" transform="translate(-40.58 -15.55)"/><path d="M251.64,196.9s-26.11,62.73,17.95,118.84c28.68,36.52,72,57.56,72,57.56s14-14.86,23.93-45.8a166.25,166.25,0,0,0,7.17-39.62s-44.72,4.95-85.77-28.47c-37-30.08-35.28-62.51-35.28-62.51" transform="translate(-40.58 -15.55)"/><path d="M344.48,160.38l8,10.52s28.31.62,54.46,23.52c20.93,18.33,22.9,44.88,22.9,44.88s-9.9-14.55-19.8-23.83-30.95-18.57-30.95-18.57,11.59,16.35,15.47,33.42c3.43,15.09,2.56,34,2.56,34s13.65,7.38,23.44,19.81c13,16.5,9.28,50.75,9.28,50.75-2.05-5.94-6.19-21-17.33-30.32-12.79-10.67-19.8-12.38-19.8-12.38s-4.54,21.86,3.71,36.52c5.8,10.3,13.89,9.73,22.28,19.8,6.19,7.43,5.57,24.76,5.57,24.76s35.44-56,24.14-125.65c-10.2-62.85-56.32-78-69.94-82.93s-34-4.34-34-4.34" transform="translate(-40.58 -15.55)"/><path d="M155.5,170.28,166,160.13s-55.06-8.41-92,25.63c-35.14,32.39-35.28,73.65-32.18,100.88S69.67,373.3,69.67,373.3s-1.86-31.57,6.81-41.47c8.15-9.32,13.7-3.93,26-11.14,18.73-11,19.32-27.56,17.33-37.14-2.47-11.92-13.47-19.65-13.47-19.65s.06-17.18,10.38-38.53a157,157,0,0,1,20.37-31.57s-34.81-3.71-56.89,38.38C66.66,258,67.32,287.86,84.45,296.32c6.12,3,11.3.67,12.92-1.4,2.9-3.71,3.15-8.73,0-11.83-2-2-4.52-2.17-6.07-1.13a2.43,2.43,0,0,0-1.12,2.13,2.43,2.43,0,0,1,1.8-1.45,3.9,3.9,0,0,1,4.39,2.73c1.07,3.46-1.7,6.19-4.57,6.85a9,9,0,0,1-10.21-6.12c-1.74-5.51,1-13.12,10.45-13.15,12.76,0,24.06,18.37,8.55,32.88-8.53,8-39.62,5.57-45.81-26.61s3.72-67.26,34.67-91c23.76-18.21,66-17.95,66-17.95" transform="translate(-40.58 -15.55)"/><path d="M248.54,19.26S215.2,30.71,208.93,64.44c-7.63,41.06,16.71,61.28,16.71,61.28s20.22-12,27.24-45.8c6.73-32.49-4.34-60.66-4.34-60.66" transform="translate(-40.58 -15.55)"/><path class="cls-3" d="M365.25,297.06s0,13.47-8.05,34.2c-.84,2.16-1.69,4.23-2.56,6.23.81-9,2.12-16.42-2-25.78-5.82-13.07-22.28-14.22-28.21-3.3-5.08,9.35,6,16.7,6,16.7s-5.36-6.7-1-13.07,13.78-1.61,15.25,4.26-1,17.08-12.73,19.11-21.78-10.92-22.7-12.15c2-9,5.51-15.1,3.28-24.53-2.59-11-15.18-14.27-21.38-6.67-5.3,6.5,2.22,13.81,2.22,13.81s-3.17-6,1.14-10.28,10.9.78,11.19,5.53-3.27,13.1-12.65,12.95c-6.58-.1-11.44-5.76-13.94-9.52,2.51-9.69,7.79-13.95,7.16-23-.6-8.55-9.64-12.58-15.23-7.64-4.78,4.24,0,10.65,0,10.65s-1.65-4.88,2.12-7.58,8.09,1.92,7.72,5.54-4.06,9.42-11.09,8.16c-6.6-1.18-9.65-9.46-10.24-11.23.19-.45.4-.88.62-1.3,3.76-7.16,8.73-8.77,10.23-15.46,1.31-5.91-4-10.45-8.76-8.24-4.08,1.9-2.16,7.18-2.16,7.18s-.14-3.62,3-4.69,5.07,2.93,4.09,5.3a6.64,6.64,0,0,1-9.13,3.28,7.42,7.42,0,0,1-3.23-3.47s0,0,0,0c-3.68-20.05-1.49-35-1.49-35s17.07,40.85,61,58.49c33.37,13.41,51.68,11.6,51.68,11.6" transform="translate(-40.58 -15.55)"/><path class="cls-3" d="M359.81,233.81l-1.06,2.53-3.86-15.44-.16-.67c.09.19.17.39.25.57a121.93,121.93,0,0,1,4.83,13" transform="translate(-40.58 -15.55)"/><polygon class="cls-3" points="260.62 210.49 275.8 204.39 273.5 220.58 260.62 210.49"/><polygon class="cls-3" points="291.56 217.47 293.18 231.4 280.32 225.83 291.56 217.47"/><path class="cls-3" d="M364,253.58a74.71,74.71,0,0,1-8.22-.28,102.3,102.3,0,0,1-17.43-2.94l-.74-.19-2.72-23.51-17.21,12.79,3.69-25.88L295,224.17A90,90,0,0,1,286.35,214c.64.24,18.18,6.92,31.86-3.1,13.93-10.22,10.52-33.74,10.52-33.74s2.46,3.06,6.08,8.3l-1-.57L324.39,227,341,211.94l-.56,25.7,11.74-13.56,5.81,23.23,3.39-8.12A95.22,95.22,0,0,1,364,253.58" transform="translate(-40.58 -15.55)"/><path class="cls-3" d="M426.37,344.72s-1.78-.84-4.5-2.4c-.69-.4-1.45-.85-2.25-1.35-1.1-.66-2.3-1.43-3.57-2.27-.68-.46-1.4-.95-2.11-1.46-1.08-.77-2.19-1.6-3.31-2.47-.66-.51-1.31-1-1.95-1.6-1-.86-2.05-1.76-3-2.71l-.78-.74c-.33-.34-.65-.68-.95-1a20,20,0,0,1-2.32-3.32,19.47,19.47,0,0,1-1.11-2.3,28.68,28.68,0,0,1-1.39-4.1c-.23-.91-.43-1.83-.59-2.74a43.84,43.84,0,0,1-.61-4.75c-.07-1.1-.11-2.15-.12-3.13a50.62,50.62,0,0,1,.36-7.11,53.31,53.31,0,0,1,4.78,2.79q1,.64,2.13,1.44c1,.74,2.16,1.58,3.28,2.5.64.52,1.27,1.06,1.9,1.63,1,.89,2,1.86,2.87,2.86.55.6,1.08,1.24,1.59,1.89.31.4.62.81.9,1.23.49.7,1,1.41,1.39,2.11s.89,1.43,1.29,2.15c.7,1.22,1.33,2.44,1.92,3.65.38.78.74,1.56,1.06,2.34.59,1.33,1.11,2.66,1.57,3.95.31.85.6,1.69.87,2.51.47,1.51.87,2.93,1.2,4.25.25,1,.45,1.89.62,2.72a51.91,51.91,0,0,1,.87,5.46" transform="translate(-40.58 -15.55)"/><path class="cls-3" d="M249,57.67a96.22,96.22,0,0,1-1.68,18.89,73.92,73.92,0,0,1-2.62,9.87c-.34,1-.7,2-1.07,2.95a75.76,75.76,0,0,1-4.87,10.27c-.46.83-.94,1.63-1.42,2.4a74.15,74.15,0,0,1-6.08,8.51c-.63.75-1.21,1.42-1.73,2-1.42,1.58-2.33,2.4-2.33,2.4A55.27,55.27,0,0,1,218,97.84c-.31-.88-.59-1.78-.87-2.72a55.69,55.69,0,0,1-2-10.51c-.1-1-.18-2-.21-3a56.84,56.84,0,0,1,.56-11c.08-.49.15-1,.24-1.47.21-1.22.46-2.43.74-3.59A56,56,0,0,1,223.34,49a57.61,57.61,0,0,1,10.91-12.81c.67-.58,1.34-1.14,2-1.63a48,48,0,0,1,8.19-5.4l.48-.24s.2.59.5,1.68A107.3,107.3,0,0,1,248.89,53c.07,1.51.12,3.09.13,4.69" transform="translate(-40.58 -15.55)"/><path class="cls-3" d="M270.24,37.88S292,62.75,289.42,88c-3.09,30.95-19.18,46.43-43.63,70-36.07,34.7-39.92,89.28-22,134,19.23,47.92,55.08,71.49,85.1,94.08s43.72,40.18,48.28,50.13a58,58,0,0,1,5.16,28.37s-8.87-20.94-38.58-39.82c-23.34-14.83-54.47-28.16-81.08-53.85-30.71-29.63-52.3-67.46-54.16-112.34s5.43-61.33,26.05-91.6c25.93-38.06,51.35-56.75,55.65-80.46,5.33-29.4,0-48.59,0-48.59" transform="translate(-40.58 -15.55)"/><path class="cls-4" d="M270.24,37.88S292,62.75,289.42,88c-3.09,30.95-19.18,46.43-43.63,70-36.07,34.7-39.92,89.28-22,134,19.23,47.92,55.08,71.49,85.1,94.08s43.72,40.18,48.28,50.13a58,58,0,0,1,5.16,28.37s-8.87-20.94-38.58-39.82c-23.34-14.83-54.47-28.16-81.08-53.85-30.71-29.63-52.3-67.46-54.16-112.34s5.43-61.33,26.05-91.6c25.93-38.06,51.35-56.75,55.65-80.46C275.57,57.07,270.24,37.88,270.24,37.88Z" transform="translate(-40.58 -15.55)"/><path class="cls-3" d="M122,204.08c-.14.2-1.69,2.24-3.94,5.86l-.79,1.26c-1.37,2.25-3,5-4.64,8.23l-.65,1.3c-1.3,2.56-2.65,5.39-4,8.44-.19.44-.38.88-.56,1.33-1.09,2.59-2.17,5.33-3.2,8.23l-.15.42c-.16.46-.31.9-.45,1.36a84.41,84.41,0,0,0-2.31,9c-.09.48-.19.95-.28,1.42-.67,3.63-1,6.77-1.24,8.91-.17,1.85-.22,2.94-.22,2.94s-.4-.06-1.09-.11a24.94,24.94,0,0,0-8.89,1.15c-1,.3-1.83.63-2.64,1-.52.24-1,.47-1.47.71a17.55,17.55,0,0,0-6.11,4.94,11.17,11.17,0,0,0-.83,1.24,1.11,1.11,0,0,0-.09.18,1.76,1.76,0,0,1,0-.22c0-.27,0-.79,0-1.52a58.35,58.35,0,0,1,.7-9.5c.08-.47.15-.94.24-1.43.38-2.24.92-4.72,1.65-7.38a79.86,79.86,0,0,1,8.2-19.25c.78-1.34,1.6-2.61,2.42-3.82a68,68,0,0,1,5.63-7.21c.36-.4.7-.78,1.07-1.16a65.33,65.33,0,0,1,7.87-7.19c.58-.46,1.15-.9,1.7-1.3l0,0c1.83-1.33,3.57-2.47,5.17-3.42.49-.3,1-.59,1.45-.85a47.14,47.14,0,0,1,7.46-3.49" transform="translate(-40.58 -15.55)"/><path class="cls-3" d="M283.09,438.44s-.47.89-1.53,2.47a71.5,71.5,0,0,1-5.24,6.75c-1.08,1.25-2.31,2.6-3.7,4l-.05.06c-.85.87-1.68,1.68-2.5,2.42a39,39,0,0,1-10,6.92,83.13,83.13,0,0,1-11.92-7.56c-.84-.64-1.73-1.29-2.66-2-4.12-3.14-9-7.21-14.64-12.38-.91-.84-1.84-1.71-2.78-2.6-3.92-3.73-8.14-8-12.62-12.81-.78-.83-1.56-1.68-2.35-2.55q-5.28-5.79-11-12.66c-.69-.83-1.39-1.67-2.08-2.53-2.71-3.31-5.5-6.82-8.33-10.52l-1.19-1.57c-.73-1-1.45-1.93-2.15-2.91q-4.06-5.55-7.86-11.43c-.56-.86-1.12-1.71-1.66-2.58q-3.59-5.72-6.88-11.66c-.52-.94-1-1.88-1.55-2.82q-3-5.49-5.61-11.13c-.61-1.28-1.2-2.57-1.77-3.85q-2.44-5.43-4.6-11c-.35-.92-.7-1.82-1-2.74q-2-5.37-3.71-10.79l-1-3.18q-1.6-5.5-2.89-11.05c-.23-1-.44-1.95-.64-2.93-.78-3.59-1.42-7.16-1.95-10.76-.14-.94-.27-1.89-.39-2.83q-.69-5.23-1-10.44c0-.63-.08-1.26-.11-1.89q-.23-4.54-.15-9c0-.21,0-.42,0-.63,0-.69,0-1.38.06-2.07.11-3.13.34-6.24.65-9.28.08-.8.17-1.61.27-2.4.32-2.74.73-5.42,1.19-8.07.13-.78.27-1.56.42-2.33.47-2.46,1-4.88,1.54-7.24.15-.67.31-1.34.49-2v-.05c.47-1.94,1-3.82,1.51-5.67.19-.62.36-1.24.55-1.86v-.07c.39-1.34.8-2.66,1.21-3.95.11-.3.2-.6.3-.88.49-1.51,1-3,1.5-4.42.17-.48.34-.94.5-1.43h0c.42-1.16.84-2.3,1.27-3.43.2-.49.39-1,.57-1.46l0,0c.33-.84.66-1.68,1-2.5.17-.39.32-.8.49-1.19l0-.06.93-2.23,1-2.3,0-.08c.12-.25.23-.54.36-.78a164.81,164.81,0,0,1,11.53-21.69A130.56,130.56,0,0,0,167.28,200l0,.1-.52,2,0,.13c-.21.8-.41,1.63-.62,2.48-.07.28-.13.54-.19.82h0a6.06,6.06,0,0,1,.1,1.88,1.06,1.06,0,0,1,0,.19c-.24,1.05-1,3.23-1,3.23h0l.89.2v0a19.51,19.51,0,0,0-1.4,3.56c0,.15-.38.44-.38.44v0c-.23,1.25-.45,2.54-.67,3.84s-.39,2.42-.57,3.69l0,.08c-.07.45-.13.89-.2,1.35-.21,1.5-.4,3-.59,4.59,0,.27,0,.53-.09.8-.17,1.67-.34,3.36-.49,5.11,0,.43-.08.87-.11,1.31-.15,1.93-.28,3.9-.37,5.92l-.12,2.32c-.08,2.41-.13,4.86-.13,7.36,0,.69,0,1.4,0,2.1,0,2.65.1,5.35.25,8.11,0,.72.07,1.45.12,2.18.19,3,.44,6.1.79,9.24,0,.45.09.91.15,1.37.36,3.14.81,6.32,1.35,9.57.06.39.13.8.2,1.21q.87,5.07,2.06,10.27c.14.66.29,1.32.45,2,0,.24.1.46.17.7q1.22,5.09,2.66,9.89c.17.6.36,1.21.54,1.82,1.14,3.72,2.37,7.33,3.68,10.8.18.49.37,1,.55,1.45,1.4,3.63,2.89,7.12,4.46,10.5.29.64.6,1.29.89,1.92,1.75,3.64,3.59,7.14,5.54,10.53.39.72.81,1.44,1.22,2.14,2.14,3.62,4.38,7.1,6.71,10.48.51.7,1,1.41,1.51,2.11,2.62,3.69,5.38,7.24,8.26,10.71.36.45.73.88,1.11,1.32q4.46,5.3,9.27,10.32l1.95,2q5.31,5.46,11,10.74c.57.51,1.14,1,1.71,1.57,2.3,2.1,4.64,4.21,7,6.3,1.86,1.63,3.7,3.22,5.53,4.75l1.66,1.39c4.89,4.05,9.64,7.75,14.09,11,1,.77,2,1.51,3,2.23,6.18,4.49,11.64,8.14,15.83,10.84l2.82,1.8c3.81,2.37,6,3.64,6,3.64" transform="translate(-40.58 -15.55)"/><path class="cls-3" d="M80.85,319.29S73.42,323,69.71,329.1c-3.42,5.59-4,14.54-4,14.54l-3-9.08c-.32-1-.65-2-1-3-.53-1.61-1.08-3.28-1.61-4.92-.33-1-.67-2-1-3-.52-1.59-1-3.12-1.44-4.5,0-.15-.09-.3-.14-.45-.32-1-.62-2.05-.92-3.13-.48-1.72-.92-3.5-1.35-5.3-.27-1.12-.51-2.26-.76-3.38-1.86-8.51-3-16.24-3-16.24A56.55,56.55,0,0,0,57.65,302c.49.7,1,1.42,1.57,2.14.82,1.07,1.72,2.15,2.7,3.22.54.62,1.13,1.23,1.74,1.84.45.45.92.89,1.4,1.34s1.08,1,1.63,1.4,1.32,1,2,1.49a36,36,0,0,0,3.39,2.17c.75.43,1.49.82,2.19,1.16a33.5,33.5,0,0,0,6.6,2.54" transform="translate(-40.58 -15.55)"/><path d="M115,209l-.49-1.4c-.47.26-1,.55-1.45.85l.25.68-5.42,2.74,0,0c-.55.4-1.12.84-1.7,1.3l.68.22,1.95,5.49-5.85,3-4.64-1.49c-.38.38-.72.77-1.08,1.16l5.11,1.65,2,5.5-5.87,3-7.13-2.29.29-.61c-.82,1.21-1.64,2.48-2.42,3.82A80.33,80.33,0,0,0,81,251.79l.73-1.58,7.14,2.31,2,5.48L85,261l-5.62-1.8c-.09.49-.16,1-.24,1.43l5.24,1.7,1.15,3.18c.46-.25,1-.47,1.47-.71L86,262.18l5.89-3,7.1,2.29-.53,1.16c.69.05,1.09.11,1.09.11s0-1.09.22-2.94l-.17.38-7.12-2.32-2-5.5,5.87-2.95,4.63,1.48c.09-.47.19-.94.28-1.42L97,248.1l-2-5.5,5.86-3,2.72.88c.15-.46.3-.9.46-1.36l-2.56-.83-2-5.51,5.87-2.95,2,.64c.18-.45.37-.89.56-1.33l-2-.63-2-5.51,5.86-3,2,.67.65-1.3-2.09-.67-2-5.5,5.87-3,2.83.92.78-1.26ZM95.33,248.22l-5.87,3L82,248.46l3.22-8.27,8.14,2.54Zm4.49-9.78-5.86,3-8.13-2.53,4.92-8.24,7.12,2.3Z" transform="translate(-40.58 -15.55)"/><path d="M405,305.46l-7.15,6c-.07-1.1-.11-2.15-.12-3.13l5.14-4.32c.67.43,1.38.91,2.13,1.43" transform="translate(-40.58 -15.55)"/><path d="M410.22,309.6,399.09,319c-.23-.91-.43-1.83-.59-2.74l9.82-8.26c.64.51,1.27,1.06,1.9,1.63" transform="translate(-40.58 -15.55)"/><path d="M414.68,314.35l-13.09,11a19.47,19.47,0,0,1-1.11-2.3l12.61-10.61c.55.6,1.08,1.24,1.59,1.89" transform="translate(-40.58 -15.55)"/><path d="M418.26,319.84l-12.62,10.62-.78-.74c-.33-.34-.65-.68-.95-1l13.06-11c.46.72.89,1.43,1.29,2.15" transform="translate(-40.58 -15.55)"/><path d="M421.24,325.83l-10.61,8.93q-1-.75-1.95-1.59l11.5-9.68c.38.78.74,1.56,1.06,2.34" transform="translate(-40.58 -15.55)"/><path d="M423.68,332.29l-7.63,6.41c-.68-.46-1.4-.95-2.11-1.46l8.87-7.46c.31.85.6,1.69.87,2.51" transform="translate(-40.58 -15.55)"/><path d="M425.5,339.26l-3.63,3.06c-.69-.4-1.45-.85-2.25-1.35l5.26-4.43c.25,1,.45,1.89.62,2.72" transform="translate(-40.58 -15.55)"/><path d="M59.22,304.13l-4,6.11c-.27-1.12-.51-2.26-.76-3.38L57.65,302c.49.7,1,1.42,1.57,2.14" transform="translate(-40.58 -15.55)"/><path d="M63.66,309.19l-6.16,9.48c-.32-1-.62-2.05-.92-3.13l5.34-8.19c.54.62,1.13,1.23,1.74,1.84" transform="translate(-40.58 -15.55)"/><path d="M68.67,313.42l-8.61,13.21c-.33-1-.67-2-1-3l7.61-11.69c.65.53,1.32,1,2,1.49" transform="translate(-40.58 -15.55)"/><path d="M74.25,316.75,62.66,334.56c-.32-1-.65-2-1-3l10.39-16c.75.43,1.49.82,2.19,1.16" transform="translate(-40.58 -15.55)"/><polygon points="318.23 436.94 308.42 430.13 310.7 421.97 318.65 425.08 318.23 436.94"/><polygon class="cls-3" points="317.3 435.41 309.27 429.63 311.04 422.99 317.46 425.59 317.3 435.41"/><line class="cls-5" x1="317.91" y1="436.3" x2="319.51" y2="439.46"/><polygon points="313.56 427.5 298.72 420.63 299.87 409.09 311.33 411.41 313.56 427.5"/><polygon class="cls-3" points="312.17 425.61 299.98 419.71 300.8 410.34 310.07 412.33 312.17 425.61"/><line class="cls-6" x1="312.97" y1="426.71" x2="315.87" y2="430.6"/><polygon points="304.78 416.51 284.44 410.62 283.65 395.62 298.77 396.35 304.78 416.51"/><polygon class="cls-3" points="302.62 414.36 285.87 409.19 285.08 397.04 297.34 397.77 302.62 414.36"/><line class="cls-7" x1="303.86" y1="415.61" x2="308.34" y2="420.02"/><polygon points="293.04 405.64 270.53 400.66 268.62 384.42 285.11 384.15 293.04 405.64"/><polygon class="cls-3" points="290.55 403.78 271.98 399.33 270.28 386.19 283.65 386.13 290.55 403.78"/><line class="cls-8" x1="291.99" y1="405.08" x2="297.15" y2="409.57"/><polygon points="279.27 395.1 253.62 391 250.39 372.86 268.92 371.46 279.27 395.1"/><polygon class="cls-3" points="276.32 392.81 255.14 389.04 252.35 374.37 267.39 373.41 276.32 392.81"/><line class="cls-9" x1="278.03" y1="394.14" x2="284.14" y2="398.85"/><polygon points="261.73 382.87 232.03 378.72 227.9 357.86 249.24 355.83 261.73 382.87"/><polygon class="cls-3" points="258.27 380.3 233.75 376.43 230.2 359.56 247.52 358.12 258.27 380.3"/><line class="cls-10" x1="260.26" y1="381.79" x2="267.43" y2="387.09"/><polygon points="243.01 368.94 211.65 364.46 207.35 342.41 229.91 340.33 243.01 368.94"/><polygon class="cls-3" points="239.38 366.21 213.47 362.05 209.78 344.21 228.09 342.74 239.38 366.21"/><line class="cls-11" x1="241.48" y1="367.8" x2="249.03" y2="373.41"/><polygon points="221.51 352.9 191.54 344.65 190.09 322.65 212.31 323.43 221.51 352.9"/><polygon class="cls-3" points="218.3 349.79 193.61 342.53 192.23 324.71 210.24 325.55 218.3 349.79"/><line class="cls-12" x1="220.15" y1="351.6" x2="226.8" y2="358"/><polygon points="202.56 335 174.71 322.54 176.56 300.99 198 305.03 202.56 335"/><polygon class="cls-3" points="199.91 331.5 177.03 320.79 178.33 303.3 195.68 306.79 199.91 331.5"/><line class="cls-13" x1="201.43" y1="333.53" x2="206.94" y2="340.72"/><polygon points="185.89 314.94 160.12 297.66 165.7 276.37 186.48 284.13 185.89 314.94"/><polygon class="cls-3" points="183.72 310.98 162.64 296.3 166.96 279 183.74 285.48 183.72 310.98"/><line class="cls-14" x1="185.01" y1="313.27" x2="189.29" y2="321.44"/><polygon points="172.82 289.64 151.34 269.66 159.73 250.61 177.98 260.96 172.82 289.64"/><polygon class="cls-3" points="171.5 285.64 154.01 268.78 160.62 253.27 175.32 261.83 171.5 285.64"/><line class="cls-15" x1="172.26" y1="287.96" x2="175.03" y2="296.22"/><polygon points="164.95 264.13 148.33 243.44 158.31 227.49 173.3 239.13 164.95 264.13"/><polygon class="cls-3" points="164.29 260.37 150.82 243.01 158.77 229.98 170.81 239.56 164.29 260.37"/><line class="cls-16" x1="164.66" y1="262.54" x2="166.07" y2="270.3"/><polygon points="161.13 240.57 147.85 218.38 159.63 204.32 172.54 217.56 161.13 240.57"/><polygon class="cls-3" points="161 236.86 150.32 218.29 159.73 206.78 170.07 217.64 161 236.86"/><line class="cls-17" x1="161.07" y1="239.01" x2="161.39" y2="246.68"/><polygon points="160.95 217.5 151.85 194.76 164.97 183.38 175.06 197.69 160.95 217.5"/><polygon class="cls-3" points="161.38 214.01 154.17 195.05 164.69 185.7 172.74 197.4 161.38 214.01"/><line class="cls-18" x1="161.12" y1="216.03" x2="160.27" y2="223.26"/><polygon points="163.59 196.69 159.32 175.61 172.44 167.84 178.91 181.8 163.59 196.69"/><polygon class="cls-3" points="164.51 193.75 161.27 176.23 171.84 169.8 176.95 181.18 164.51 193.75"/><line class="cls-19" x1="163.97" y1="195.45" x2="162.1" y2="201.56"/><polygon points="169.77 178.35 169.08 158.6 182.16 153.53 185.92 167.16 169.77 178.35"/><polygon class="cls-3" points="171.05 175.82 170.77 159.45 181.32 155.22 184.23 166.31 171.05 175.82"/><line class="cls-20" x1="170.31" y1="177.29" x2="167.69" y2="182.54"/><polygon points="177.9 163.06 179.37 143.85 192.58 140.37 194.74 153.97 177.9 163.06"/><polygon class="cls-3" points="179.41 160.74 180.91 144.86 191.58 141.91 193.2 152.96 179.41 160.74"/><line class="cls-21" x1="178.54" y1="162.08" x2="175.43" y2="166.88"/><polygon points="187.17 148.62 190.81 128.2 205.33 125.88 206.18 140.68 187.17 148.62"/><polygon class="cls-3" points="189.04 146.3 192.34 129.44 204.09 127.43 204.64 139.44 189.04 146.3"/><line class="cls-22" x1="187.96" y1="147.64" x2="184.12" y2="152.45"/><polygon points="198.49 135.3 203.78 112.87 220.05 111.19 220.08 127.67 198.49 135.3"/><polygon class="cls-3" points="201.28 132.84 205.99 114.34 219.16 112.83 219.03 126.19 201.28 132.84"/><line class="cls-8" x1="199.74" y1="134.26" x2="195.18" y2="139.37"/><polygon points="209.15 124.17 212.99 100.86 229.5 98.02 230.68 114.86 209.15 124.17"/><polygon class="cls-3" points="211.24 121.5 214.76 102.26 228.11 99.79 228.91 113.46 211.24 121.5"/><line class="cls-23" x1="210.03" y1="123.04" x2="205.72" y2="128.57"/><polygon points="219.43 110.37 223.03 88.08 238.81 85.3 240 101.41 219.43 110.37"/><polygon class="cls-3" points="221.42 107.82 224.73 89.41 237.49 87.01 238.3 100.08 221.42 107.82"/><line class="cls-24" x1="220.26" y1="109.29" x2="216.16" y2="114.6"/><polygon points="230.24 95.62 229.14 74.89 242.76 69.33 246.97 83.56 230.24 95.62"/><polygon class="cls-3" points="231.53 92.93 230.92 75.75 241.91 71.11 245.18 82.7 231.53 92.93"/><line class="cls-25" x1="230.78" y1="94.48" x2="228.13" y2="100.05"/><polygon points="236.09 80.26 231.37 62.4 242.24 55.08 248.48 66.72 236.09 80.26"/><polygon class="cls-3" points="236.74 77.69 233.08 62.83 241.82 56.79 246.77 66.29 236.74 77.69"/><line class="cls-26" x1="236.36" y1="79.18" x2="235.06" y2="84.5"/><polygon points="239.44 64.94 232.72 51.72 240.01 44.15 246.87 52.23 239.44 64.94"/><polygon class="cls-3" points="239.5 62.81 234.14 51.77 239.97 45.56 245.46 52.18 239.5 62.81"/><line class="cls-27" x1="239.46" y1="64.04" x2="239.34" y2="68.44"/><polygon points="239.15 52.6 232.32 44.38 236.24 37.89 242.35 42.47 239.15 52.6"/><polygon class="cls-3" points="238.86 51.09 233.32 44.19 236.44 38.89 241.35 42.67 238.86 51.09"/><line class="cls-28" x1="239.03" y1="51.97" x2="239.64" y2="55.08"/><polygon points="236.56 41.87 230.97 35.76 233.77 30.59 238.66 33.92 236.56 41.87"/><polygon class="cls-3" points="236.28 40.72 231.74 35.57 233.96 31.36 237.89 34.11 236.28 40.72"/><line class="cls-29" x1="236.44" y1="41.38" x2="237.02" y2="43.77"/><path d="M268,444.25l-12-.18-7.31,9.34A82.77,82.77,0,0,0,260.65,461a39,39,0,0,0,10-6.92Zm-6.1,15.53-7.53-5.91,4.06-5.2,6,.1,1.55,5.79Z" transform="translate(-40.58 -15.55)"/><path d="M277.62,434.8,271,443.31l2.2,8.38c1.39-1.43,2.63-2.78,3.7-4l-.81-3.1,4.07-5.2,2,1.55c1.06-1.58,1.54-2.47,1.54-2.47s-2.23-1.26-6-3.64" transform="translate(-40.58 -15.55)"/><path d="M250.09,431l-12-.16-6.66,8.49c5.59,5.17,10.52,9.24,14.64,12.38l7.1-9.08ZM244,446.48l-7.54-5.9,4.06-5.19,6,.09,1.55,5.79Z" transform="translate(-40.58 -15.55)"/><path d="M259,422.36,253,430l3.06,11.61,12,.18,6.69-8.56c-4.19-2.7-9.65-6.35-15.83-10.85m6.69,14.8-6-.09-1.53-5.81,4.07-5.19,7.54,5.88Z" transform="translate(-40.58 -15.55)"/><path d="M232.83,417.4,221.6,417,216,423.74c4.48,4.83,8.7,9.08,12.63,12.81l6.77-8.21Zm-6.06,14.41-6.91-5.69,3.91-4.77,5.62.22,1.3,5.46Z" transform="translate(-40.58 -15.55)"/><path d="M241.84,408.89l-6.25,7.6,2.59,10.92,11.23.46,6.52-7.94c-4.44-3.29-9.2-7-14.09-11m5.39,14.58-5.62-.22-1.29-5.47,3.92-4.76,6.91,5.68Z" transform="translate(-40.58 -15.55)"/><path d="M218.93,403.53l-10.42-1.15-5.85,6.15q5.72,6.87,11,12.66l6.94-7.31Zm-6.6,13-6.05-5.76,4-4.17,5.21.58.85,5.16Z" transform="translate(-40.58 -15.55)"/><path d="M234.65,402.75c-2.38-2.09-4.72-4.2-7-6.3l-6.08,6.4,1.7,10.35,10.42,1.16,6.51-6.86c-1.83-1.53-3.67-3.12-5.53-4.75m-2.72,7.38-5.22-.59-.84-5.17,4-4.17,6.05,5.74Z" transform="translate(-40.58 -15.55)"/><path d="M206.7,389.92l-9.48-1.68-6.16,5.67,1.19,1.57q4.26,5.55,8.33,10.52l7-6.48Zm-6.84,11.53-5.21-5.65,3.89-3.57,4.74.84.47,4.79Z" transform="translate(-40.58 -15.55)"/><path d="M214.92,384.14l-5.77,5.32.92,9.59,9.48,1.71,6.37-5.88q-5.68-5.29-11-10.74m3.29,12.63-4.74-.85-.46-4.8,3.9-3.59,5.2,5.65Z" transform="translate(-40.58 -15.55)"/><path d="M195.4,377,187,374.83l-5.92,4.74q3.78,5.88,7.86,11.43l6.71-5.36Zm-6.89,9.94-4.32-5.41,3.72-3,4.22,1.05.12,4.35Z" transform="translate(-40.58 -15.55)"/><path d="M203.7,371.82l-6.08,4.87.24,8.68,8.42,2.11,6.69-5.34q-4.8-5-9.27-10.32m1.62,12-4.2-1.06-.13-4.34,3.74-3,4.32,5.4Z" transform="translate(-40.58 -15.55)"/><path d="M177.78,361.67l-5.27,3.66q3.28,5.94,6.88,11.66l6.1-4.24.35-8.48Zm4.54,9.16-3.82,2.68L174.64,368l3.82-2.65,4,1.3Z" transform="translate(-40.58 -15.55)"/><path d="M194.33,359.79,188,364.16l-.34,8.47,8.06,2.62,6.83-4.75c-2.87-3.47-5.63-7-8.26-10.71m.75,11.82-4-1.31.17-4.23,3.83-2.66L198.9,369Z" transform="translate(-40.58 -15.55)"/><path d="M170.76,348.06l-5.41,3.32Q168,357,171,362.51l6.28-3.84.79-7.77Zm3.68,8.68L170.78,359l-3.25-5.31,3.65-2.23,3.63,1.42Z" transform="translate(-40.58 -15.55)"/><path d="M186.11,347.2l-6.06,3.73-.78,7.75,7.25,2.85,6.3-3.85c-2.32-3.38-4.57-6.86-6.71-10.48m0,10.95-3.63-1.43.38-3.88,3.67-2.23,3.24,5.3Z" transform="translate(-40.58 -15.55)"/><path d="M164.41,334l-5.43,2.6q2.15,5.54,4.6,11l6-2.85,1.51-7.31Zm2.65,8.62-3.7,1.76L160.8,339l3.69-1.77,3.31,1.7Z" transform="translate(-40.58 -15.55)"/><path d="M179.35,334.53,173,337.58l-1.5,7.31,6.63,3.42,6.8-3.25c-1.95-3.39-3.79-6.89-5.54-10.53M178,345.05l-3.32-1.71.74-3.65,3.7-1.76,2.56,5.35Z" transform="translate(-40.58 -15.55)"/><path d="M159.89,320.69,154.24,323c1.14,3.61,2.36,7.21,3.7,10.79l6.3-2.58,1.83-6.92Zm2.08,8.4-3.65,1.5-2.16-5.28,3.63-1.49,3.09,1.81Z" transform="translate(-40.58 -15.55)"/><path d="M174,322.11l-6.12,2.52-1.82,6.91,6.18,3.63,6.21-2.56c-1.57-3.38-3.06-6.87-4.45-10.5m-4.76,8.12.92-3.45,3.64-1.5,2.16,5.27-3.64,1.5Z" transform="translate(-40.58 -15.55)"/><path d="M156,307.1l-5.57,1.7c.84,3.69,1.82,7.38,2.88,11.05l6-1.85,2.47-6.73Zm1.28,8.55-3.77,1.15-1.67-5.46,3.76-1.15,2.9,2.09Z" transform="translate(-40.58 -15.55)"/><path d="M169.77,309.86l-6.21,1.9-2.48,6.71,5.82,4.2,6.55-2c-1.31-3.47-2.54-7.08-3.68-10.8m-5.4,7.61,1.24-3.37,3.77-1.14,1.67,5.45-3.76,1.15Z" transform="translate(-40.58 -15.55)"/><path d="M153.61,293.79l-5.82,1.32c.53,3.6,1.17,7.17,2,10.76l6.28-1.41,2.85-6.25Zm.62,8.27-3.7.84-1.19-5.35,3.67-.83,2.63,2.22Z" transform="translate(-40.58 -15.55)"/><path d="M166.57,298.15c-.06-.24-.12-.46-.17-.7l-5.86,1.34L157.7,305l5.26,4.42,6.27-1.42q-1.44-4.82-2.66-9.89m-5.65,6.16,1.42-3.13,3.68-.82,1.21,5.32-3.69.85Z" transform="translate(-40.58 -15.55)"/><path d="M151.77,281l-5.37.88c.21,3.47.55,7,1,10.44l6-1,3.09-5.81Zm.1,7.94-3.56.58-.85-5.17,3.57-.57,2.38,2.26Z" transform="translate(-40.58 -15.55)"/><path d="M163.89,285.21l-5.79.94L155,292l4.76,4.53,6.17-1q-1.19-5.21-2.06-10.27m-5.75,6.24,1.54-2.91,3.56-.57.84,5.16-3.55.59Z" transform="translate(-40.58 -15.55)"/><path d="M151.43,269.77l-5.28.51c0,.21,0,.42,0,.63q-.07,4.5.15,9l6-.57,3.19-5.15Zm-.4,7.31-3.33.32-.45-4.82,3.31-.31,2.05,2.23Z" transform="translate(-40.58 -15.55)"/><path d="M162.34,274.43l-5.42.52-3.19,5.14,4.1,4.46,5.86-.55c-.54-3.25-1-6.43-1.35-9.57M158.68,282l-2.06-2.23,1.6-2.57,3.32-.31.44,4.8Z" transform="translate(-40.58 -15.55)"/><path d="M151.48,258.76l-4.62.17c-.31,3-.54,6.15-.64,9.28l5.59-.21,3.34-4.75Zm-.78,7-3.2.12-.16-4.63,3.18-.11,1.84,2.24Z" transform="translate(-40.58 -15.55)"/><path d="M161.4,263.82l-5,.19-3.33,4.75,3.68,4.49,5.4-.19c-.36-3.14-.61-6.22-.8-9.24m-3.65,7.08-1.84-2.24,1.67-2.38,3.19-.11.16,4.62Z" transform="translate(-40.58 -15.55)"/><path d="M152.33,248.57l-4-.11c-.46,2.65-.87,5.33-1.19,8.07l5,.14,3.17-4Zm-1.07,6-2.79-.07.11-4,2.78.07,1.49,2.07Z" transform="translate(-40.58 -15.55)"/><path d="M161,253.53l-4.64-.11-3.17,4,3,4.14,5.09.12c-.15-2.76-.22-5.46-.25-8.11m-1.09,6-2.79-.07-1.49-2.06,1.58-2,2.8.08Z" transform="translate(-40.58 -15.55)"/><path d="M153.78,239.17l-3.49-.28c-.57,2.36-1.08,4.78-1.55,7.24l4.44.36,3.08-3.44Zm-1.26,5.43-2.53-.22.3-3.66,2.51.21,1.25,1.94Z" transform="translate(-40.58 -15.55)"/><path d="M157.22,243.77l-3.07,3.43,2.47,3.88,4.4.35q0-3.75.14-7.36Zm2.9,5.74-2.53-.2-1.24-1.94,1.54-1.71,2.52.2Z" transform="translate(-40.58 -15.55)"/><path d="M155.59,231.57l-3.26-.39c-.53,1.85-1,3.73-1.5,5.67l0,.05v0l4.05.5,2.6-2.66Zm-1.24,4.34-2-.27.36-2.93,2,.25.93,1.61Z" transform="translate(-40.58 -15.55)"/><path d="M158.16,235.4l-2.59,2.66,1.86,3.22,3.84.47q.15-3,.37-5.92Zm2.14,4.74-2-.25-.93-1.61,1.29-1.33,2,.26Z" transform="translate(-40.58 -15.55)"/><path d="M156.89,225.67l-2.83-.37c-.41,1.29-.81,2.61-1.21,3.95v.07l-.13,1,3.51.47,2.26-2.29Zm-1.07,3.74-1.76-.24.34-2.54,1.74.23.81,1.4Z" transform="translate(-40.58 -15.55)"/><path d="M159.13,229l-2.27,2.29,1.6,2.78,3.29.45c.15-1.75.32-3.44.49-5.11Zm1.82,4.11-1.76-.22-.8-1.4,1.13-1.16,1.76.24Z" transform="translate(-40.58 -15.55)"/><path d="M158.25,220.43l-2.39-.43c-.51,1.43-1,2.91-1.5,4.42l3.07.54,2.13-2Zm-1.13,3.31-1.57-.29.42-2.26,1.56.28.65,1.29Z" transform="translate(-40.58 -15.55)"/><path d="M160.12,223.52,158,225.47l1.31,2.59,3,.55c.19-1.55.39-3.09.59-4.59Zm1.46,3.78L160,227l-.66-1.3,1.07-1L162,225Z" transform="translate(-40.58 -15.55)"/><path d="M159.84,215.64l-2.19-.51c-.43,1.13-.85,2.27-1.27,3.43h0l-.07.3,2.66.62,1.9-1.59Zm-1.08,2.78-1.34-.3.44-1.92,1.33.29.52,1.14Z" transform="translate(-40.58 -15.55)"/><path d="M161.32,218.35l-1.9,1.59,1,2.26,2.65.61,0-.14,0-.08c.18-1.27.37-2.48.57-3.69Zm1.1,3.3-1.32-.31-.53-1.13,1-.79,1.32.29Z" transform="translate(-40.58 -15.55)"/><path d="M161.17,211.65l-1.92-.53c-.33.82-.67,1.66-1,2.5l0,0-.15.56,2.22.62,1.65-1.26Zm-1,2.29-1.11-.3.45-1.6,1.1.31.38,1Z" transform="translate(-40.58 -15.55)"/><path d="M164.51,214.6l-2.2-.61-1.66,1.26.77,1.93,2.21.61ZM162,216.48l-.39-1,.83-.63,1.1.31-.44,1.6Z" transform="translate(-40.58 -15.55)"/><path d="M162.38,208.17l-1.68-.52q-.47,1.09-.93,2.22l0,.06-.12.41,1.92.6,1.47-1.07Zm-.94,2-1-.3.44-1.39,1,.3.31.85Z" transform="translate(-40.58 -15.55)"/><path d="M165.24,210.82l-1.91-.59-1.48,1.06.62,1.72,1.92.58ZM163,212.41l-.32-.86.74-.53,1,.29L164,212.7Z" transform="translate(-40.58 -15.55)"/><path d="M164.13,206.51l-.48-1.49-1.62-.57-.83,2.34,1.62.58Zm-2.17-.12.42-1.16.8.28.24.75-.65.43Z" transform="translate(-40.58 -15.55)"/><path d="M166,207.4l-1.62-.58-1.3.86.47,1.49,1.62.57Zm-2,1.27-.24-.74.65-.43.81.29-.41,1.17Z" transform="translate(-40.58 -15.55)"/><path d="M165.12,203.88l-.38-1.31-1.4-.54-.78,2,1.39.54Zm-1.89-.15.39-1,.69.27.19.65-.58.36Z" transform="translate(-40.58 -15.55)"/><path d="M165.66,204.17l-1.16.72.37,1.29,1.4.55.48-1.23h0c.06-.28.12-.54.2-.82Zm0,1.88-.69-.27-.19-.66.57-.36.71.27Z" transform="translate(-40.58 -15.55)"/><path d="M166,201.44l-.35-1.05-1.14-.39-.57,1.65,1.14.4Zm-1.53-.07.29-.83.57.2.16.53-.45.3Z" transform="translate(-40.58 -15.55)"/><path d="M167.27,202.06l-1.14-.4-.92.61.34,1,1.14.4Zm-1.39.91-.17-.53.46-.3.57.2-.29.83Z" transform="translate(-40.58 -15.55)"/><path d="M166.7,199.4l-.25-.92-1-.38-.56,1.41,1,.38Zm-1.31-.12.28-.7.48.2.13.45-.4.25Z" transform="translate(-40.58 -15.55)"/><path d="M167.82,200l-1-.39-.81.49.25.92,1,.39Zm-1.23.73-.13-.46.41-.24.48.19-.28.7Z" transform="translate(-40.58 -15.55)"/><path d="M354.49,337.48A177.27,177.27,0,0,1,345.73,355c-.64,1.13-1.24,2.13-1.77,3-1.65,2.73-2.69,4.24-2.69,4.24a263.13,263.13,0,0,1-32.74-20.1c-5.26-3.78-10.68-8-15.88-12.59a134.8,134.8,0,0,1-14.72-14.95,0,0,0,0,1,0,0l-1.08-1.32a104.46,104.46,0,0,1-7.44-10.54,111.26,111.26,0,0,1-10.54-22.09h0c-.18-.5-.35-1-.51-1.48A124.88,124.88,0,0,1,253.94,262a7.35,7.35,0,0,0,3.23,3.46,6.65,6.65,0,0,0,9.14-3.28c1-2.36-1-6.37-4.1-5.29s-3,4.69-3,4.69-1.92-5.29,2.17-7.18c4.76-2.22,10.06,2.32,8.75,8.23-1.5,6.7-6.46,8.31-10.23,15.46a14,14,0,0,0-.61,1.3c.59,1.77,3.63,10.05,10.23,11.23,7,1.26,10.73-4.61,11.09-8.16s-3.9-8.28-7.72-5.53-2.12,7.57-2.12,7.57-4.74-6.41,0-10.64c5.59-4.94,14.63-.92,15.24,7.63.63,9.09-4.65,13.35-7.17,23,2.5,3.77,7.37,9.42,13.94,9.52,9.38.15,12.94-8.25,12.65-12.95s-6.81-9.9-11.19-5.53-1.14,10.29-1.14,10.29-7.51-7.32-2.21-13.82c6.2-7.6,18.79-4.3,21.37,6.67,2.23,9.44-1.23,15.58-3.28,24.54.92,1.23,10.95,14.17,22.71,12.14s14.18-13.32,12.72-19.11-10.82-10.73-15.25-4.26,1,13.07,1,13.07-11.08-7.35-6-16.69c5.93-10.92,22.39-9.77,28.21,3.3,4.16,9.36,2.85,16.81,2,25.77" transform="translate(-40.58 -15.55)"/><path d="M248.89,53,236.24,34.54c-.65.49-1.32,1.05-2,1.63L249,57.67c0-1.61-.06-3.18-.13-4.69M227.1,43.4a58.57,58.57,0,0,0-4,5.58l3.09-2.11L231.8,55,216.24,65.62c-.29,1.16-.54,2.37-.75,3.59l17.74-12.15,5.55,8.08L214.69,81.65c0,1,.11,2,.21,3l25.32-17.37,5.54,8.11L216.91,95.12c.28.94.56,1.84.87,2.72l1-.69,10.54,15.39c.52-.56,1.11-1.23,1.74-2L220.9,95.71,229,90.17l8.17,11.89c.48-.78,1-1.58,1.42-2.41l-7.49-10.92,8.1-5.54,4.25,6.19c.38-1,.73-1.95,1.07-2.95l-3.22-4.7,5.06-3.48,1-5.32v0Zm17.81-14.5-.48.24,1,1.44c-.3-1.09-.5-1.68-.5-1.68" transform="translate(-40.58 -15.55)"/><path class="cls-3" d="M443.07,280.41v-.36l.88,1.31h0l-.88,6.25v.13c-.11,2.23-.3,4.49-.56,6.73-.11,1.07-.25,2.13-.4,3.18-.09.68-.19,1.35-.29,2s-.23,1.38-.34,2-.23,1.33-.34,2c-.25,1.29-.5,2.56-.76,3.76-.13.65-.26,1.3-.4,1.92s-.29,1.31-.43,1.92-.3,1.28-.44,1.88c-1.13,4.68-2.06,7.71-2.06,7.71a95.46,95.46,0,0,0-1-10.71c-.13-.88-.28-1.81-.44-2.76s-.34-1.9-.54-2.89-.42-2-.65-3c-.48-2-1.06-4.15-1.73-6.24-.39-1.19-.81-2.39-1.27-3.57-.54-1.4-1.13-2.78-1.78-4.13a43.91,43.91,0,0,0-3-5.23,34.28,34.28,0,0,0-3.14-4.13c-12.4-13.9-20.4-17.59-20.4-17.59a66,66,0,0,0-.06-13.28c-.09-.94-.19-1.91-.32-2.92-.14-1.17-.33-2.37-.55-3.61,0-.13-.05-.27-.08-.4-.3-1.68-.66-3.37-1.06-5s-.89-3.48-1.36-5.14c-.6-2.09-1.2-4.06-1.77-5.81-1.37-4.23-2.49-7.13-2.49-7.13s9,3.41,19.79,17S435.14,258,435.14,258s.3-.94.65-2.52c.14-.58.27-1.24.4-2s.22-1.34.32-2.06.17-1.38.24-2.11c0-.4.05-.79.08-1.2.37-6.6-.43-17.43-.43-17.43a164.54,164.54,0,0,1,4.89,23.21h0a20.76,20.76,0,0,1,.7,2.7c.11.89.19,2.73.19,2.73h0l.89,2.62h0v4.75h0q.24,3.34.37,6.89c.07,2.1.12,4.24.12,6.41" transform="translate(-40.58 -15.55)"/><polygon points="381.57 243.46 374.68 236.24 381.9 229.35 381.57 243.46"/><polygon points="395.68 243.79 381.57 243.46 388.79 236.57 395.68 243.79"/><polygon points="388.45 250.68 381.24 257.57 381.57 243.46 388.45 250.68"/><polygon points="381.57 243.46 374.35 250.35 367.46 243.13 381.57 243.46"/><path d="M408.7,230.46l-.32,14.11-3.9-4.09c-.29-1.66-.63-3.36-1-5Z" transform="translate(-40.58 -15.55)"/><polygon points="381.9 229.35 367.79 229.02 375.01 222.13 381.9 229.35"/><polygon points="374.68 236.24 367.46 243.13 367.79 229.02 374.68 236.24"/><path d="M408.38,244.57l-3,2.85c-.09-.94-.18-1.91-.31-2.92Z" transform="translate(-40.58 -15.55)"/><path d="M408.7,230.46l-6.53-.15c-.56-2.09-1.13-4.06-1.68-5.81l1.33-1.26Z" transform="translate(-40.58 -15.55)"/><polygon points="395.35 257.91 388.46 250.68 395.68 243.79 395.35 257.91"/><path d="M443.36,273.62l-7.43-.17,7.06-6.72q.24,3.34.37,6.89" transform="translate(-40.58 -15.55)"/><polygon points="402.23 265.13 395.02 272.01 395.35 257.91 402.23 265.13"/><polygon points="395.35 257.91 388.12 264.79 381.24 257.57 395.35 257.91"/><path d="M443.48,280.05c0,.43,0,.86,0,1.31l-.66-.68Z" transform="translate(-40.58 -15.55)"/><path d="M443.33,287.75c-.09,2.23-.28,4.49-.53,6.73l-.32.31-6.88-7.23Z" transform="translate(-40.58 -15.55)"/><path d="M442.43,297.66c-.09.68-.18,1.35-.28,2l-11.55-12a45.88,45.88,0,0,0-2.8-5.23Z" transform="translate(-40.58 -15.55)"/><path d="M441.82,301.72c-.09.67-.21,1.33-.32,2l-8-8.36c-.37-1.19-.77-2.39-1.2-3.57Z" transform="translate(-40.58 -15.55)"/><path d="M440.79,307.47c-.13.65-.25,1.3-.39,1.92l-4.64-4.85c-.19-1-.4-2-.62-3Z" transform="translate(-40.58 -15.55)"/><path d="M440,311.31c-.15.65-.28,1.28-.42,1.88l-2.88-3c-.13-.88-.26-1.81-.42-2.76Z" transform="translate(-40.58 -15.55)"/><path d="M441.63,256.6l-4.88-5.18c.09-.67.16-1.38.22-2.11l4.32,4.58h0c.11.88.23,1.77.34,2.7" transform="translate(-40.58 -15.55)"/><path d="M442.45,262l-6.15-6.52c.12-.58.25-1.24.37-2l5.51,5.85h0c.1.85.18,1.73.27,2.62" transform="translate(-40.58 -15.55)"/><path d="M186.05,425.88s-4.59,5.22-8.58,9.93h0c-2,2.33-3.82,4.55-4.87,5.92a180.67,180.67,0,0,0-12.71,19.45,29.55,29.55,0,0,1-2-4.54c-.21-.52-.41-1.08-.6-1.69a57.22,57.22,0,0,1-2-7.82h0c-.12-.6-.23-1.2-.33-1.85a72.82,72.82,0,0,1-.9-9c0-.77-.07-1.54-.08-2.34,0-1.67,0-3.42.09-5.24,0-.61.06-1.23.11-1.87,0-.32,0-.64.05-1a74.56,74.56,0,0,1,1-7.61c.12-.63.24-1.26.37-1.88.57-2.72,1.24-5.3,1.95-7.67l.49-1.57c.89-2.78,1.79-5.21,2.55-7.13v0c.23-.58.46-1.11.66-1.6.81-1.94,1.35-3,1.35-3l15.54,20.19Z" transform="translate(-40.58 -15.55)"/><path class="cls-3" d="M185.73,424.71l-4.51,5.47-23.39-23.75c.92-2.87,1.85-5.39,2.64-7.38Z" transform="translate(-40.58 -15.55)"/><path class="cls-3" d="M178.61,415.12l-17.46-17.74c.84-2,1.4-3.15,1.4-3.15Z" transform="translate(-40.58 -15.55)"/><path class="cls-3" d="M174.62,425.17,169.88,430,155.3,416c.6-2.81,1.29-5.48,2-7.93Z" transform="translate(-40.58 -15.55)"/><path class="cls-3" d="M162.42,425.45l-5,5-3.61-3.63c0-.33,0-.66.06-1a74.17,74.17,0,0,1,1-7.87Z" transform="translate(-40.58 -15.55)"/><path class="cls-3" d="M180.66,431.06l-23.34,24.81a61.39,61.39,0,0,1-2.08-8.08v0l20.29-21.55Z" transform="translate(-40.58 -15.55)"/><path class="cls-3" d="M178,436.07c-2.06,2.42-3.95,4.71-5,6.13a187.2,187.2,0,0,0-13.15,20.12,31.19,31.19,0,0,1-2.09-4.7Z" transform="translate(-40.58 -15.55)"/><path class="cls-3" d="M168.68,430.92l-14,14.95a73.68,73.68,0,0,1-.94-9.3l9.84-10.47Z" transform="translate(-40.58 -15.55)"/><path class="cls-3" d="M156.37,431.44l-2.75,2.72c0-1.74,0-3.55.09-5.43Z" transform="translate(-40.58 -15.55)"/><path class="cls-3" d="M345.87,355c-.64,1.13-1.24,2.13-1.77,3-10.53-4.78-34.19-16.37-49.11-30.15C275.66,310,266.2,293,265.92,292.45a173.19,173.19,0,0,0,16.5,20.41A181.83,181.83,0,0,0,310.37,337c11.71,7.92,27.37,14.68,35.5,18" transform="translate(-40.58 -15.55)"/><path d="M334.9,226.66l-17.21,12.79,3.69-25.88L295,224.17a104.86,104.86,0,0,0,20.72,16.72c.53.34,1.08.66,1.63,1,.89.53,1.79,1,2.72,1.52a84.08,84.08,0,0,0,17.55,6.8Zm-20.82,9.47L301.2,226l15.18-6.1Zm6.82,5.25L332.14,233,333.76,247Z" transform="translate(-40.58 -15.55)"/><polygon points="275.8 204.39 273.5 220.58 260.62 210.49 275.8 204.39"/><polygon class="cls-3" points="275.8 204.39 273.5 220.58 260.62 210.49 275.8 204.39"/><polygon points="265.2 211.29 272.79 208.24 271.64 216.33 265.2 211.29"/><polygon points="293.18 231.4 280.32 225.83 291.56 217.47 293.18 231.4"/><polygon class="cls-3" points="293.18 231.4 280.32 225.83 291.56 217.47 293.18 231.4"/><polygon points="284.28 225.5 289.9 221.32 290.71 228.28 284.28 225.5"/><path class="cls-3" d="M344.75,201c-.75-1.3-1.51-2.55-2.23-3.76v0l-6.67-3.86-5.09,22.7,10.31-9.38,4.57-4.17c-.28-.52-.58-1-.88-1.51m-3.62,2.49-6.53,5.95,2.54-11.35,4.06,2.35,2,1.16Z" transform="translate(-40.58 -15.55)"/><polygon points="302.61 186.07 300.55 187.95 294.02 193.9 296.56 182.55 300.62 184.9 302.61 186.07"/><path d="M361.33,239.19l-3.39,8.12-5.81-23.23-11.74,13.56.56-25.7L324.39,227l9.44-42.15,1,.57h0c2.22,3.18,4.88,7.18,7.69,11.78l-6.67-3.86-5.09,22.7,10.31-9.38,4.57-4.17c.65,1.1,1.29,2.24,1.92,3.4.48.86.95,1.73,1.42,2.61l-4.09-1.43-.53,20.28,6.68-7.72,2.24-2.58c.39.82.78,1.63,1.15,2.46.1.23.21.44.3.68h0l.16.67,3.86,15.44,1.06-2.53c.58,1.89,1.09,3.69,1.52,5.38" transform="translate(-40.58 -15.55)"/><path class="cls-3" d="M353.27,217.08,351,219.66l-6.68,7.72.53-20.28,4.31,1.43v0c.2.77.61,1.54.89,2.33h0a9,9,0,0,1,1,1.64l-2-.76-2.11-.81-.21,10.23,3.63-4.2,1.84-2.13c.36.73.72,1.48,1.07,2.22" transform="translate(-40.58 -15.55)"/><path d="M352.2,214.86,350.36,217l-3.63,4.2.21-10.23,2.11.81,2,.76c.4.77.78,1.55,1.16,2.33" transform="translate(-40.58 -15.55)"/><path d="M355.79,253.3a102.3,102.3,0,0,1-17.43-2.94l11.33-13.6Z" transform="translate(-40.58 -15.55)"/><polygon class="cls-3" points="301.19 234.95 308.2 226.54 311.98 236.81 301.19 234.95"/><polygon points="304.14 233.97 307.64 229.76 309.53 234.9 304.14 233.97"/></g></g></g></svg>