<svg xmlns="http://www.w3.org/2000/svg" width="42.156" height="28.103" viewBox="0 0 42.156 28.103">
  <g id="clip_icon" data-name="clip icon" transform="translate(0)">
    <g id="Group_60" data-name="Group 60" transform="translate(-108.307 -406.511)">
      <path id="Path_68" data-name="Path 68" d="M145.463,409.511a2,2,0,0,1,2,2v18.1a2,2,0,0,1-2,2H113.307a2,2,0,0,1-2-2v-18.1a2,2,0,0,1,2-2h32.156m0-3H113.307a5,5,0,0,0-5,5v18.1a5,5,0,0,0,5,5h32.156a5,5,0,0,0,5-5v-18.1a5,5,0,0,0-5-5Z" fill="#f2f2f7"/>
    </g>
    <g id="Group_61" data-name="Group 61" transform="translate(-108.307 -406.511)">
      <path id="Path_69" data-name="Path 69" d="M133.653,419.7l-7.755-4.478a1,1,0,0,0-1.5.866v8.955a1,1,0,0,0,1.5.866l7.755-4.477A1,1,0,0,0,133.653,419.7Z" fill="#f2f2f7"/>
    </g>
  </g>
</svg>
