<svg xmlns="http://www.w3.org/2000/svg" width="28.104" height="42.155" viewBox="0 0 28.104 42.155">
  <g id="moments_icon" data-name="moments icon" transform="translate(0)">
    <g id="Group_57" data-name="Group 57" transform="translate(-232.586 -394.094)">
      <path id="Path_65" data-name="Path 65" d="M255.69,397.094a2,2,0,0,1,2,2v32.155a2,2,0,0,1-2,2h-18.1a2,2,0,0,1-2-2V399.094a2,2,0,0,1,2-2h18.1m0-3h-18.1a5,5,0,0,0-5,5v32.155a5,5,0,0,0,5,5h18.1a5,5,0,0,0,5-5V399.094a5,5,0,0,0-5-5Z" fill="#f2f2f7"/>
    </g>
    <g id="Group_59" data-name="Group 59" transform="translate(-232.586 -394.094)">
      <path id="Path_67" data-name="Path 67" d="M252.207,414.3l-7.755-4.477a1,1,0,0,0-1.5.866v8.955a1,1,0,0,0,1.5.866l7.755-4.478A1,1,0,0,0,252.207,414.3Z" fill="#f2f2f7"/>
    </g>
  </g>
</svg>
