<svg xmlns="http://www.w3.org/2000/svg" width="28.104" height="42.156" viewBox="0 0 28.104 42.156">
  <g id="post_icon" data-name="post icon" transform="translate(0)">
    <g id="Group_58" data-name="Group 58" transform="translate(-175.675 -335.845)">
      <path id="Path_66" data-name="Path 66" d="M198.779,338.845a2,2,0,0,1,2,2V373a2,2,0,0,1-2,2h-18.1a2,2,0,0,1-2-2V340.845a2,2,0,0,1,2-2h18.1m0-3h-18.1a5,5,0,0,0-5,5V373a5,5,0,0,0,5,5h18.1a5,5,0,0,0,5-5V340.845a5,5,0,0,0-5-5Z" fill="#f2f2f7"/>
    </g>
    <g id="Group_62" data-name="Group 62" transform="translate(-175.675 -335.845)">
      <path id="Path_70" data-name="Path 70" d="M197.107,361.128H182.872a1.5,1.5,0,0,1,0-3h14.235a1.5,1.5,0,0,1,0,3Z" fill="#f2f2f7"/>
    </g>
    <g id="Group_63" data-name="Group 63" transform="translate(-175.675 -335.845)">
      <path id="Path_71" data-name="Path 71" d="M192.739,368.516h-9.867a1.5,1.5,0,0,1,0-3h9.867a1.5,1.5,0,1,1,0,3Z" fill="#f2f2f7"/>
    </g>
    <g id="Group_64" data-name="Group 64" transform="translate(-175.675 -335.845)">
      <path id="Path_72" data-name="Path 72" d="M195.477,345.951v5.242H184.5v-5.242h10.975m1-3H183.5a2,2,0,0,0-2,2v7.242a2,2,0,0,0,2,2h12.975a2,2,0,0,0,2-2v-7.242a2,2,0,0,0-2-2Z" fill="#f2f2f7"/>
    </g>
  </g>
</svg>
