<svg xmlns="http://www.w3.org/2000/svg" width="31.128" height="20.749" viewBox="0 0 31.128 20.749">
  <g id="clip_icon_reduced" data-name="clip icon_reduced" transform="translate(0 0)">
    <g id="Group_60" data-name="Group 60" transform="translate(-16.434 190.415)">
      <path id="Path_68" data-name="Path 68" d="M43.87-188.2a1.477,1.477,0,0,1,1.477,1.477v13.365a1.477,1.477,0,0,1-1.477,1.477H20.126a1.477,1.477,0,0,1-1.477-1.477v-13.365a1.477,1.477,0,0,1,1.477-1.477H43.87m0-2.215H20.126a3.692,3.692,0,0,0-3.692,3.692v13.365a3.692,3.692,0,0,0,3.692,3.692H43.87a3.692,3.692,0,0,0,3.692-3.692v-13.365A3.692,3.692,0,0,0,43.87-190.415Z" fill="#fff"/>
    </g>
    <g id="Group_61" data-name="Group 61" transform="translate(-16.434 190.415)">
      <path id="Path_69" data-name="Path 69" d="M35.15-180.676l-5.727-3.307a.737.737,0,0,0-1.008.271.734.734,0,0,0-.1.369v6.612a.737.737,0,0,0,.738.738.734.734,0,0,0,.369-.1L35.15-179.4a.739.739,0,0,0,.27-1.009A.744.744,0,0,0,35.15-180.676Z" fill="#fff"/>
    </g>
  </g>
</svg>
