<svg id="live_icon_reduced" data-name="live icon_reduced" xmlns="http://www.w3.org/2000/svg" width="31.13" height="20.75" viewBox="0 0 31.13 20.75">
  <path id="Path_127" data-name="Path 127" d="M120.8-196.322v1.16h-3.93v-5.17h1.46v4.01Z" transform="translate(-110.395 208.122)" fill="#fff"/>
  <rect id="Rectangle_56" data-name="Rectangle 56" width="1.46" height="5.17" transform="translate(11.72 7.79)" fill="#fff"/>
  <path id="Path_128" data-name="Path 128" d="M130.585-200.332l-2.21,5.17h-1.44l-2.21-5.17h1.58l1.4,3.37,1.44-3.37Z" transform="translate(-110.395 208.122)" fill="#fff"/>
  <path id="Path_129" data-name="Path 129" d="M135.775-196.292v1.13h-4.15v-5.17h4.06v1.13h-2.61v.87h2.3v1.1h-2.3v.94Z" transform="translate(-110.395 208.122)" fill="#fff"/>
  <path id="Path_130" data-name="Path 130" d="M137.835-208.122h-23.75a3.687,3.687,0,0,0-3.69,3.69v13.37a3.687,3.687,0,0,0,3.69,3.69h23.75a3.694,3.694,0,0,0,3.69-3.69v-13.37A3.694,3.694,0,0,0,137.835-208.122Zm1.47,17.06a1.481,1.481,0,0,1-1.47,1.48h-23.75a1.481,1.481,0,0,1-1.47-1.48v-13.37a1.472,1.472,0,0,1,1.47-1.47h23.75a1.472,1.472,0,0,1,1.47,1.47Z" transform="translate(-110.395 208.122)" fill="#fff"/>
</svg>
