<svg id="moments_icon_reduced" data-name="moments icon_reduced" xmlns="http://www.w3.org/2000/svg" width="20.748" height="31.127" viewBox="0 0 20.748 31.127">
  <g id="Group_57" data-name="Group 57" transform="translate(-100.751 140.151)">
    <path id="Path_65" data-name="Path 65" d="M117.807-137.936a1.477,1.477,0,0,1,1.477,1.477v23.743a1.477,1.477,0,0,1-1.477,1.477H104.443a1.477,1.477,0,0,1-1.477-1.477v-23.743a1.477,1.477,0,0,1,1.477-1.477h13.364m0-2.215H104.443a3.692,3.692,0,0,0-3.692,3.692v23.743a3.692,3.692,0,0,0,3.692,3.692h13.364a3.692,3.692,0,0,0,3.692-3.692v-23.743A3.692,3.692,0,0,0,117.807-140.151Z" fill="#fff"/>
  </g>
  <g id="Group_59" data-name="Group 59" transform="translate(-100.751 140.151)">
    <path id="Path_67" data-name="Path 67" d="M115.236-125.231l-5.727-3.306a.737.737,0,0,0-1.008.271.734.734,0,0,0-.1.369v6.612a.737.737,0,0,0,.738.738.743.743,0,0,0,.369-.1l5.727-3.307a.739.739,0,0,0,.27-1.009A.744.744,0,0,0,115.236-125.231Z" fill="#fff"/>
  </g>
</svg>
