<svg id="schedule" xmlns="http://www.w3.org/2000/svg" width="31.122" height="20.756" viewBox="0 0 31.122 20.756">
  <path id="Path_132" data-name="Path 132" d="M187.855-208.135H164.117a3.693,3.693,0,0,0-3.692,3.692v13.372a3.693,3.693,0,0,0,3.692,3.692h23.738a3.688,3.688,0,0,0,3.692-3.692v-13.372A3.688,3.688,0,0,0,187.855-208.135Zm1.477,17.064a1.477,1.477,0,0,1-1.477,1.477H164.117a1.482,1.482,0,0,1-1.477-1.477v-9.946h26.692Zm0-12.161H162.64v-1.211a1.481,1.481,0,0,1,1.477-1.476h23.738a1.476,1.476,0,0,1,1.477,1.476Z" transform="translate(-160.425 208.135)" fill="#f2f2f7"/>
  <path id="Path_133" data-name="Path 133" d="M168.687-198.359v.886a.824.824,0,0,1-.827.82h-1.58a.822.822,0,0,1-.819-.82v-.886a.822.822,0,0,1,.819-.819h1.58A.824.824,0,0,1,168.687-198.359Z" transform="translate(-160.425 208.135)" fill="#f2f2f7"/>
  <path id="Path_134" data-name="Path 134" d="M174.631-198.359v.886a.824.824,0,0,1-.827.82h-1.58a.823.823,0,0,1-.82-.82v-.886a.823.823,0,0,1,.82-.819h1.58A.824.824,0,0,1,174.631-198.359Z" transform="translate(-160.425 208.135)" fill="#f2f2f7"/>
  <path id="Path_135" data-name="Path 135" d="M180.568-198.359v.886a.823.823,0,0,1-.82.82h-1.58a.824.824,0,0,1-.827-.82v-.886a.824.824,0,0,1,.827-.819h1.58A.823.823,0,0,1,180.568-198.359Z" transform="translate(-160.425 208.135)" fill="#f2f2f7"/>
  <path id="Path_136" data-name="Path 136" d="M186.512-198.359v.886a.823.823,0,0,1-.82.82h-1.58a.824.824,0,0,1-.827-.82v-.886a.824.824,0,0,1,.827-.819h1.58A.823.823,0,0,1,186.512-198.359Z" transform="translate(-160.425 208.135)" fill="#f2f2f7"/>
  <path id="Path_137" data-name="Path 137" d="M168.687-193.7v.878a.825.825,0,0,1-.827.827h-1.58a.824.824,0,0,1-.819-.827v-.878a.822.822,0,0,1,.819-.82h1.58A.824.824,0,0,1,168.687-193.7Z" transform="translate(-160.425 208.135)" fill="#f2f2f7"/>
  <path id="Path_138" data-name="Path 138" d="M174.631-193.7v.878a.825.825,0,0,1-.827.827h-1.58a.825.825,0,0,1-.82-.827v-.878a.823.823,0,0,1,.82-.82h1.58A.824.824,0,0,1,174.631-193.7Z" transform="translate(-160.425 208.135)" fill="#f2f2f7"/>
  <path id="Path_139" data-name="Path 139" d="M180.568-193.7v.878a.825.825,0,0,1-.82.827h-1.58a.825.825,0,0,1-.827-.827v-.878a.824.824,0,0,1,.827-.82h1.58A.823.823,0,0,1,180.568-193.7Z" transform="translate(-160.425 208.135)" fill="#f2f2f7"/>
  <path id="Path_140" data-name="Path 140" d="M186.512-193.7v.878a.825.825,0,0,1-.82.827h-1.58a.825.825,0,0,1-.827-.827v-.878a.824.824,0,0,1,.827-.82h1.58A.823.823,0,0,1,186.512-193.7Z" transform="translate(-160.425 208.135)" fill="#f2f2f7"/>
</svg>
