<svg xmlns="http://www.w3.org/2000/svg" width="27.199" height="30.5" viewBox="0 0 27.199 30.5">
  <g id="upload_icon_reduced" data-name="upload icon_reduced" transform="translate(0)">
    <path id="Path_121" data-name="Path 121" d="M28.413-127.763a.527.527,0,0,0,.051-.043l4.335-3.716v19.4a1.107,1.107,0,0,0,1.107,1.108,1.108,1.108,0,0,0,1.108-1.108v-19.4l4.334,3.716a1.107,1.107,0,0,0,1.565-.074,1.109,1.109,0,0,0-.074-1.565l-.051-.043-6.162-5.281a1.231,1.231,0,0,0-.118-.066,1.118,1.118,0,0,0-.142-.093c-.026-.012-.052-.02-.079-.031a1.168,1.168,0,0,0-.173-.04,1.2,1.2,0,0,0-.166-.028c-.015,0-.027-.009-.042-.009s-.026.009-.041.009A1.186,1.186,0,0,0,33.7-135a1.274,1.274,0,0,0-.173.04c-.026.011-.053.019-.079.031a1.02,1.02,0,0,0-.142.093.911.911,0,0,0-.118.066l-6.162,5.281a1.108,1.108,0,0,0-.168,1.557A1.106,1.106,0,0,0,28.413-127.763Z" transform="translate(-20.306 135.036)" fill="#fff"/>
    <path id="Path_122" data-name="Path 122" d="M46.4-114.16h0a1.108,1.108,0,0,0-1.108,1.108v5.636a.664.664,0,0,1-.664.665H23.186a.664.664,0,0,1-.664-.665v-5.635a1.108,1.108,0,0,0-1.108-1.108,1.108,1.108,0,0,0-1.108,1.108v5.635a2.881,2.881,0,0,0,2.88,2.88H44.625a2.88,2.88,0,0,0,2.88-2.88v-5.635A1.109,1.109,0,0,0,46.4-114.16Z" transform="translate(-20.306 135.036)" fill="#fff"/>
  </g>
</svg>
