<!-- Generator: Adobe Illustrator 25.2.3, SVG Export Plug-In  -->
<svg version="1.1" xmlns="http://www.w3.org/2000/svg" xmlns:xlink="http://www.w3.org/1999/xlink" x="0px" y="0px" width="26.4px"
	 height="36px" viewBox="0 0 26.4 36" style="overflow:visible;enable-background:new 0 0 26.4 36;" xml:space="preserve">
<style type="text/css">
	.st0{fill:#414042;}
</style>
<defs>
</defs>
<path class="st0" d="M9.6,17.3V4.8h7.2v12.5l-3.2-2.8c-0.1-0.1-0.3-0.1-0.4-0.1c-0.1,0-0.3,0-0.4,0.1L9.6,17.3z M25.8,7.2H18v11.4
	c0,0.2-0.1,0.4-0.3,0.5c-0.1,0-0.2,0.1-0.3,0.1c-0.1,0-0.3,0-0.4-0.1l-3.8-3.3l-3.8,3.3c-0.2,0.2-0.4,0.2-0.6,0.1
	c-0.2-0.1-0.3-0.3-0.3-0.5V7.2H4.2c-1.7,0-3-1.3-3-3s1.3-3,3-3h21.6c0.3,0,0.6-0.3,0.6-0.6S26.1,0,25.8,0H4.2C1.9,0,0,1.9,0,4.2
	v27.6C0,34.1,1.9,36,4.2,36h21.6c0.3,0,0.6-0.3,0.6-0.6V7.8C26.4,7.5,26.1,7.2,25.8,7.2z M24.6,2.4H4.2C3.9,2.4,3.6,2.7,3.6,3
	s0.3,0.6,0.6,0.6H9h8.4h7.2c0.3,0,0.6-0.3,0.6-0.6S24.9,2.4,24.6,2.4z M3.6,5.4C3.6,5.7,3.9,6,4.2,6h4.2V4.8H4.2
	C3.9,4.8,3.6,5.1,3.6,5.4z M24.6,4.8H18V6h6.6c0.3,0,0.6-0.3,0.6-0.6C25.2,5.1,24.9,4.8,24.6,4.8z"/>
</svg>
