<!-- Generator: Adobe Illustrator 25.2.3, SVG Export Plug-In  -->
<svg version="1.1" xmlns="http://www.w3.org/2000/svg" xmlns:xlink="http://www.w3.org/1999/xlink" x="0px" y="0px" width="256px"
	 height="256px" viewBox="0 0 256 256" style="overflow:visible;enable-background:new 0 0 256 256;" xml:space="preserve">
<style type="text/css">
	.st0{fill:#414042;}
</style>
<defs>
</defs>
<path class="st0" d="M240,0H80c-8.8,0-16,7.2-16,16c-8.8,0-16,7.2-16,16c-8.8,0-16,7.2-16,16c-8.8,0-16,7.2-16,16
	C7.2,64,0,71.2,0,80v160c0,8.8,7.2,16,16,16h160c8.8,0,16-7.2,16-16c8.8,0,16-7.2,16-16c8.8,0,16-7.2,16-16c8.8,0,16-7.2,16-16
	c8.8,0,16-7.2,16-16V16C256,7.2,248.8,0,240,0z M128,62.1c0-6.2,6.8-10.1,12.1-6.9l55.4,33.2c5.4,3.2,5.1,11.2-0.5,14l-55.4,27.7
	c-5.3,2.7-11.6-1.2-11.6-7.2V62.1z M72,24h16v16H72V24z M72,56h16v16H72V56z M72,88h16v16H72V88z M72,120h16v16H72V120z M72,152h16
	v16H72V152z M176,248H16c-4.4,0-8-3.6-8-8V80c0-4.4,3.6-8,8-8v152c0,8.8,7.2,16,16,16h152C184,244.4,180.4,248,176,248z M192,232H32
	c-4.4,0-8-3.6-8-8V64c0-4.4,3.6-8,8-8v152c0,8.8,7.2,16,16,16h152C200,228.4,196.4,232,192,232z M208,216H48c-4.4,0-8-3.6-8-8V48
	c0-4.4,3.6-8,8-8v152c0,8.8,7.2,16,16,16h152C216,212.4,212.4,216,208,216z M224,200H64c-4.4,0-8-3.6-8-8V32c0-4.4,3.6-8,8-8v152
	c0,8.8,7.2,16,16,16h152C232,196.4,228.4,200,224,200z M248,168h-16v-16h16V168z M248,136h-16v-16h16V136z M248,104h-16V88h16V104z
	 M248,72h-16V56h16V72z M248,40h-16V24h16V40z"/>
</svg>
