<svg id="Layer_1" data-name="Layer 1" xmlns="http://www.w3.org/2000/svg" viewBox="0 0 660.85 762"><defs><style>.cls-1{fill:#26383f;}</style></defs><g id="NewGroupe0"><g id="NewGroup19-0"><path class="cls-1" d="M416.92,271.67c-6,7.78-11.87,15.73-17.3,23.93-17.26,26.14-21.58,54.48-13.72,84.74.66,2.52,1.09,5.1,2,9.5-47-16.92-90.43-36.37-118.25-78.61-22.45-34.08-18.38-69.43.9-103.12,9.69-16.92,21.94-32.68,34.85-47.38,19.82-22.57,39-45.36,50.88-73.26C366.54,63.35,371,38.84,356.84,14c74.87,22.32,120.91,110.43,97.38,185.74a227,227,0,0,1-37.3,71.93Zm96.9,66.92c19.79-14.95,34-34.18,39.33-58.91,9.42-44.11-7-81.92-30.14-120.5-2.28,49.39-17.58,90.91-46.9,127.89-11,13.86-19.41,30.26-26.54,46.58s-6,33.75,1.16,50.34c21.27-15.25,42.53-29.87,63.09-45.4ZM486.35,631a361.44,361.44,0,0,1-164.81-.38L95.12,576.76a270.46,270.46,0,0,0,45.17,79.15C209,739.57,301.28,771.44,424.6,776c22.38-4.46,63.39-8.92,102-21,92.45-29,162.2-96,193.19-178.35L486.35,631ZM84.85,542.31l243.9,58a330.24,330.24,0,0,0,150.54.34l251-58.44a273.62,273.62,0,0,0,7.09-54c.68-22.13-3.11-23.61-24.62-18-38.18,9.93-76.51,21.55-115.49,25.65C534,502.44,472.1,496,417.82,456.45c-5.24-3.82-17.53-1-25.15,2.09-22.26,9.12-42.89,23.6-65.83,29.47C250.73,507.5,176,497.92,102.89,471.06c-23.15-8.51-27.82-5.49-25.94,19.17a342.83,342.83,0,0,0,7.9,52.08Z" transform="translate(-76.58 -14)"/></g></g></svg>