<!-- Generator: Adobe Illustrator 25.2.3, SVG Export Plug-In  -->
<svg version="1.1" xmlns="http://www.w3.org/2000/svg" xmlns:xlink="http://www.w3.org/1999/xlink" x="0px" y="0px" width="273.2px"
	 height="315px" viewBox="0 0 273.2 315" style="overflow:visible;enable-background:new 0 0 273.2 315;" xml:space="preserve">
<style type="text/css">
	.st0{fill:#26383F;}
</style>
<defs>
</defs>
<path class="st0" d="M140.7,106.5c-2.5,3.2-4.9,6.5-7.2,9.9c-7.1,10.8-8.9,22.5-5.7,35c0.3,1,0.5,2.1,0.8,3.9
	c-19.4-7-37.4-15-48.9-32.5c-9.3-14.1-7.6-28.7,0.4-42.6c4-7,9.1-13.5,14.4-19.6c8.2-9.3,16.1-18.7,21-30.3
	c4.2-10,6.1-20.1,0.2-30.4c31,9.2,50,45.7,40.3,76.8C152.7,87.6,147.6,97.5,140.7,106.5L140.7,106.5z M180.8,134.2
	c8.2-6.2,14.1-14.1,16.3-24.4c3.9-18.2-2.9-33.9-12.5-49.8c-0.9,20.4-7.3,37.6-19.4,52.9c-4.5,5.7-8,12.5-11,19.3
	c-2.9,6.7-2.5,14,0.5,20.8C163.5,146.6,172.2,140.6,180.8,134.2L180.8,134.2z M169.4,255c-11,2.6-22.4,3.9-33.7,3.9
	c-11.6,0-23.2-1.3-34.4-4L7.7,232.6c4.3,11.7,10.4,22.6,18.7,32.7c28.4,34.6,66.5,47.8,117.5,49.6c9.3-1.8,26.2-3.7,42.2-8.7
	c38.2-12,67-39.7,79.9-73.7L169.4,255L169.4,255z M3.4,218.4l100.8,24c20.3,4.8,41.9,4.9,62.2,0.1l103.7-24.2
	c1.7-7.3,2.7-14.7,2.9-22.3c0.3-9.1-1.3-9.8-10.2-7.4c-15.8,4.1-31.6,8.9-47.7,10.6c-26.1,2.7-51.7,0.1-74.2-16.3
	c-2.2-1.6-7.2-0.4-10.4,0.9c-9.2,3.8-17.7,9.8-27.2,12.2c-31.5,8.1-62.4,4.1-92.6-7c-9.6-3.5-11.5-2.3-10.7,7.9
	C0.7,204.2,1.8,211.4,3.4,218.4L3.4,218.4z"/>
</svg>
