<!-- Generator: Adobe Illustrator 25.2.3, SVG Export Plug-In  -->
<svg version="1.1" xmlns="http://www.w3.org/2000/svg" xmlns:xlink="http://www.w3.org/1999/xlink" x="0px" y="0px" width="567.8px"
	 height="699.3px" viewBox="0 0 567.8 699.3" style="overflow:visible;enable-background:new 0 0 567.8 699.3;"
	 xml:space="preserve">
<defs>
</defs>
<path d="M73.6,380.5c0,42.9,10.9,83.3,30.2,118.4l21.5-23l14.1-15.1c-15-29.3-22.9-61.4-22.9-94.6c0-10.1,8.2-18.3,18.3-18.3
	c10.1,0,18.3,8.2,18.3,18.3c0,23,4.7,45.2,13.4,65.7l2.4-2.6l59.7-63.8c-0.7-23,7.6-45.7,23.6-62.8l27.9-29.9
	c16.5-17.7,40-27.8,64.3-27.8c22.4,0,43.8,8.4,60.1,23.7c17.1,16,27,37.8,27.8,61.3c0.8,23.5-7.6,45.9-23.6,63l-27.9,29.9
	c-15.8,16.9-38,26.9-61.2,27.7l-69.5,74.3c36.2,21.6,80.2,34.2,127.5,34.2c10.1,0,18.3,8.2,18.3,18.3c0,10.1-8.2,18.3-18.3,18.3
	c-55.7,0-108.8-15.2-153.1-43.4l-5.1,5.5l-30,32c38,23.9,83,37.7,131.3,37.7c136.4,0,247.1-110.6,247.1-247.1
	c0-78.1-36.3-147.7-92.8-193v-136h50.3c14.1,0,25.7-11.6,25.7-25.7c0-14.1-11.6-25.7-25.7-25.7h-409c-14.1,0-25.7,11.6-25.7,25.7
	c0,14.1,11.6,25.7,25.7,25.7h56V183C112.3,228.1,73.6,299.8,73.6,380.5z M223.6,51.4h199.9v104.4c-31.3-14.4-66.1-22.4-102.8-22.4
	c-34.5,0-67.3,7.1-97.1,19.8V51.4z M6.9,656.1c-3.4,3.6-5.6,8.1-6.4,12.7c-1.6,8.4,1,17.4,7.6,23.6c4.9,4.6,11.2,6.9,17.5,6.9
	c0.1,0,0.3,0,0.4,0h0.1c6.7-0.1,13.3-2.8,18.3-8.1l3-3.2l112.4-120.1l32.9-35.2l2.3-2.4l25.1-26.8l3.3-3.5l14.4-15.4l67.2-71.8
	c17.3,4,36.2-1.1,49.1-14.9l27.9-29.9c19.3-20.6,18.2-53.3-2.4-72.6c-20.6-19.3-53.3-18.2-72.6,2.4L279,327.7
	c-12.9,13.8-16.7,33-11.6,50l-71.7,76.6l-10.5,11.2l-3.3,3.5l-22.3,23.8l-7.6,8.1l-27.7,29.6L51.8,608L6.9,656.1z"/>
</svg>
