<!-- Generator: Adobe Illustrator 25.2.3, SVG Export Plug-In  -->
<svg version="1.1" xmlns="http://www.w3.org/2000/svg" xmlns:xlink="http://www.w3.org/1999/xlink" x="0px" y="0px" width="48.8px"
	 height="55.5px" viewBox="0 0 48.8 55.5" style="overflow:visible;enable-background:new 0 0 48.8 55.5;" xml:space="preserve">
<style type="text/css">
	.st0{fill:#4D4D4D;}
</style>
<defs>
</defs>
<path class="st0" d="M47.1,5l-7.6,9.8c-3.2-4.3-8.4-7.1-14.3-7.1c-5.7,0-10.9,2.6-14.3,7.1L4,5h42.8C46.9,5,47,5,47.1,5z M41.9,25
	c0,9.1-7.5,16.4-16.7,16.4c-0.3,0-0.7,0-1,0c-1.3-0.1-2.6-0.4-3.9-0.8l-1-0.3l4.2-5c0.2-0.2,0.3-0.5,0.2-0.7c0-0.3-0.2-0.5-0.4-0.7
	l-5.8-4.6c-0.2-0.1-0.4-0.2-0.6-0.2c-0.3,0-0.6,0.1-0.8,0.4l-4.4,5.3c-2-2.7-3.2-6.1-3.2-9.7c0,0,0,0,0-0.1c0-2.4,0.7-4.8,1.7-6.9
	l1-2c3-4.5,8.2-7.4,14-7.4C34.4,8.6,41.9,16,41.9,25z M31,25c0-3.1-2.6-5.7-5.8-5.7s-5.8,2.6-5.8,5.7c0,3.1,2.6,5.7,5.8,5.7
	S31,28.2,31,25z M36.3,22.5c-0.1-0.3-0.4-0.4-0.6-0.3c-0.3,0.1-0.4,0.4-0.3,0.6c1,3.2-0.3,8.3-3.9,10.6c-0.2,0.2-0.3,0.5-0.1,0.7
	c0.1,0.1,0.3,0.2,0.4,0.2c0.1,0,0.2,0,0.3-0.1C36,31.7,37.4,26.1,36.3,22.5z M25.2,20.3c-2.7,0-4.8,2.1-4.8,4.7
	c0,2.6,2.2,4.7,4.8,4.7c2.7,0,4.8-2.1,4.8-4.7C30,22.4,27.8,20.3,25.2,20.3z M48.8,2c0-1.1-0.9-2-2-2H3.6c-1.1,0-2,0.9-2,2
	s0.9,2,2,2c0,0,43.2,0,43.2,0C47.9,4,48.8,3.1,48.8,2z M0.7,54.4l0.9,0.7c0.3,0.3,0.8,0.4,1.2,0.4c0.5,0,1.1-0.2,1.4-0.7l10.6-12.7
	l-3.7-3L0.4,51.8C-0.2,52.6-0.1,53.8,0.7,54.4z M16.9,30.1l-6.2,7.5l5.8,4.6l6.2-7.5L16.9,30.1z"/>
</svg>
