<!-- Generator: Adobe Illustrator 25.2.3, SVG Export Plug-In  -->
<svg version="1.1" xmlns="http://www.w3.org/2000/svg" xmlns:xlink="http://www.w3.org/1999/xlink" x="0px" y="0px"
	 width="3443.7px" height="2823.4px" viewBox="0 0 3443.7 2823.4"
	 style="overflow:visible;enable-background:new 0 0 3443.7 2823.4;" xml:space="preserve">
<style type="text/css">
	.st0{fill:#231F20;}
</style>
<defs>
</defs>
<path class="st0" d="M3443.7,1710.1c-352.9-31.6-702.2-1.4-1048.1,90.4c-6-258.4-111.2-480-272.6-641.1
	c-175.7-175.6-418.3-278.7-671.3-278.7c-216.1,0-397,88-527,223.1c-140.3,145.8-220.4,346.7-220.4,550.3
	c0,175.4,70.3,317.9,176.4,419.9c118.3,113.7,281.2,175.8,439.9,175.8c139.1,0,247.8-57.2,324.9-141.8
	c88.5-97.1,133.4-230.8,133.4-352.9c0-172.7-96.1-283.5-212.9-332.4c-47.1-19.8-98.1-29-147.6-27.7c-51.2,1.3-100.9,13.7-143.7,37.3
	c-90.6,49.8-150.4,143.8-133.3,280.6c10.7,85.5,55.4,141.5,110.3,169.9c27.7,14.3,58,21.2,88.1,20.9c30.3-0.2,60.2-7.7,86.8-22
	c52-28,91.6-80.5,97.9-154.2l-167.6-13.8c-0.9,10.7-4.9,17.4-9.9,20.1c-2.7,1.5-5.7,2.2-8.6,2.3c-3.2,0-6.6-0.8-9.9-2.5
	c-9.3-4.8-17.3-17.9-20.2-41.1c-7.2-57.5,14.2-94.9,47.1-113c19.3-10.6,42.5-16.3,66.8-16.9c26.1-0.6,53.5,4.4,79.3,15.2
	c59.8,25.1,109,83.8,109,177.3c0,83.8-30,174.8-89.3,239.8c-47,51.6-114.1,86.6-200.6,86.6c-117.1,0-237.1-45.5-323.5-128.5
	c-74.9-72-124.5-173.4-124.5-299c0-161.1,62.9-319.5,173.1-434c99.8-103.6,239-171.2,406-171.2c208.6,0,408.4,84.9,553,229.4
	c135.8,135.6,222.9,324.5,222.9,545.7c0,271.4-109.1,526.1-291.4,710.3c-175,176.8-417.7,289-696.5,289
	c-338.7,0-651.9-140.4-878.8-371.9C139.3,2225.4,0,1911.8,0,1556.9c0-427.9,174.5-819.3,459.3-1102.5C740.8,174.5,1130.4,0,1566.2,0
	c479.8,0,923.7,185.2,1260.5,494.7C3158.2,799,3386.3,1223.5,3443.7,1710.1z"/>
</svg>
