<svg id="Layer_1" data-name="Layer 1" xmlns="http://www.w3.org/2000/svg" viewBox="0 0 1200 1200"><defs><style>.cls-1{fill:#191919;}</style></defs><path class="cls-1" d="M1184,1045v47.69a28.33,28.33,0,0,1-28.33,28.33H747.82a28.33,28.33,0,0,1-28.33-28.33V853.89a118.29,118.29,0,0,0-118.3-118.3h-2.38a118.29,118.29,0,0,0-118.3,118.3v238.78A28.33,28.33,0,0,1,452.18,1121H44.32A28.33,28.33,0,0,1,16,1092.67V1045a28.33,28.33,0,0,1,28.33-28.33h.57a28.32,28.32,0,0,0,28.32-28.32v-237A28.33,28.33,0,0,1,101.54,723H472.66a54.3,54.3,0,0,0,32.4-10.73c24.81-18.58,58-28.82,93.37-28.82h3.14c35.41,0,68.56,10.24,93.37,28.82A54.3,54.3,0,0,0,727.34,723h371.12a28.33,28.33,0,0,1,28.33,28.33v237a28.32,28.32,0,0,0,28.32,28.32h.57A28.33,28.33,0,0,1,1184,1045ZM24.29,697.72H472.66A28.86,28.86,0,0,0,489.93,692a163.81,163.81,0,0,1,45.76-23.76,195.81,195.81,0,0,1,62.74-10.1h3.14a195.81,195.81,0,0,1,62.74,10.1A163.81,163.81,0,0,1,710.07,692a28.86,28.86,0,0,0,17.27,5.69h448.37a5.11,5.11,0,0,0,4.8-7.34c-22.62-43.86-154.2-277-499.17-499.07a128.22,128.22,0,0,1-49.18-58.42L613.31,87.62c-4.78-11.49-21.84-11.49-26.62,0l-18.85,45.27a128.22,128.22,0,0,1-49.18,58.42c-345,222.1-476.55,455.21-499.17,499.07A5.11,5.11,0,0,0,24.29,697.72Z"/></svg>