<!-- Generator: Adobe Illustrator 25.2.3, SVG Export Plug-In  -->
<svg version="1.1" xmlns="http://www.w3.org/2000/svg" xmlns:xlink="http://www.w3.org/1999/xlink" x="0px" y="0px" width="800px"
	 height="713.7px" viewBox="0 0 800 713.7" style="overflow:visible;enable-background:new 0 0 800 713.7;" xml:space="preserve">
<style type="text/css">
	.st0{fill:#191919;}
</style>
<defs>
</defs>
<path class="st0" d="M800,661.6v32.7c0,10.7-8.7,19.4-19.4,19.4H501.2c-10.7,0-19.4-8.7-19.4-19.4V530.7c0-44.7-36.3-81-81-81h-1.6
	c-44.7,0-81,36.3-81,81v163.6c0,10.7-8.7,19.4-19.4,19.4H19.4C8.7,713.7,0,705,0,694.3v-32.7c0-10.7,8.7-19.4,19.4-19.4h0.4
	c10.7,0,19.4-8.7,19.4-19.4V460.5c0-10.7,8.7-19.4,19.4-19.4h254.2c8,0,15.9-2.6,22.2-7.4c17-12.7,39.7-19.7,64-19.7h2.1
	c24.3,0,47,7,64,19.7c6.3,4.7,14.2,7.4,22.2,7.4h254.2c10.7,0,19.4,8.7,19.4,19.4v162.4c0,10.7,8.7,19.4,19.4,19.4h0.4
	C791.3,642.2,800,650.9,800,661.6z M5.7,423.8h33.5h273.6c4.3,0,8.4-1.3,11.8-3.9c9-6.8,19.6-12.3,31.3-16.3
	c13.1-4.4,27.7-6.9,43-6.9h2.1c15.3,0,29.8,2.5,43,6.9c11.7,4,22.3,9.5,31.3,16.3c3.4,2.5,7.6,3.9,11.8,3.9h273.6h33.5
	c2.7,0,4.5-2.7,3.3-5C782.1,388.7,692,229,455.7,76.9c-15.2-9.8-26.9-23.8-33.7-40l-12.9-31c-3.3-7.9-15-7.9-18.2,0l-12.9,31
	c-6.8,16.3-18.5,30.2-33.7,40C108,229,17.9,388.7,2.4,418.7C1.2,421.1,3,423.8,5.7,423.8z"/>
</svg>
