<!-- Generator: Adobe Illustrator 25.2.3, SVG Export Plug-In  -->
<svg version="1.1" xmlns="http://www.w3.org/2000/svg" xmlns:xlink="http://www.w3.org/1999/xlink" x="0px" y="0px" width="470.2px"
	 height="391.2px" viewBox="0 0 470.2 391.2" style="overflow:visible;enable-background:new 0 0 470.2 391.2;"
	 xml:space="preserve">
<style type="text/css">
	.st0{fill-rule:evenodd;clip-rule:evenodd;}
</style>
<defs>
</defs>
<path class="st0" d="M0,33h127.3v66.5H0V33z M127.3,118.7v196.9H0V118.7H127.3z M127.3,334.8v56.4H0v-56.4H127.3z M127.3,33h127.3
	v66.5H127.3V33z M254.6,118.7v196.9H127.3V118.7H254.6z M254.6,334.8v56.4H127.3v-56.4H254.6z M254.6,33l123-33l17.2,64.2l-123,33
	L254.6,33z M399.7,82.8l51,190.1l-123,32.9l-50.9-190.2L399.7,82.8z M455.7,291.6l14.6,54.5L347.3,379l-14.6-54.5L455.7,291.6z"/>
</svg>
