<!-- Generator: Adobe Illustrator 25.2.3, SVG Export Plug-In  -->
<svg version="1.1" xmlns="http://www.w3.org/2000/svg" xmlns:xlink="http://www.w3.org/1999/xlink" x="0px" y="0px" width="625.5px"
	 height="334.3px" viewBox="0 0 625.5 334.3" style="overflow:visible;enable-background:new 0 0 625.5 334.3;"
	 xml:space="preserve">
<style type="text/css">
	.st0{fill-rule:evenodd;clip-rule:evenodd;}
</style>
<defs>
</defs>
<g id="Layer_2_copy">
	<path class="st0" d="M0,173.9C0,85.3,71.8,13.5,160.4,13.5c33.8,0,65.1,10.4,90.9,28.2C332.9,98,414.7,160.3,495.5,218.4
		c-22.5,12.8-43.2,15.8-61.4,13.4c-22.8-2.9-41.9-14.1-56.3-24.6l-4.9-3.6L320.6,166l0,0.1l-14.9-10.8l-54.3-39.5
		c-12.6-9.2-28.2-22.1-41.4-29.6c-14.7-8.3-31.6-13.1-49.7-13.1c-55.6,0-100.7,45.1-100.7,100.7c0,55.6,45.1,100.7,100.7,100.7
		c39.9,0,74.3-23.1,90.6-56.7l49,35c-27.6,48.6-79.7,81.4-139.6,81.4C71.8,334.3,0,262.5,0,173.9z M465.1,0
		c-59.9,0-112,32.8-139.6,81.4l49,35c16.3-33.6,50.8-56.7,90.6-56.7c55.6,0,100.7,45.1,100.7,100.7c0,55.6-45.1,100.7-100.7,100.7
		c-18.1,0-35-4.8-49.7-13.1c-13.2-7.5-28.8-20.4-41.4-29.6L319.8,179l-14.9-10.8l0,0.1l-52.3-37.7l-4.9-3.6
		c-14.3-10.5-33.4-21.7-56.3-24.6c-18.3-2.3-38.9,0.6-61.4,13.4c80.8,58.1,162.7,120.4,244.2,176.6c25.8,17.8,57.2,28.2,90.9,28.2
		c88.6,0,160.4-71.8,160.4-160.4C625.5,71.8,553.7,0,465.1,0z"/>
</g>
</svg>
