<!-- Generator: Adobe Illustrator 25.2.3, SVG Export Plug-In  -->
<svg version="1.1" xmlns="http://www.w3.org/2000/svg" xmlns:xlink="http://www.w3.org/1999/xlink" x="0px" y="0px" width="335.1px"
	 height="335px" viewBox="0 0 335.1 335" style="overflow:visible;enable-background:new 0 0 335.1 335;" xml:space="preserve">
<style type="text/css">
	.st0{fill-rule:evenodd;clip-rule:evenodd;}
</style>
<defs>
</defs>
<path class="st0" d="M250.4,251.9c-3.7-35.6-17-61.7-44.9-84.6c-10,12.6-18.9,26-28.8,38.6c14.6,12.6,25.8,26.6,28.2,45.3
	c1,47.7-73.6,55.7-74.9-4.8c-14.4,6.8-29.5,9.5-45.3,9.2c1.9,44.1,38.3,79.3,82.8,79.3C213.2,335,250.7,297.7,250.4,251.9
	L250.4,251.9z M186.2,110.3C205.3,94.6,227.5,87,252,84.5c45.8-0.3,83.1,37.3,83.1,82.9c0,44.7-35.4,81-79.4,82.9
	c-1.7-15.9-5.6-31.2-12.5-45.4c67.1-0.3,54.5-75.8,8.1-74.8c-36.5,4.7-58.2,45.9-78.6,72.2c-12.6,16.1-26.8,30.8-45.5,39.6
	C72.2,267.4,0,233.9,0,167.5c0-45,35.5-80.9,79.2-82.8c-0.4,15.8,2.4,31.1,9.3,45.4c-59.8,0-52.7,75.7-4.6,74.7
	c14.9-2.2,26.3-8,35.9-15.7c17.6-14.4,29.2-35.6,42.8-53.4C169.6,126.3,177.1,117.8,186.2,110.3L186.2,110.3z M130.2,83.7
	c3,19.7,12.9,35.8,28.2,48.5c-9.9,11.9-17.7,26.3-28.1,38.5c-29.6-23.7-47.1-49-45.6-87.8C86.4,37.2,121.8,0,167.5,0
	c44.5,0,80.9,35.2,82.8,79.2c-15.8,1.8-31.1,5.6-45.5,12.6C205.3,26.2,129.2,36.2,130.2,83.7z"/>
</svg>
