<!-- Generator: Adobe Illustrator 25.2.3, SVG Export Plug-In  -->
<svg version="1.1" xmlns="http://www.w3.org/2000/svg" xmlns:xlink="http://www.w3.org/1999/xlink" x="0px" y="0px" width="36.6px"
	 height="37.1px" viewBox="0 0 36.6 37.1" style="overflow:visible;enable-background:new 0 0 36.6 37.1;" xml:space="preserve">
<style type="text/css">
	.st0{fill:#414042;}
</style>
<defs>
</defs>
<path class="st0" d="M18.3,22.5c-0.2,0-0.4,0-0.6-0.1c-1.2-0.3-2.1-1.3-2.1-2.6c0-1,1.4-3.9,2.6-6c1.2,2.1,2.6,4.9,2.6,6
	c0,1.3-0.9,2.3-2.1,2.6C18.7,22.4,18.5,22.5,18.3,22.5z M18.9,12.2c0.3,0.5,2.8,4.6,3.3,6.9c0.1-0.3,0.1-0.6,0.1-0.9
	c0-1.8-2.5-6.8-4-9.5c-1.5,2.7-4,7.7-4,9.5c0,0.3,0,0.6,0.1,0.9c0.5-2.3,3-6.4,3.3-6.9C18,11.8,18.6,11.8,18.9,12.2z M36.5,32.1
	l-0.7,2.5c-0.4,1.5-1.7,2.4-3.2,2.4c-0.3,0-0.6,0-0.9-0.1L2.4,28.9c-0.9-0.2-1.6-0.8-2-1.6c-0.4-0.8-0.5-1.7-0.3-2.5l0.7-2.5
	c0.5-1.8,2.3-2.8,4.1-2.3l9,2.5c-2.1-1.4-3.6-3.8-3.6-6.5c0-4.1,7.1-15.2,7.4-15.7c0.2-0.4,0.9-0.4,1.1,0c0.3,0.5,7.4,11.6,7.4,15.7
	c0,2.8-1.5,5.2-3.7,6.6l9.2-2.6c1.8-0.5,3.6,0.6,4.1,2.3l0.7,2.5c0.2,0.8,0.1,1.7-0.3,2.5c-0.1-0.1-0.2-0.2-0.3-0.2l-14.4-4
	c-0.9,0.4-1.8,0.6-2.8,0.6L34.2,28c0.9,0.2,1.6,0.8,2,1.6C36.6,30.4,36.7,31.3,36.5,32.1z M15.6,22.9l3,0.8c0.2,0,0.4,0,0.6-0.1
	c2.5-0.4,4.5-2.7,4.5-5.5c0-2.8-4.2-10.4-4.7-11.2c-0.2-0.4-0.9-0.4-1.1,0C17.3,7.8,13,15.3,13,18.2C13,20.2,14,21.9,15.6,22.9z
	 M17.6,29.5L7.3,26.3c-0.4-0.1-0.7,0.1-0.8,0.4c-0.1,0.3,0.1,0.7,0.4,0.8l10.2,3.2c0.1,0,0.1,0,0.2,0c0.3,0,0.5-0.2,0.6-0.5
	C18.1,29.9,17.9,29.6,17.6,29.5z M30.9,31.2l-6.4-2.1c-0.3-0.1-0.7,0.1-0.8,0.4c-0.1,0.3,0.1,0.7,0.4,0.8l6.4,2.1c0.1,0,0.1,0,0.2,0
	c0.3,0,0.5-0.2,0.6-0.5C31.4,31.7,31.2,31.3,30.9,31.2z M0.4,29.6c-0.4,0.8-0.5,1.7-0.3,2.5l0.7,2.5c0.4,1.5,1.7,2.4,3.2,2.4
	c0.3,0,0.6,0,0.9-0.1L16,33.9L0.4,29.6L0.4,29.6z"/>
</svg>
