<!-- Generator: Adobe Illustrator 25.2.3, SVG Export Plug-In  -->
<svg version="1.1" xmlns="http://www.w3.org/2000/svg" xmlns:xlink="http://www.w3.org/1999/xlink" x="0px" y="0px" width="2200px"
	 height="1237.5px" viewBox="0 0 2200 1237.5" style="overflow:visible;enable-background:new 0 0 2200 1237.5;"
	 xml:space="preserve">
<defs>
</defs>
<path d="M1375,0H171.9C77.3,0,0,77.3,0,171.9v893.8c0,94.5,77.3,171.9,171.9,171.9H1375c94.5,0,171.9-77.3,171.9-171.9V171.9
	C1546.9,77.3,1469.5,0,1375,0z M1082.8,687.5H842.2v240.6c0,38-30.8,68.8-68.8,68.8c-38,0-68.8-30.8-68.8-68.8V687.5H464.1
	c-38,0-68.8-30.8-68.8-68.8s30.8-68.8,68.8-68.8h240.6V309.4c0-38,30.8-68.7,68.8-68.7c38,0,68.8,30.8,68.8,68.7V550h240.6
	c37.9,0,68.8,30.8,68.8,68.8S1120.8,687.5,1082.8,687.5z M2200,68.8v1100c0,38-26.1,52.4-58.3,32.3L1650,893.8v-550l491.7-307.3
	C2173.9,16.3,2200,30.8,2200,68.8z"/>
</svg>
