<!-- Generator: Adobe Illustrator 25.2.3, SVG Export Plug-In  -->
<svg version="1.1" xmlns="http://www.w3.org/2000/svg" xmlns:xlink="http://www.w3.org/1999/xlink" x="0px" y="0px" width="470.8px"
	 height="347.1px" viewBox="0 0 470.8 347.1" style="overflow:visible;enable-background:new 0 0 470.8 347.1;"
	 xml:space="preserve">
<style type="text/css">
	.st0{fill:#231F20;}
</style>
<defs>
</defs>
<path class="st0" d="M440.9,0h-411C13.4,0,0,12.8,0,28.5v290.1c0,15.7,13.4,28.5,29.9,28.5h411c16.5,0,29.9-12.8,29.9-28.5V28.5
	C470.8,12.8,457.4,0,440.9,0z M212.5,32.4c0-4,3.4-7.3,7.7-7.3h30.4c4.2,0,7.7,3.3,7.7,7.3v29c0,4-3.4,7.3-7.7,7.3h-30.4
	c-4.2,0-7.7-3.3-7.7-7.3V32.4z M98.7,314.7c0,4-3.4,7.3-7.7,7.3H60.7c-4.2,0-7.7-3.3-7.7-7.3v-29c0-4,3.4-7.3,7.7-7.3h30.4
	c4.2,0,7.7,3.3,7.7,7.3V314.7z M98.7,61.4c0,4-3.4,7.3-7.7,7.3H60.7c-4.2,0-7.7-3.3-7.7-7.3v-29c0-4,3.4-7.3,7.7-7.3h30.4
	c4.2,0,7.7,3.3,7.7,7.3V61.4z M178.5,314.7c0,4-3.4,7.3-7.7,7.3h-30.4c-4.2,0-7.7-3.3-7.7-7.3v-29c0-4,3.4-7.3,7.7-7.3h30.4
	c4.2,0,7.7,3.3,7.7,7.3V314.7z M178.5,61.4c0,4-3.4,7.3-7.7,7.3h-30.4c-4.2,0-7.7-3.3-7.7-7.3v-29c0-4,3.4-7.3,7.7-7.3h30.4
	c4.2,0,7.7,3.3,7.7,7.3V61.4z M188.8,223.8V123.3c0-11.9,13.5-19.3,24.3-13.4l91.2,50.2c10.8,6,10.8,20.8,0,26.8l-91.2,50.2
	C202.3,243.2,188.8,235.7,188.8,223.8z M258.2,314.7c0,4-3.4,7.3-7.7,7.3h-30.4c-4.2,0-7.7-3.3-7.7-7.3v-29c0-4,3.4-7.3,7.7-7.3
	h30.4c4.2,0,7.7,3.3,7.7,7.3V314.7z M338,314.7c0,4-3.4,7.3-7.7,7.3h-30.4c-4.2,0-7.7-3.3-7.7-7.3v-29c0-4,3.4-7.3,7.7-7.3h30.4
	c4.2,0,7.7,3.3,7.7,7.3V314.7z M338,61.4c0,4-3.4,7.3-7.7,7.3h-30.4c-4.2,0-7.7-3.3-7.7-7.3v-29c0-4,3.4-7.3,7.7-7.3h30.4
	c4.2,0,7.7,3.3,7.7,7.3V61.4z M417.8,314.7c0,4-3.4,7.3-7.7,7.3h-30.4c-4.2,0-7.7-3.3-7.7-7.3v-29c0-4,3.4-7.3,7.7-7.3h30.4
	c4.2,0,7.7,3.3,7.7,7.3V314.7z M417.8,61.4c0,4-3.4,7.3-7.7,7.3h-30.4c-4.2,0-7.7-3.3-7.7-7.3v-29c0-4,3.4-7.3,7.7-7.3h30.4
	c4.2,0,7.7,3.3,7.7,7.3V61.4z"/>
</svg>
