<!-- Generator: Adobe Illustrator 25.2.3, SVG Export Plug-In  -->
<svg version="1.1" xmlns="http://www.w3.org/2000/svg" xmlns:xlink="http://www.w3.org/1999/xlink" x="0px" y="0px" width="428px"
	 height="315.6px" viewBox="0 0 428 315.6" style="overflow:visible;enable-background:new 0 0 428 315.6;" xml:space="preserve">
<style type="text/css">
	.st0{fill:#231F20;}
</style>
<defs>
</defs>
<path class="st0" d="M357.8,0H70.2C31.4,0,0,30,0,67v181.6c0,37,31.4,67,70.2,67h287.6c38.8,0,70.2-30,70.2-67V67
	C428,30,396.5,0,357.8,0z M166.1,97.2c0-12,13.6-19.4,24.4-13.5l91.6,50.5c10.9,6,10.9,20.9,0,26.9l-91.6,50.5
	c-10.9,6-24.4-1.5-24.4-13.5V97.2z M253.6,285.8H52.3c-5.4,0-9.7-4.2-9.7-9.3v-1.8c0-5.1,4.4-9.3,9.7-9.3h201.3
	c-1.5,3.1-2.3,6.5-2.3,10.2C251.2,279.3,252.1,282.7,253.6,285.8z M276.8,288.8c-7.6,0-13.8-5.9-13.8-13.2c0-7.3,6.2-13.2,13.8-13.2
	s13.8,5.9,13.8,13.2C290.6,282.9,284.4,288.8,276.8,288.8z M385.4,276.5c0,5.1-4.4,9.3-9.7,9.3H300c1.5-3.1,2.3-6.5,2.3-10.2
	c0-3.6-0.8-7.1-2.3-10.2h75.6c5.4,0,9.7,4.2,9.7,9.3V276.5z"/>
</svg>
