<svg id="Home" xmlns="http://www.w3.org/2000/svg" width="18.768" height="18.752" viewBox="0 0 18.768 18.752">
  <path id="Path_1" data-name="Path 1" d="M359.771,809.3H342.233a.619.619,0,0,1-.621-.609v-9.52a2.184,2.184,0,0,1,.754-1.622l7.351-6.531a1.977,1.977,0,0,1,2.558,0l7.351,6.531a2.184,2.184,0,0,1,.754,1.622v9.52A.608.608,0,0,1,359.771,809.3Zm-16.941-1.218h16.332V799.17a.957.957,0,0,0-.344-.712l-7.351-6.53a.757.757,0,0,0-.942,0l-7.351,6.53a.957.957,0,0,0-.344.712Z" transform="translate(-341.612 -790.547)" fill="#fff"/>
</svg>
