<svg id="Your_Library" data-name="Your Library" xmlns="http://www.w3.org/2000/svg" width="20.85" height="17.936" viewBox="0 0 20.85 17.936">
  <path id="Path_25" data-name="Path 25" d="M433.7,810.673a.7.7,0,0,1-.46-.178l-8.371-8.36a5.507,5.507,0,0,1,7.79-7.785l1.026,1.031,1.025-1.03a5.507,5.507,0,1,1,7.791,7.784q-4.188,4.18-8.371,8.36A.606.606,0,0,1,433.7,810.673Zm-4.934-16.718a4.287,4.287,0,0,0-3.037,7.318q3.979,3.973,7.956,7.946,3.977-3.973,7.955-7.946a4.289,4.289,0,0,0-6.069-6.061l-1.429,1.436a.609.609,0,0,1-.517.173.6.6,0,0,1-.4-.173L431.8,795.21A4.266,4.266,0,0,0,428.77,793.955Z" transform="translate(-423.263 -792.737)" fill="#fff"/>
</svg>
