<svg id="search_tab_bar" data-name="search_tab bar" xmlns="http://www.w3.org/2000/svg" width="20.518" height="20.119" viewBox="0 0 20.518 20.119">
  <g id="Group_147" data-name="Group 147" transform="translate(-355.068 -873.432)">
    <g id="Group_146" data-name="Group 146">
      <path id="Path_117" data-name="Path 117" d="M363.787,890.866a8.673,8.673,0,0,1-8.711-8.43c-.007-.095-.008-.194-.008-.289a8.717,8.717,0,0,1,17.435,0c0,.1,0,.194-.009.29A8.671,8.671,0,0,1,363.787,890.866Zm0-16.228a7.519,7.519,0,0,0-7.512,7.509c0,.066,0,.134.005.2l0,.036a7.507,7.507,0,0,0,15.007,0l0-.038c.006-.065.005-.133.005-.2A7.517,7.517,0,0,0,363.787,874.638Z" fill="#fff"/>
    </g>
  </g>
  <g id="Group_148" data-name="Group 148" transform="translate(-355.068 -873.432)">
    <path id="Path_118" data-name="Path 118" d="M374.983,893.551a.6.6,0,0,1-.427-.177l-5.264-5.265a.6.6,0,0,1,.853-.853l5.264,5.265a.6.6,0,0,1-.426,1.03Z" fill="#fff"/>
  </g>
</svg>
