<svg id="Stream" xmlns="http://www.w3.org/2000/svg" width="23.139" height="23.138" viewBox="0 0 23.139 23.138">
  <g id="Group_25" data-name="Group 25" transform="translate(-381.519 -789.449)">
    <path id="Path_26" data-name="Path 26" d="M386.512,806.011a4.993,4.993,0,0,1-.047-9.986h.006a.609.609,0,0,1,.005,1.218,3.775,3.775,0,1,0,2.573,6.569l2.1-1.868a.609.609,0,0,1,.809.911l-2.1,1.863A4.975,4.975,0,0,1,386.512,806.011Z" fill="#fff"/>
  </g>
  <g id="Group_26" data-name="Group 26" transform="translate(-381.519 -789.449)">
    <path id="Path_27" data-name="Path 27" d="M399.665,806.011a.609.609,0,1,1,0-1.218,3.775,3.775,0,1,0-2.538-6.569l-2.086,1.871a.61.61,0,1,1-.776-.939l2.046-1.835a4.992,4.992,0,1,1,3.354,8.69Z" fill="#fff"/>
  </g>
  <g id="Group_27" data-name="Group 27" transform="translate(-381.519 -789.449)">
    <path id="Path_28" data-name="Path 28" d="M393.088,812.587a5,5,0,0,1-4.993-4.993.609.609,0,1,1,1.218,0,3.775,3.775,0,1,0,6.569-2.537l-1.868-2.1a.609.609,0,1,1,.911-.808l1.863,2.1a4.992,4.992,0,0,1-3.7,8.344Z" fill="#fff"/>
  </g>
  <g id="Group_28" data-name="Group 28" transform="translate(-381.519 -789.449)">
    <path id="Path_29" data-name="Path 29" d="M391.712,800.088a.6.6,0,0,1-.485-.245L389.39,797.8a4.993,4.993,0,1,1,8.691-3.354.609.609,0,1,1-1.218,0,3.775,3.775,0,1,0-6.568,2.537l1.87,2.086a.612.612,0,0,1-.453,1.023Z" fill="#fff"/>
  </g>
</svg>
