<svg id="Stream_filled" xmlns="http://www.w3.org/2000/svg" width="23.14" height="23.14" viewBox="0 0 23.14 23.14">
  <path id="Path_53" data-name="Path 53" d="M390.032,833.565l3.252,3.38.988-1.178,2-2.416a4.221,4.221,0,0,0,1-2.877v0a4.22,4.22,0,1,0-8.434.3v0A4.2,4.2,0,0,0,390.032,833.565Z" transform="translate(-381.52 -826.4)" fill="#fff"/>
  <path id="Path_54" data-name="Path 54" d="M392.08,837.97l-1.154-1.037-2.344-2.08a4.212,4.212,0,0,0-2.842-1.1c-.09,0-.177.008-.264.014-.06,0-.123.005-.185.011s-.142.022-.213.032-.139.02-.207.033c-.052.011-.1.027-.155.041-.084.022-.169.041-.253.068-.025.008-.049.019-.076.027a4.24,4.24,0,0,0-2.845,3.567,4.154,4.154,0,0,0,0,.854,4.244,4.244,0,0,0,2.836,3.564c.03.011.058.022.085.03a2.523,2.523,0,0,0,.248.065c.054.014.106.033.16.044s.134.022.2.032.144.025.218.033.122.008.185.011c.087.005.174.014.264.014a4.2,4.2,0,0,0,2.834-1.1L390.928,839Z" transform="translate(-381.52 -826.4)" fill="#fff"/>
  <path id="Path_55" data-name="Path 55" d="M394.108,840.112l-1.01-1.121-3.128,3.49a4.209,4.209,0,0,0-1.1,2.837v0a4.22,4.22,0,0,0,8.44,0v0a4.217,4.217,0,0,0-1.1-2.834Z" transform="translate(-381.52 -826.4)" fill="#fff"/>
  <path id="Path_56" data-name="Path 56" d="M400.44,833.75a4.211,4.211,0,0,0-2.836,1.1l-2.331,2.091a.3.3,0,0,1-.051.041l-1.1.991,1.1.991c.016.013.035.027.051.041l2.328,2.088a4.219,4.219,0,1,0,2.839-7.34Z" transform="translate(-381.52 -826.4)" fill="#fff"/>
</svg>
